<svg width="150" height="34" viewBox="0 0 150 34" fill="none" xmlns="http://www.w3.org/2000/svg">
<path d="M18.8513 5.48649L30.8825 26.4621L5.04725 29.9201L18.8513 5.48649ZM18.8314 0L0 33.3302L35.2509 28.6184L18.8314 0Z" fill="#2BB673"/>
<path d="M44.8383 9.00839H47.1183L52.6408 26.3543H49.6939L48.6078 22.9402H43.4168L42.3266 26.3543H39.3997L44.8383 9.00839ZM45.9763 14.6945L44.3791 19.8097H47.6055L45.9763 14.6945Z" fill="#1A1B1E"/>
<path d="M61.0222 9.00836H65.4865C66.0949 8.97814 66.7023 9.08601 67.2631 9.3239C67.824 9.56179 68.3237 9.92351 68.7248 10.382C69.5235 11.3004 69.9228 12.5382 69.9228 14.0955C69.9145 15.0527 69.7304 16.0001 69.3797 16.8907C69.0097 17.8609 68.3003 18.664 67.3832 19.1508L71.1606 26.3543H67.7984L64.2885 19.6539H63.9611V26.3543H61.0302L61.0222 9.00836ZM63.9731 12.103V16.6232H64.604C66.1347 16.6232 66.9 15.8246 66.9 14.2273C66.9142 13.9409 66.8682 13.6547 66.7651 13.3872C66.6619 13.1197 66.5038 12.8767 66.301 12.674C66.0769 12.474 65.8155 12.3202 65.5318 12.2216C65.2481 12.1229 64.9477 12.0812 64.6479 12.099L63.9731 12.103Z" fill="#1A1B1E"/>
<path d="M88.8541 9.9348V14.1635C87.3846 13.0374 86.0988 12.4731 84.9967 12.4704C84.4669 12.4629 83.9443 12.5933 83.4801 12.8488C83.016 13.1043 82.6263 13.4762 82.3493 13.9279C81.6864 14.8995 81.355 16.2039 81.355 17.8411C81.355 19.3904 81.7037 20.6309 82.4012 21.5627C82.716 22.0078 83.1358 22.3682 83.6235 22.6121C84.1111 22.8559 84.6514 22.9755 85.1964 22.9602C86.2186 22.9602 87.4392 22.4278 88.8581 21.363V25.5877C87.6066 26.1856 86.2499 26.5316 84.8649 26.6059C83.0361 26.6059 81.4841 25.7487 80.2089 24.0344C78.9338 22.32 78.2989 20.229 78.3042 17.7612C78.3042 15.2509 78.9538 13.1213 80.2529 11.3723C81.552 9.62333 83.1332 8.76083 84.9967 8.78479C86.3618 8.83267 87.691 9.23446 88.8541 9.95077" fill="#1A1B1E"/>
<path d="M107.562 9.9348V14.1635C106.092 13.0374 104.805 12.4731 103.7 12.4704C103.171 12.4641 102.649 12.595 102.185 12.8504C101.721 13.1058 101.331 13.477 101.053 13.9279C100.39 14.8995 100.06 16.2039 100.063 17.8411C100.063 19.3904 100.41 20.6309 101.105 21.5627C101.42 22.007 101.84 22.3669 102.328 22.6106C102.815 22.8543 103.355 22.9744 103.9 22.9602C104.917 22.9602 106.137 22.4278 107.562 21.363V25.5877C106.31 26.1857 104.953 26.5317 103.568 26.6059C101.745 26.6059 100.194 25.7487 98.9165 24.0344C97.6043 22.2115 96.9305 20.0063 96.9998 17.7612C96.9998 15.2509 97.6507 13.1213 98.9525 11.3723C100.254 9.62333 101.837 8.76083 103.7 8.78479C105.067 8.83216 106.397 9.23397 107.562 9.95077" fill="#1A1B1E"/>
<path d="M115.676 17.6813C115.676 15.1178 116.341 13.0001 117.672 11.3283C119.003 9.65656 120.575 8.822 122.388 8.82467C123.36 8.81563 124.321 9.03925 125.189 9.47687C126.057 9.91448 126.808 10.5534 127.379 11.3403C128.71 13.0227 129.369 15.1524 129.356 17.7292C129.343 20.3061 128.69 22.4211 127.399 24.0742C126.098 25.7593 124.456 26.6019 122.476 26.6019C121.519 26.6103 120.574 26.3862 119.722 25.9487C118.871 25.5112 118.139 24.8734 117.588 24.0902C116.31 22.4131 115.672 20.2835 115.672 17.7013L115.676 17.6813ZM122.52 12.3066C121.974 12.292 121.434 12.422 120.955 12.6837C120.476 12.9453 120.075 13.3291 119.792 13.7961C119.049 14.991 118.684 16.383 118.746 17.7891C118.694 19.1468 119.066 20.487 119.812 21.6225C120.091 22.0827 120.482 22.4649 120.949 22.7337C121.415 23.0025 121.942 23.149 122.48 23.1598C123.03 23.1654 123.572 23.0304 124.054 22.7676C124.537 22.5048 124.945 22.123 125.239 21.6584C125.939 20.6548 126.289 19.3345 126.289 17.6973C126.289 16.0601 125.946 14.765 125.259 13.812C124.964 13.3537 124.559 12.9759 124.082 12.7125C123.604 12.449 123.069 12.3082 122.524 12.3026" fill="#1A1B1E"/>
<path d="M147.137 9.00839H150V26.3703H147.149L140.94 15.1298V26.3703H138.013V9.00839H140.908L147.137 20.169V9.00839Z" fill="#1A1B1E"/>
</svg>
