<svg width="159" height="38" viewBox="0 0 159 38" fill="none" xmlns="http://www.w3.org/2000/svg">
<path d="M2.61399 4.18215C19.645 -8.79803 31.5077 11.3681 20.0485 24.788C12.009 34.2243 -4.27186 34.6951 1.04644 22.3047C1.02057 25.3002 2.30876 26.3141 3.59695 27.0229C6.95969 28.8388 13.2144 25.2226 16.2357 19.8991C21.6937 10.2661 14.0473 1.30571 2.61399 4.18215Z" fill="url(#paint0_linear_151_2136)"/>
<path d="M1.05137 22.3047C1.0255 25.3001 2.31369 26.3141 3.60188 27.0229C6.96462 28.8388 13.2193 25.2225 16.2406 19.899C21.6934 10.2661 14.0471 1.30568 2.61375 4.18212C2.61375 4.18212 8.64598 1.00044 14.9369 3.14225C21.233 5.28406 23.4627 14.798 17.327 23.2721C11.181 31.7514 -0.392025 32.4084 1.05137 22.3047Z" fill="url(#paint1_linear_151_2136)"/>
<path d="M0.0529785 32.4706C6.57152 39.2271 30.8143 30.1736 27.674 11.8906C27.674 11.8906 32.1283 18.0936 31.9731 29.0509C31.9731 29.0509 31.0937 27.711 29.8055 26.2521C29.8055 26.2521 27.2032 32.5068 18.3204 36.1747C9.44796 39.8427 2.21031 36.1799 0.0529785 32.4706Z" fill="url(#paint2_linear_151_2136)"/>
<path d="M0.0529785 32.4706C6.57152 39.2271 30.8143 30.1736 27.674 11.8906C27.674 11.8906 32.1283 18.0936 31.9731 29.0509C31.223 24.7828 30.8298 21.5598 29.1484 18.6988C28.4604 32.6982 8.56847 41.6689 0.0529785 32.4706Z" fill="url(#paint3_linear_151_2136)"/>
<path d="M5.99214 13.396C7.76663 12.201 10.431 13.0701 11.9571 15.3257C13.4833 17.5865 13.2712 20.3957 11.4967 21.5959C9.7222 22.791 7.04235 21.9219 5.5317 19.6662C4.01071 17.3899 4.2073 14.5911 5.99214 13.396Z" fill="url(#paint4_linear_151_2136)"/>
<path d="M12.0503 19.0714C10.2759 20.2664 7.61153 19.3973 6.08536 17.1417C5.48007 16.2467 5.15414 15.2741 5.08689 14.3428C4.2074 15.7345 4.32639 17.866 5.5318 19.6663C7.04245 21.9271 9.72229 22.7911 11.4968 21.596C12.5729 20.8717 13.0747 19.5577 12.9557 18.1401C12.7332 18.5075 12.4332 18.823 12.0503 19.0714Z" fill="url(#paint5_linear_151_2136)"/>
<path d="M46.8092 23.5688C45.1735 23.5688 43.6642 23.1879 42.2814 22.4262C40.9155 21.6476 39.8279 20.5727 39.0184 19.2017C38.2259 17.8137 37.8296 16.2564 37.8296 14.5299C37.8296 12.8033 38.2259 11.2545 39.0184 9.88345C39.8279 8.51238 40.9155 7.44599 42.2814 6.68428C43.6642 5.90565 45.1735 5.51633 46.8092 5.51633C48.4618 5.51633 49.971 5.90565 51.3369 6.68428C52.7197 7.44599 53.8074 8.51238 54.5999 9.88345C55.3925 11.2545 55.7888 12.8033 55.7888 14.5299C55.7888 16.2564 55.3925 17.8137 54.5999 19.2017C53.8074 20.5727 52.7197 21.6476 51.3369 22.4262C49.971 23.1879 48.4618 23.5688 46.8092 23.5688ZM46.8092 21.0551C47.9727 21.0551 49.0098 20.7928 49.9204 20.2681C50.831 19.7264 51.5393 18.9647 52.0452 17.9829C52.5679 16.9842 52.8293 15.8332 52.8293 14.5299C52.8293 13.2265 52.5679 12.0839 52.0452 11.1022C51.5393 10.1204 50.831 9.36718 49.9204 8.84245C49.0098 8.31772 47.9727 8.05535 46.8092 8.05535C45.6456 8.05535 44.6086 8.31772 43.698 8.84245C42.7873 9.36718 42.0707 10.1204 41.5479 11.1022C41.042 12.0839 40.7891 13.2265 40.7891 14.5299C40.7891 15.8332 41.042 16.9842 41.5479 17.9829C42.0707 18.9647 42.7873 19.7264 43.698 20.2681C44.6086 20.7928 45.6456 21.0551 46.8092 21.0551Z" fill="#141C33"/>
<path d="M60.0934 7.54755C59.5707 7.54755 59.1322 7.36982 58.7781 7.01435C58.424 6.65889 58.2469 6.21879 58.2469 5.69406C58.2469 5.16933 58.424 4.72923 58.7781 4.37377C59.1322 4.01831 59.5707 3.84058 60.0934 3.84058C60.5993 3.84058 61.0293 4.01831 61.3835 4.37377C61.7376 4.72923 61.9146 5.16933 61.9146 5.69406C61.9146 6.21879 61.7376 6.65889 61.3835 7.01435C61.0293 7.36982 60.5993 7.54755 60.0934 7.54755ZM61.5099 9.40104V23.3911H58.6263V9.40104H61.5099Z" fill="#141C33"/>
<path d="M68.1794 4.60228V23.3911H65.2958V4.60228H68.1794Z" fill="#141C33"/>
<path d="M71.0041 16.3326C71.0041 14.9276 71.2908 13.6835 71.8641 12.6002C72.4544 11.5169 73.2469 10.679 74.2418 10.0866C75.2536 9.47721 76.3666 9.17252 77.5807 9.17252C78.6768 9.17252 79.6296 9.39257 80.439 9.83267C81.2653 10.2558 81.923 10.789 82.412 11.4323V9.40104H85.3209V23.3911H82.412V21.309C81.923 21.9692 81.2569 22.5193 80.4137 22.9594C79.5706 23.3995 78.6094 23.6196 77.5301 23.6196C76.3329 23.6196 75.2368 23.3149 74.2418 22.7055C73.2469 22.0792 72.4544 21.216 71.8641 20.1157C71.2908 18.9985 71.0041 17.7375 71.0041 16.3326ZM82.412 16.3833C82.412 15.4185 82.2097 14.5806 81.8049 13.8697C81.4171 13.1588 80.9028 12.6171 80.262 12.2447C79.6212 11.8724 78.9298 11.6862 78.1878 11.6862C77.4458 11.6862 76.7544 11.8724 76.1136 12.2447C75.4728 12.6002 74.9501 13.1334 74.5454 13.8443C74.1575 14.5383 73.9636 15.3677 73.9636 16.3326C73.9636 17.2974 74.1575 18.1437 74.5454 18.8716C74.9501 19.5994 75.4728 20.158 76.1136 20.5473C76.7713 20.9197 77.4627 21.1059 78.1878 21.1059C78.9298 21.1059 79.6212 20.9197 80.262 20.5473C80.9028 20.175 81.4171 19.6333 81.8049 18.9224C82.2097 18.1945 82.412 17.3482 82.412 16.3833Z" fill="#141C33"/>
<path d="M94.6226 16.4087L101.047 23.3911H97.1521L91.992 17.3736V23.3911H89.1084V4.60228H91.992V15.5201L97.0509 9.40104H101.047L94.6226 16.4087Z" fill="#141C33"/>
<path d="M105.998 11.4323C106.419 10.7213 106.976 10.1712 107.667 9.78189C108.376 9.37565 109.21 9.17252 110.172 9.17252V12.1686H109.438C108.308 12.1686 107.448 12.4563 106.858 13.0318C106.285 13.6074 105.998 14.606 105.998 16.0279V23.3911H103.114V9.40104H105.998V11.4323Z" fill="#141C33"/>
<path d="M125.596 16.0533C125.596 16.578 125.562 17.052 125.495 17.4751H114.846C114.93 18.5923 115.343 19.4894 116.085 20.1665C116.827 20.8436 117.738 21.1821 118.817 21.1821C120.368 21.1821 121.464 20.5304 122.105 19.2271H125.216C124.795 20.5135 124.028 21.5714 122.915 22.4008C121.819 23.2133 120.453 23.6196 118.817 23.6196C117.485 23.6196 116.287 23.3233 115.225 22.7309C114.18 22.1215 113.353 21.2752 112.746 20.1919C112.156 19.0916 111.861 17.8221 111.861 16.3833C111.861 14.9446 112.148 13.6835 112.721 12.6002C113.311 11.5 114.129 10.6536 115.175 10.0612C116.237 9.46874 117.451 9.17252 118.817 9.17252C120.132 9.17252 121.304 9.46028 122.333 10.0358C123.362 10.6113 124.163 11.4238 124.736 12.4733C125.309 13.5058 125.596 14.6991 125.596 16.0533ZM122.586 15.1392C122.569 14.0728 122.19 13.218 121.448 12.5748C120.706 11.9316 119.787 11.61 118.69 11.61C117.696 11.61 116.844 11.9316 116.136 12.5748C115.427 13.2011 115.006 14.0559 114.871 15.1392H122.586Z" fill="#141C33"/>
<path d="M127.472 16.3326C127.472 14.9276 127.759 13.6835 128.332 12.6002C128.923 11.5169 129.715 10.679 130.71 10.0866C131.722 9.47721 132.843 9.17252 134.074 9.17252C134.985 9.17252 135.879 9.37565 136.756 9.78189C137.649 10.1712 138.358 10.6959 138.88 11.3561V4.60228H141.789V23.3911H138.88V21.2837C138.408 21.9607 137.751 22.5193 136.907 22.9594C136.081 23.3995 135.128 23.6196 134.049 23.6196C132.835 23.6196 131.722 23.3149 130.71 22.7055C129.715 22.0792 128.923 21.216 128.332 20.1157C127.759 18.9985 127.472 17.7375 127.472 16.3326ZM138.88 16.3833C138.88 15.4185 138.678 14.5806 138.273 13.8697C137.885 13.1588 137.371 12.6171 136.73 12.2447C136.09 11.8724 135.398 11.6862 134.656 11.6862C133.914 11.6862 133.223 11.8724 132.582 12.2447C131.941 12.6002 131.418 13.1334 131.014 13.8443C130.626 14.5383 130.432 15.3677 130.432 16.3326C130.432 17.2974 130.626 18.1437 131.014 18.8716C131.418 19.5994 131.941 20.158 132.582 20.5473C133.24 20.9197 133.931 21.1059 134.656 21.1059C135.398 21.1059 136.09 20.9197 136.73 20.5473C137.371 20.175 137.885 19.6333 138.273 18.9224C138.678 18.1945 138.88 17.3482 138.88 16.3833Z" fill="#141C33"/>
<path d="M147.044 7.54755C146.521 7.54755 146.083 7.36982 145.728 7.01435C145.374 6.65889 145.197 6.21879 145.197 5.69406C145.197 5.16933 145.374 4.72923 145.728 4.37377C146.083 4.01831 146.521 3.84058 147.044 3.84058C147.55 3.84058 147.98 4.01831 148.334 4.37377C148.688 4.72923 148.865 5.16933 148.865 5.69406C148.865 6.21879 148.688 6.65889 148.334 7.01435C147.98 7.36982 147.55 7.54755 147.044 7.54755ZM148.46 9.40104V23.3911H145.577V9.40104H148.46Z" fill="#141C33"/>
<path d="M155.61 11.7623V19.5063C155.61 20.0311 155.728 20.4119 155.965 20.6489C156.217 20.869 156.639 20.979 157.229 20.979H159V23.3911H156.723C155.425 23.3911 154.43 23.0864 153.739 22.477C153.047 21.8676 152.702 20.8774 152.702 19.5063V11.7623H151.057V9.40104H152.702V5.92258H155.61V9.40104H159V11.7623H155.61Z" fill="#141C33"/>
<path d="M39.847 32.5097C39.47 32.5097 39.1279 32.4213 38.8208 32.2445C38.5137 32.0638 38.2708 31.8143 38.092 31.496C37.9171 31.1738 37.8296 30.8103 37.8296 30.4056C37.8296 30.0009 37.9171 29.6394 38.092 29.3211C38.2708 28.9989 38.5137 28.7494 38.8208 28.5726C39.1279 28.3918 39.47 28.3015 39.847 28.3015C40.228 28.3015 40.572 28.3918 40.8791 28.5726C41.1862 28.7494 41.4272 28.9989 41.6021 29.3211C41.777 29.6394 41.8645 30.0009 41.8645 30.4056C41.8645 30.8103 41.777 31.1738 41.6021 31.496C41.4272 31.8143 41.1862 32.0638 40.8791 32.2445C40.572 32.4213 40.228 32.5097 39.847 32.5097ZM39.847 32.1502C40.1502 32.1502 40.4224 32.0795 40.6634 31.938C40.9044 31.7966 41.0948 31.5942 41.2348 31.3309C41.3747 31.0638 41.4447 30.7553 41.4447 30.4056C41.4447 30.0559 41.3747 29.7494 41.2348 29.4861C41.0948 29.2229 40.9044 29.0205 40.6634 28.8791C40.4224 28.7376 40.1502 28.6669 39.847 28.6669C39.5438 28.6669 39.2717 28.7376 39.0307 28.8791C38.7897 29.0205 38.5993 29.2229 38.4593 29.4861C38.3194 29.7494 38.2494 30.0559 38.2494 30.4056C38.2494 30.7553 38.3194 31.0638 38.4593 31.3309C38.5993 31.5942 38.7897 31.7966 39.0307 31.938C39.2717 32.0795 39.5438 32.1502 39.847 32.1502Z" fill="black"/>
<path d="M42.8154 28.6433C42.7338 28.6433 42.6638 28.6138 42.6055 28.5549C42.5472 28.496 42.5181 28.4233 42.5181 28.3368C42.5181 28.2504 42.5472 28.1796 42.6055 28.1246C42.6638 28.0657 42.7338 28.0362 42.8154 28.0362C42.8971 28.0362 42.967 28.0657 43.0253 28.1246C43.0836 28.1796 43.1128 28.2504 43.1128 28.3368C43.1128 28.4233 43.0836 28.496 43.0253 28.5549C42.967 28.6138 42.8971 28.6433 42.8154 28.6433ZM43.0195 29.2504V32.4685H42.6113V29.2504H43.0195Z" fill="black"/>
<path d="M44.3519 28.107V32.4685H43.9438V28.107H44.3519Z" fill="black"/>
<path d="M45.0896 30.8535C45.0896 30.5235 45.1538 30.2347 45.282 29.9871C45.4142 29.7356 45.595 29.5431 45.8243 29.4095C46.0575 29.272 46.3199 29.2032 46.6115 29.2032C46.9147 29.2032 47.1751 29.274 47.3928 29.4154C47.6143 29.5569 47.7737 29.7376 47.8709 29.9577V29.2504H48.2791V32.4685H47.8709V31.7553C47.7698 31.9754 47.6085 32.1581 47.3869 32.3035C47.1693 32.4449 46.9088 32.5156 46.6056 32.5156C46.318 32.5156 46.0575 32.4469 45.8243 32.3093C45.595 32.1718 45.4142 31.9773 45.282 31.7258C45.1538 31.4744 45.0896 31.1836 45.0896 30.8535ZM47.8709 30.8594C47.8709 30.6001 47.8184 30.3722 47.7135 30.1757C47.6085 29.9793 47.4647 29.828 47.282 29.7219C47.1032 29.6158 46.9049 29.5628 46.6873 29.5628C46.4618 29.5628 46.2597 29.6138 46.0809 29.716C45.902 29.8182 45.7602 29.9675 45.6552 30.1639C45.5541 30.3565 45.5036 30.5863 45.5036 30.8535C45.5036 31.1168 45.5541 31.3486 45.6552 31.549C45.7602 31.7455 45.902 31.8968 46.0809 32.0029C46.2597 32.105 46.4618 32.1561 46.6873 32.1561C46.9049 32.1561 47.1032 32.1031 47.282 31.997C47.4647 31.8909 47.6085 31.7396 47.7135 31.5431C47.8184 31.3467 47.8709 31.1188 47.8709 30.8594Z" fill="black"/>
<path d="M50.342 32.0677L51.4149 29.2504H51.8464L50.5694 32.4685H50.1088L48.8318 29.2504H49.2692L50.342 32.0677Z" fill="black"/>
<path d="M52.6036 28.6433C52.522 28.6433 52.452 28.6138 52.3937 28.5549C52.3354 28.496 52.3063 28.4233 52.3063 28.3368C52.3063 28.2504 52.3354 28.1796 52.3937 28.1246C52.452 28.0657 52.522 28.0362 52.6036 28.0362C52.6853 28.0362 52.7552 28.0657 52.8136 28.1246C52.8719 28.1796 52.901 28.2504 52.901 28.3368C52.901 28.4233 52.8719 28.496 52.8136 28.5549C52.7552 28.6138 52.6853 28.6433 52.6036 28.6433ZM52.8077 29.2504V32.4685H52.3996V29.2504H52.8077Z" fill="black"/>
<path d="M56.3559 29.2504L54.4667 33.9832H54.041L54.6591 32.4508L53.353 29.2504H53.802L54.8865 31.997L55.936 29.2504H56.3559Z" fill="black"/>
<path d="M59.04 29.5981V31.5962C59.04 31.7926 59.0769 31.9282 59.1508 32.0029C59.2246 32.0775 59.3548 32.1148 59.5414 32.1148H59.9146V32.4685H59.4773C59.1896 32.4685 58.9758 32.4017 58.8359 32.2681C58.696 32.1306 58.626 31.9066 58.626 31.5962V29.5981H58.1829V29.2504H58.626V28.4429H59.04V29.2504H59.9146V29.5981H59.04Z" fill="black"/>
<path d="M60.4011 30.8535C60.4011 30.5235 60.4653 30.2347 60.5936 29.9871C60.7257 29.7356 60.9065 29.5431 61.1358 29.4095C61.3691 29.272 61.6314 29.2032 61.923 29.2032C62.2262 29.2032 62.4866 29.274 62.7043 29.4154C62.9259 29.5569 63.0853 29.7376 63.1824 29.9577V29.2504H63.5906V32.4685H63.1824V31.7553C63.0814 31.9754 62.9201 32.1581 62.6985 32.3035C62.4808 32.4449 62.2204 32.5156 61.9172 32.5156C61.6295 32.5156 61.3691 32.4469 61.1358 32.3093C60.9065 32.1718 60.7257 31.9773 60.5936 31.7258C60.4653 31.4744 60.4011 31.1836 60.4011 30.8535ZM63.1824 30.8594C63.1824 30.6001 63.13 30.3722 63.025 30.1757C62.9201 29.9793 62.7762 29.828 62.5935 29.7219C62.4147 29.6158 62.2165 29.5628 61.9988 29.5628C61.7733 29.5628 61.5712 29.6138 61.3924 29.716C61.2136 29.8182 61.0717 29.9675 60.9667 30.1639C60.8657 30.3565 60.8151 30.5863 60.8151 30.8535C60.8151 31.1168 60.8657 31.3486 60.9667 31.549C61.0717 31.7455 61.2136 31.8968 61.3924 32.0029C61.5712 32.105 61.7733 32.1561 61.9988 32.1561C62.2165 32.1561 62.4147 32.1031 62.5935 31.997C62.7762 31.8909 62.9201 31.7396 63.025 31.5431C63.13 31.3467 63.1824 31.1188 63.1824 30.8594Z" fill="black"/>
<path d="M64.3358 30.8535C64.3358 30.5235 64.4019 30.2347 64.534 29.9871C64.6662 29.7356 64.847 29.5431 65.0763 29.4095C65.3095 29.272 65.5719 29.2032 65.8635 29.2032C66.1433 29.2032 66.396 29.272 66.6215 29.4095C66.8469 29.547 67.0121 29.7258 67.1171 29.9459V28.107H67.5252V32.4685H67.1171V31.7494C67.0199 31.9734 66.8605 32.1581 66.639 32.3035C66.4174 32.4449 66.1569 32.5156 65.8576 32.5156C65.5661 32.5156 65.3037 32.4469 65.0705 32.3093C64.8411 32.1718 64.6604 31.9773 64.5282 31.7258C64.3999 31.4744 64.3358 31.1836 64.3358 30.8535ZM67.1171 30.8594C67.1171 30.6001 67.0646 30.3722 66.9597 30.1757C66.8547 29.9793 66.7109 29.828 66.5282 29.7219C66.3494 29.6158 66.1511 29.5628 65.9334 29.5628C65.708 29.5628 65.5058 29.6138 65.327 29.716C65.1482 29.8182 65.0063 29.9675 64.9014 30.1639C64.8003 30.3565 64.7498 30.5863 64.7498 30.8535C64.7498 31.1168 64.8003 31.3486 64.9014 31.549C65.0063 31.7455 65.1482 31.8968 65.327 32.0029C65.5058 32.105 65.708 32.1561 65.9334 32.1561C66.1511 32.1561 66.3494 32.1031 66.5282 31.997C66.7109 31.8909 66.8547 31.7396 66.9597 31.5431C67.0646 31.3467 67.1171 31.1188 67.1171 30.8594Z" fill="black"/>
<path d="M68.8594 29.9635C68.9643 29.7396 69.1256 29.5569 69.3433 29.4154C69.5649 29.274 69.8253 29.2032 70.1246 29.2032C70.4162 29.2032 70.6766 29.272 70.906 29.4095C71.1353 29.5431 71.3141 29.7356 71.4424 29.9871C71.5746 30.2347 71.6406 30.5235 71.6406 30.8535C71.6406 31.1836 71.5746 31.4744 71.4424 31.7258C71.3141 31.9773 71.1334 32.1718 70.9001 32.3093C70.6708 32.4469 70.4123 32.5156 70.1246 32.5156C69.8214 32.5156 69.5591 32.4469 69.3375 32.3093C69.1198 32.1679 68.9604 31.9852 68.8594 31.7612V32.4685H68.457V28.107H68.8594V29.9635ZM71.2267 30.8535C71.2267 30.5863 71.1742 30.3565 71.0692 30.1639C70.9682 29.9675 70.8282 29.8182 70.6494 29.716C70.4706 29.6138 70.2685 29.5628 70.043 29.5628C69.8253 29.5628 69.6251 29.6158 69.4424 29.7219C69.2636 29.828 69.1217 29.9793 69.0168 30.1757C68.9118 30.3722 68.8594 30.6001 68.8594 30.8594C68.8594 31.1188 68.9118 31.3467 69.0168 31.5431C69.1217 31.7396 69.2636 31.8909 69.4424 31.997C69.6251 32.1031 69.8253 32.1561 70.043 32.1561C70.2685 32.1561 70.4706 32.105 70.6494 32.0029C70.8282 31.8968 70.9682 31.7455 71.0692 31.549C71.1742 31.3486 71.2267 31.1168 71.2267 30.8535Z" fill="black"/>
<path d="M72.5958 28.6433C72.5141 28.6433 72.4442 28.6138 72.3858 28.5549C72.3275 28.496 72.2984 28.4233 72.2984 28.3368C72.2984 28.2504 72.3275 28.1796 72.3858 28.1246C72.4442 28.0657 72.5141 28.0362 72.5958 28.0362C72.6774 28.0362 72.7474 28.0657 72.8057 28.1246C72.864 28.1796 72.8931 28.2504 72.8931 28.3368C72.8931 28.4233 72.864 28.496 72.8057 28.5549C72.7474 28.6138 72.6774 28.6433 72.5958 28.6433ZM72.7998 29.2504V32.4685H72.3917V29.2504H72.7998Z" fill="black"/>
<path d="M74.1323 29.8221C74.2217 29.6217 74.3577 29.4665 74.5404 29.3565C74.727 29.2465 74.9544 29.1914 75.2226 29.1914V29.6217H75.1118C74.8164 29.6217 74.5793 29.7023 74.4005 29.8634C74.2217 30.0245 74.1323 30.2936 74.1323 30.6708V32.4685H73.7241V29.2504H74.1323V29.8221Z" fill="black"/>
<path d="M77.5567 32.4685L76.2448 31.0245V32.4685H75.8366V28.107H76.2448V30.6885L77.5276 29.2504H78.099L76.5888 30.8535L78.1106 32.4685H77.5567Z" fill="black"/>
<path d="M80.0317 32.5156C79.7324 32.5156 79.4622 32.4488 79.2212 32.3152C78.9841 32.1777 78.7956 31.9852 78.6556 31.7376C78.5196 31.4862 78.4516 31.1934 78.4516 30.8594C78.4516 30.5254 78.5215 30.2347 78.6615 29.9871C78.8014 29.7356 78.9919 29.5431 79.2329 29.4095C79.4739 29.272 79.7441 29.2032 80.0434 29.2032C80.3427 29.2032 80.6128 29.272 80.8538 29.4095C81.0987 29.5431 81.2892 29.7356 81.4253 29.9871C81.5652 30.2347 81.6352 30.5254 81.6352 30.8594C81.6352 31.1895 81.5652 31.4803 81.4253 31.7317C81.2853 31.9832 81.0929 32.1777 80.848 32.3152C80.6031 32.4488 80.331 32.5156 80.0317 32.5156ZM80.0317 32.1561C80.2416 32.1561 80.436 32.109 80.6148 32.0146C80.7936 31.9164 80.9374 31.771 81.0463 31.5785C81.159 31.382 81.2154 31.1423 81.2154 30.8594C81.2154 30.5765 81.1609 30.3388 81.0521 30.1463C80.9433 29.9498 80.7994 29.8044 80.6206 29.7101C80.4418 29.6119 80.2474 29.5628 80.0375 29.5628C79.8276 29.5628 79.6333 29.6119 79.4545 29.7101C79.2756 29.8044 79.1318 29.9498 79.023 30.1463C78.918 30.3388 78.8656 30.5765 78.8656 30.8594C78.8656 31.1423 78.918 31.382 79.023 31.5785C79.1318 31.771 79.2737 31.9164 79.4486 32.0146C79.6274 32.109 79.8218 32.1561 80.0317 32.1561Z" fill="black"/>
<path d="M82.7873 29.8221C82.8768 29.6217 83.0128 29.4665 83.1955 29.3565C83.3821 29.2465 83.6095 29.1914 83.8777 29.1914V29.6217H83.7669C83.4715 29.6217 83.2344 29.7023 83.0556 29.8634C82.8768 30.0245 82.7873 30.2936 82.7873 30.6708V32.4685H82.3792V29.2504H82.7873V29.8221Z" fill="black"/>
<path d="M84.8999 28.107V32.4685H84.4917V28.107H84.8999Z" fill="black"/>
<path d="M86.0282 28.6433C85.9466 28.6433 85.8766 28.6138 85.8183 28.5549C85.76 28.496 85.7309 28.4233 85.7309 28.3368C85.7309 28.2504 85.76 28.1796 85.8183 28.1246C85.8766 28.0657 85.9466 28.0362 86.0282 28.0362C86.1099 28.0362 86.1798 28.0657 86.2381 28.1246C86.2964 28.1796 86.3256 28.2504 86.3256 28.3368C86.3256 28.4233 86.2964 28.496 86.2381 28.5549C86.1798 28.6138 86.1099 28.6433 86.0282 28.6433ZM86.2323 29.2504V32.4685H85.8242V29.2504H86.2323Z" fill="black"/>
<path d="M88.8767 32.4685L87.5647 31.0245V32.4685H87.1566V28.107H87.5647V30.6885L88.8475 29.2504H89.4189L87.9087 30.8535L89.4306 32.4685H88.8767Z" fill="black"/>
<path d="M91.4508 29.1914C91.8317 29.1914 92.1427 29.3113 92.3837 29.551C92.6247 29.7867 92.7452 30.1305 92.7452 30.5824V32.4685H92.3429V30.6296C92.3429 30.2799 92.2554 30.0127 92.0805 29.828C91.9095 29.6433 91.6743 29.551 91.375 29.551C91.0679 29.551 90.823 29.6492 90.6403 29.8457C90.4576 30.0421 90.3662 30.3309 90.3662 30.7121V32.4685H89.9581V29.2504H90.3662V29.7985C90.4673 29.6021 90.6131 29.4527 90.8036 29.3506C90.994 29.2445 91.2098 29.1914 91.4508 29.1914Z" fill="black"/>
<path d="M93.852 28.6433C93.7703 28.6433 93.7004 28.6138 93.6421 28.5549C93.5838 28.496 93.5546 28.4233 93.5546 28.3368C93.5546 28.2504 93.5838 28.1796 93.6421 28.1246C93.7004 28.0657 93.7703 28.0362 93.852 28.0362C93.9336 28.0362 94.0036 28.0657 94.0619 28.1246C94.1202 28.1796 94.1493 28.2504 94.1493 28.3368C94.1493 28.4233 94.1202 28.496 94.0619 28.5549C94.0036 28.6138 93.9336 28.6433 93.852 28.6433ZM94.056 29.2504V32.4685H93.6479V29.2504H94.056Z" fill="black"/>
<path d="M96.9885 29.8221C97.0779 29.6217 97.214 29.4665 97.3967 29.3565C97.5833 29.2465 97.8107 29.1914 98.0789 29.1914V29.6217H97.9681C97.6727 29.6217 97.4356 29.7023 97.2567 29.8634C97.0779 30.0245 96.9885 30.2936 96.9885 30.6708V32.4685H96.5804V29.2504H96.9885V29.8221Z" fill="black"/>
<path d="M98.897 28.6433C98.8153 28.6433 98.7454 28.6138 98.6871 28.5549C98.6288 28.496 98.5996 28.4233 98.5996 28.3368C98.5996 28.2504 98.6288 28.1796 98.6871 28.1246C98.7454 28.0657 98.8153 28.0362 98.897 28.0362C98.9786 28.0362 99.0486 28.0657 99.1069 28.1246C99.1652 28.1796 99.1943 28.2504 99.1943 28.3368C99.1943 28.4233 99.1652 28.496 99.1069 28.5549C99.0486 28.6138 98.9786 28.6433 98.897 28.6433ZM99.1011 29.2504V32.4685H98.6929V29.2504H99.1011Z" fill="black"/>
<path d="M101.156 32.0677L102.229 29.2504H102.661L101.384 32.4685H100.923L99.6463 29.2504H100.084L101.156 32.0677Z" fill="black"/>
<path d="M104.608 32.5156C104.308 32.5156 104.038 32.4488 103.797 32.3152C103.56 32.1777 103.371 31.9852 103.232 31.7376C103.095 31.4862 103.027 31.1934 103.027 30.8594C103.027 30.5254 103.097 30.2347 103.237 29.9871C103.377 29.7356 103.568 29.5431 103.809 29.4095C104.05 29.272 104.32 29.2032 104.619 29.2032C104.919 29.2032 105.189 29.272 105.43 29.4095C105.675 29.5431 105.865 29.7356 106.001 29.9871C106.141 30.2347 106.211 30.5254 106.211 30.8594C106.211 31.1895 106.141 31.4803 106.001 31.7317C105.861 31.9832 105.669 32.1777 105.424 32.3152C105.179 32.4488 104.907 32.5156 104.608 32.5156ZM104.608 32.1561C104.818 32.1561 105.012 32.109 105.191 32.0146C105.369 31.9164 105.513 31.771 105.622 31.5785C105.735 31.382 105.791 31.1423 105.791 30.8594C105.791 30.5765 105.737 30.3388 105.628 30.1463C105.519 29.9498 105.375 29.8044 105.197 29.7101C105.018 29.6119 104.823 29.5628 104.613 29.5628C104.404 29.5628 104.209 29.6119 104.03 29.7101C103.852 29.8044 103.708 29.9498 103.599 30.1463C103.494 30.3388 103.441 30.5765 103.441 30.8594C103.441 31.1423 103.494 31.382 103.599 31.5785C103.708 31.771 103.85 31.9164 104.025 32.0146C104.203 32.109 104.398 32.1561 104.608 32.1561Z" fill="black"/>
<path d="M107.188 28.6433C107.107 28.6433 107.037 28.6138 106.978 28.5549C106.92 28.496 106.891 28.4233 106.891 28.3368C106.891 28.2504 106.92 28.1796 106.978 28.1246C107.037 28.0657 107.107 28.0362 107.188 28.0362C107.27 28.0362 107.338 28.0657 107.392 28.1246C107.451 28.1796 107.48 28.2504 107.48 28.3368C107.48 28.4233 107.451 28.496 107.392 28.5549C107.338 28.6138 107.27 28.6433 107.188 28.6433ZM107.387 33.2288C107.387 33.4881 107.322 33.6787 107.194 33.8005C107.066 33.9263 106.873 33.9891 106.617 33.9891H106.331V33.6355H106.553C106.704 33.6355 106.813 33.6021 106.879 33.5353C106.945 33.4724 106.978 33.3644 106.978 33.2111V29.2504H107.387V33.2288Z" fill="black"/>
<path d="M108.73 28.107V32.4685H108.322V28.107H108.73Z" fill="black"/>
<path d="M109.468 30.8535C109.468 30.5235 109.532 30.2347 109.66 29.9871C109.792 29.7356 109.973 29.5431 110.202 29.4095C110.435 29.272 110.698 29.2032 110.989 29.2032C111.293 29.2032 111.553 29.274 111.771 29.4154C111.992 29.5569 112.152 29.7376 112.249 29.9577V29.2504H112.657V32.4685H112.249V31.7553C112.148 31.9754 111.986 32.1581 111.765 32.3035C111.547 32.4449 111.287 32.5156 110.984 32.5156C110.696 32.5156 110.435 32.4469 110.202 32.3093C109.973 32.1718 109.792 31.9773 109.66 31.7258C109.532 31.4744 109.468 31.1836 109.468 30.8535ZM112.249 30.8594C112.249 30.6001 112.196 30.3722 112.091 30.1757C111.986 29.9793 111.843 29.828 111.66 29.7219C111.481 29.6158 111.283 29.5628 111.065 29.5628C110.84 29.5628 110.638 29.6138 110.459 29.716C110.28 29.8182 110.138 29.9675 110.033 30.1639C109.932 30.3565 109.882 30.5863 109.882 30.8535C109.882 31.1168 109.932 31.3486 110.033 31.549C110.138 31.7455 110.28 31.8968 110.459 32.0029C110.638 32.105 110.84 32.1561 111.065 32.1561C111.283 32.1561 111.481 32.1031 111.66 31.997C111.843 31.8909 111.986 31.7396 112.091 31.5431C112.196 31.3467 112.249 31.1188 112.249 30.8594Z" fill="black"/>
<path d="M115.081 29.1914C115.462 29.1914 115.773 29.3113 116.014 29.551C116.255 29.7867 116.376 30.1305 116.376 30.5824V32.4685H115.974V30.6296C115.974 30.2799 115.886 30.0127 115.711 29.828C115.54 29.6433 115.305 29.551 115.006 29.551C114.699 29.551 114.454 29.6492 114.271 29.8457C114.088 30.0421 113.997 30.3309 113.997 30.7121V32.4685H113.589V29.2504H113.997V29.7985C114.098 29.6021 114.244 29.4527 114.434 29.3506C114.625 29.2445 114.84 29.1914 115.081 29.1914Z" fill="black"/>
<path d="M117.809 29.5981V31.5962C117.809 31.7926 117.846 31.9282 117.92 32.0029C117.994 32.0775 118.124 32.1148 118.311 32.1148H118.684V32.4685H118.246C117.959 32.4685 117.745 32.4017 117.605 32.2681C117.465 32.1306 117.395 31.9066 117.395 31.5962V29.5981H116.952V29.2504H117.395V28.4429H117.809V29.2504H118.684V29.5981H117.809Z" fill="black"/>
<path d="M119.561 28.6433C119.479 28.6433 119.409 28.6138 119.351 28.5549C119.293 28.496 119.264 28.4233 119.264 28.3368C119.264 28.2504 119.293 28.1796 119.351 28.1246C119.409 28.0657 119.479 28.0362 119.561 28.0362C119.643 28.0362 119.713 28.0657 119.771 28.1246C119.829 28.1796 119.858 28.2504 119.858 28.3368C119.858 28.4233 119.829 28.496 119.771 28.5549C119.713 28.6138 119.643 28.6433 119.561 28.6433ZM119.765 29.2504V32.4685H119.357V29.2504H119.765Z" fill="black"/>
<path d="M121.098 29.8221C121.187 29.6217 121.323 29.4665 121.506 29.3565C121.692 29.2465 121.92 29.1914 122.188 29.1914V29.6217H122.077C121.782 29.6217 121.545 29.7023 121.366 29.8634C121.187 30.0245 121.098 30.2936 121.098 30.6708V32.4685H120.689V29.2504H121.098V29.8221Z" fill="black"/>
<path d="M123.006 28.6433C122.924 28.6433 122.854 28.6138 122.796 28.5549C122.738 28.496 122.709 28.4233 122.709 28.3368C122.709 28.2504 122.738 28.1796 122.796 28.1246C122.854 28.0657 122.924 28.0362 123.006 28.0362C123.088 28.0362 123.158 28.0657 123.216 28.1246C123.274 28.1796 123.303 28.2504 123.303 28.3368C123.303 28.4233 123.274 28.496 123.216 28.5549C123.158 28.6138 123.088 28.6433 123.006 28.6433ZM123.21 29.2504V32.4685H122.802V29.2504H123.21Z" fill="black"/>
<path d="M125.23 32.5156C124.865 32.5156 124.566 32.4312 124.333 32.2622C124.103 32.0893 123.975 31.8555 123.948 31.5608H124.368C124.387 31.7416 124.471 31.8889 124.618 32.0029C124.77 32.1129 124.972 32.1679 125.225 32.1679C125.446 32.1679 125.619 32.1148 125.744 32.0088C125.872 31.9027 125.936 31.771 125.936 31.6139C125.936 31.5038 125.901 31.4135 125.831 31.3427C125.761 31.272 125.672 31.217 125.563 31.1777C125.458 31.1345 125.314 31.0893 125.131 31.0421C124.894 30.9793 124.702 30.9164 124.554 30.8535C124.406 30.7907 124.28 30.6983 124.175 30.5765C124.074 30.4508 124.024 30.2838 124.024 30.0755C124.024 29.9184 124.07 29.773 124.163 29.6394C124.257 29.5058 124.389 29.3997 124.56 29.3211C124.731 29.2425 124.925 29.2032 125.143 29.2032C125.485 29.2032 125.761 29.2916 125.971 29.4685C126.181 29.6413 126.294 29.881 126.309 30.1875H125.901C125.889 29.9989 125.816 29.8476 125.679 29.7337C125.547 29.6158 125.365 29.5569 125.131 29.5569C124.925 29.5569 124.758 29.606 124.63 29.7042C124.502 29.8024 124.438 29.9243 124.438 30.0696C124.438 30.1954 124.474 30.2995 124.548 30.382C124.626 30.4606 124.721 30.5235 124.834 30.5706C124.947 30.6138 125.098 30.663 125.289 30.718C125.518 30.7808 125.701 30.8417 125.837 30.9007C125.973 30.9596 126.09 31.0461 126.187 31.16C126.284 31.274 126.334 31.4253 126.338 31.6139C126.338 31.7867 126.292 31.942 126.198 32.0795C126.105 32.2131 125.975 32.3192 125.808 32.3978C125.641 32.4763 125.448 32.5156 125.23 32.5156Z" fill="black"/>
<path d="M128.623 29.1914C128.864 29.1914 129.079 29.2425 129.27 29.3447C129.464 29.4468 129.616 29.604 129.725 29.8162C129.837 30.0245 129.894 30.2799 129.894 30.5824V32.4685H129.491V30.6296C129.491 30.2799 129.404 30.0127 129.229 29.828C129.058 29.6433 128.823 29.551 128.524 29.551C128.216 29.551 127.972 29.6492 127.789 29.8457C127.606 30.0421 127.515 30.3309 127.515 30.7121V32.4685H127.107V28.107H127.515V29.7985C127.616 29.606 127.764 29.4567 127.958 29.3506C128.156 29.2445 128.378 29.1914 128.623 29.1914Z" fill="black"/>
<path d="M132.21 30.8535C132.21 30.5235 132.276 30.2347 132.408 29.9871C132.54 29.7356 132.721 29.5431 132.95 29.4095C133.184 29.272 133.446 29.2032 133.738 29.2032C134.017 29.2032 134.27 29.272 134.496 29.4095C134.721 29.547 134.886 29.7258 134.991 29.9459V28.107H135.399V32.4685H134.991V31.7494C134.894 31.9734 134.735 32.1581 134.513 32.3035C134.292 32.4449 134.031 32.5156 133.732 32.5156C133.44 32.5156 133.178 32.4469 132.945 32.3093C132.715 32.1718 132.534 31.9773 132.402 31.7258C132.274 31.4744 132.21 31.1836 132.21 30.8535ZM134.991 30.8594C134.991 30.6001 134.939 30.3722 134.834 30.1757C134.729 29.9793 134.585 29.828 134.402 29.7219C134.223 29.6158 134.025 29.5628 133.808 29.5628C133.582 29.5628 133.38 29.6138 133.201 29.716C133.022 29.8182 132.88 29.9675 132.775 30.1639C132.674 30.3565 132.624 30.5863 132.624 30.8535C132.624 31.1168 132.674 31.3486 132.775 31.549C132.88 31.7455 133.022 31.8968 133.201 32.0029C133.38 32.105 133.582 32.1561 133.808 32.1561C134.025 32.1561 134.223 32.1031 134.402 31.997C134.585 31.8909 134.729 31.7396 134.834 31.5431C134.939 31.3467 134.991 31.1188 134.991 30.8594Z" fill="black"/>
<path d="M136.145 30.8535C136.145 30.5235 136.209 30.2347 136.337 29.9871C136.469 29.7356 136.65 29.5431 136.879 29.4095C137.112 29.272 137.375 29.2032 137.666 29.2032C137.97 29.2032 138.23 29.274 138.448 29.4154C138.669 29.5569 138.829 29.7376 138.926 29.9577V29.2504H139.334V32.4685H138.926V31.7553C138.825 31.9754 138.663 32.1581 138.442 32.3035C138.224 32.4449 137.964 32.5156 137.661 32.5156C137.373 32.5156 137.112 32.4469 136.879 32.3093C136.65 32.1718 136.469 31.9773 136.337 31.7258C136.209 31.4744 136.145 31.1836 136.145 30.8535ZM138.926 30.8594C138.926 30.6001 138.873 30.3722 138.768 30.1757C138.663 29.9793 138.52 29.828 138.337 29.7219C138.158 29.6158 137.96 29.5628 137.742 29.5628C137.517 29.5628 137.315 29.6138 137.136 29.716C136.957 29.8182 136.815 29.9675 136.71 30.1639C136.609 30.3565 136.559 30.5863 136.559 30.8535C136.559 31.1168 136.609 31.3486 136.71 31.549C136.815 31.7455 136.957 31.8968 137.136 32.0029C137.315 32.105 137.517 32.1561 137.742 32.1561C137.96 32.1561 138.158 32.1031 138.337 31.997C138.52 31.8909 138.663 31.7396 138.768 31.5431C138.873 31.3467 138.926 31.1188 138.926 30.8594Z" fill="black"/>
<path d="M141.362 32.5156C140.997 32.5156 140.697 32.4312 140.464 32.2622C140.235 32.0893 140.106 31.8555 140.079 31.5608H140.499C140.518 31.7416 140.602 31.8889 140.75 32.0029C140.901 32.1129 141.103 32.1679 141.356 32.1679C141.578 32.1679 141.751 32.1148 141.875 32.0088C142.003 31.9027 142.068 31.771 142.068 31.6139C142.068 31.5038 142.033 31.4135 141.963 31.3427C141.893 31.272 141.803 31.217 141.694 31.1777C141.589 31.1345 141.446 31.0893 141.263 31.0421C141.026 30.9793 140.833 30.9164 140.686 30.8535C140.538 30.7907 140.412 30.6983 140.307 30.5765C140.206 30.4508 140.155 30.2838 140.155 30.0755C140.155 29.9184 140.202 29.773 140.295 29.6394C140.388 29.5058 140.52 29.3997 140.691 29.3211C140.862 29.2425 141.057 29.2032 141.275 29.2032C141.617 29.2032 141.893 29.2916 142.102 29.4685C142.312 29.6413 142.425 29.881 142.441 30.1875H142.033C142.021 29.9989 141.947 29.8476 141.811 29.7337C141.679 29.6158 141.496 29.5569 141.263 29.5569C141.057 29.5569 140.89 29.606 140.761 29.7042C140.633 29.8024 140.569 29.9243 140.569 30.0696C140.569 30.1954 140.606 30.2995 140.68 30.382C140.758 30.4606 140.853 30.5235 140.965 30.5706C141.078 30.6138 141.23 30.663 141.42 30.718C141.65 30.7808 141.832 30.8417 141.968 30.9007C142.104 30.9596 142.221 31.0461 142.318 31.16C142.415 31.274 142.466 31.4253 142.47 31.6139C142.47 31.7867 142.423 31.942 142.33 32.0795C142.237 32.2131 142.106 32.3192 141.939 32.3978C141.772 32.4763 141.58 32.5156 141.362 32.5156Z" fill="black"/>
<path d="M143.769 29.5981V31.5962C143.769 31.7926 143.806 31.9282 143.88 32.0029C143.953 32.0775 144.084 32.1148 144.27 32.1148H144.643V32.4685H144.206C143.918 32.4685 143.705 32.4017 143.565 32.2681C143.425 32.1306 143.355 31.9066 143.355 31.5962V29.5981H142.912V29.2504H143.355V28.4429H143.769V29.2504H144.643V29.5981H143.769Z" fill="black"/>
<path d="M148.074 29.2504V32.4685H147.666V31.9027C147.573 32.1031 147.429 32.2563 147.235 32.3624C147.04 32.4685 146.823 32.5215 146.582 32.5215C146.201 32.5215 145.89 32.4036 145.649 32.1679C145.408 31.9282 145.287 31.5824 145.287 31.1306V29.2504H145.69V31.0834C145.69 31.4331 145.775 31.7003 145.946 31.885C146.121 32.0697 146.358 32.162 146.658 32.162C146.965 32.162 147.21 32.0638 147.392 31.8673C147.575 31.6708 147.666 31.382 147.666 31.0009V29.2504H148.074Z" fill="black"/>
<path d="M149.414 29.8221C149.504 29.6217 149.64 29.4665 149.823 29.3565C150.009 29.2465 150.237 29.1914 150.505 29.1914V29.6217H150.394C150.099 29.6217 149.861 29.7023 149.683 29.8634C149.504 30.0245 149.414 30.2936 149.414 30.6708V32.4685H149.006V29.2504H149.414V29.8221Z" fill="black"/>
<path d="M151.527 28.107V32.4685H151.119V28.107H151.527Z" fill="black"/>
<path d="M152.265 30.8535C152.265 30.5235 152.329 30.2347 152.457 29.9871C152.589 29.7356 152.77 29.5431 152.999 29.4095C153.233 29.272 153.495 29.2032 153.786 29.2032C154.09 29.2032 154.35 29.274 154.568 29.4154C154.789 29.5569 154.949 29.7376 155.046 29.9577V29.2504H155.454V32.4685H155.046V31.7553C154.945 31.9754 154.784 32.1581 154.562 32.3035C154.344 32.4449 154.084 32.5156 153.781 32.5156C153.493 32.5156 153.233 32.4469 152.999 32.3093C152.77 32.1718 152.589 31.9773 152.457 31.7258C152.329 31.4744 152.265 31.1836 152.265 30.8535ZM155.046 30.8594C155.046 30.6001 154.993 30.3722 154.889 30.1757C154.784 29.9793 154.64 29.828 154.457 29.7219C154.278 29.6158 154.08 29.5628 153.862 29.5628C153.637 29.5628 153.435 29.6138 153.256 29.716C153.077 29.8182 152.935 29.9675 152.83 30.1639C152.729 30.3565 152.679 30.5863 152.679 30.8535C152.679 31.1168 152.729 31.3486 152.83 31.549C152.935 31.7455 153.077 31.8968 153.256 32.0029C153.435 32.105 153.637 32.1561 153.862 32.1561C154.08 32.1561 154.278 32.1031 154.457 31.997C154.64 31.8909 154.784 31.7396 154.889 31.5431C154.993 31.3467 155.046 31.1188 155.046 30.8594Z" fill="black"/>
<path d="M156.794 29.8221C156.883 29.6217 157.02 29.4665 157.202 29.3565C157.389 29.2465 157.616 29.1914 157.884 29.1914V29.6217H157.774C157.478 29.6217 157.241 29.7023 157.062 29.8634C156.883 30.0245 156.794 30.2936 156.794 30.6708V32.4685H156.386V29.2504H156.794V29.8221Z" fill="black"/>
<path d="M158.702 28.6433C158.621 28.6433 158.551 28.6138 158.493 28.5549C158.434 28.496 158.405 28.4233 158.405 28.3368C158.405 28.2504 158.434 28.1796 158.493 28.1246C158.551 28.0657 158.621 28.0362 158.702 28.0362C158.784 28.0362 158.854 28.0657 158.912 28.1246C158.971 28.1796 159 28.2504 159 28.3368C159 28.4233 158.971 28.496 158.912 28.5549C158.854 28.6138 158.784 28.6433 158.702 28.6433ZM158.907 29.2504V32.4685H158.498V29.2504H158.907Z" fill="black"/>
<defs>
<linearGradient id="paint0_linear_151_2136" x1="4.43579" y1="28.0103" x2="16.7428" y2="-1.33071" gradientUnits="userSpaceOnUse">
<stop stop-color="#00C695"/>
<stop offset="1" stop-color="#3FEDC2"/>
</linearGradient>
<linearGradient id="paint1_linear_151_2136" x1="4.54022" y1="26.5363" x2="15.5635" y2="1.69884" gradientUnits="userSpaceOnUse">
<stop stop-color="#00C695"/>
<stop offset="1" stop-color="#3FEDC2"/>
</linearGradient>
<linearGradient id="paint2_linear_151_2136" x1="5.81207" y1="34.6557" x2="12.7002" y2="8.42222" gradientUnits="userSpaceOnUse">
<stop stop-color="#00C695"/>
<stop offset="1" stop-color="#3FEDC2"/>
</linearGradient>
<linearGradient id="paint3_linear_151_2136" x1="5.81207" y1="33.3485" x2="11.9762" y2="8.44219" gradientUnits="userSpaceOnUse">
<stop stop-color="#00C695"/>
<stop offset="1" stop-color="#3FEDC2"/>
</linearGradient>
<linearGradient id="paint4_linear_151_2136" x1="6.03754" y1="21.0406" x2="9.22002" y2="12.0952" gradientUnits="userSpaceOnUse">
<stop stop-color="#00C695"/>
<stop offset="1" stop-color="#3FEDC2"/>
</linearGradient>
<linearGradient id="paint5_linear_151_2136" x1="6.0393" y1="21.2163" x2="8.36419" y2="13.4451" gradientUnits="userSpaceOnUse">
<stop stop-color="#00C695"/>
<stop offset="1" stop-color="#3FEDC2"/>
</linearGradient>
</defs>
</svg>
