<svg width="220" height="53" viewBox="0 0 220 53" fill="none" xmlns="http://www.w3.org/2000/svg">
<path d="M21.4769 4.69427C24.0694 2.10169 28.2728 2.1017 30.8654 4.69427L47.648 21.4769C50.2406 24.0694 50.2406 28.2728 47.648 30.8654L30.8654 47.648C28.2728 50.2406 24.0694 50.2406 21.4769 47.648L4.69426 30.8654C2.10169 28.2728 2.10169 24.0694 4.69427 21.4769L21.4769 4.69427Z" fill="#26292C"/>
<path d="M29.6805 4.69427C32.2731 2.10169 36.4765 2.1017 39.0691 4.69427L55.8517 21.4769C58.4442 24.0694 58.4442 28.2728 55.8517 30.8654L39.0691 47.648C36.4765 50.2406 32.2731 50.2406 29.6805 47.648L12.8979 30.8654C10.3054 28.2728 10.3054 24.0694 12.8979 21.4769L29.6805 4.69427Z" fill="#08A0F8"/>
<path d="M26.8617 33.1637C25.9092 33.1637 25.0481 33.0006 24.2783 32.6744C23.5215 32.3483 22.9213 31.8785 22.4777 31.2653C22.0341 30.6521 21.8058 29.9279 21.7927 29.0929H24.7284C24.7676 29.6539 24.9633 30.0975 25.3156 30.4237C25.6809 30.7499 26.1767 30.913 26.803 30.913C27.4423 30.913 27.9447 30.763 28.31 30.4629C28.6753 30.1497 28.858 29.7453 28.858 29.2495C28.858 28.845 28.734 28.5123 28.4861 28.2513C28.2382 27.9904 27.9251 27.7881 27.5467 27.6446C27.1814 27.488 26.6725 27.3184 26.0201 27.1357C25.1329 26.8748 24.4088 26.6204 23.8477 26.3725C23.2997 26.1115 22.8235 25.7266 22.419 25.2177C22.0276 24.6958 21.8319 24.0043 21.8319 23.1432C21.8319 22.3342 22.0341 21.6297 22.4386 21.0295C22.8431 20.4293 23.4106 19.9726 24.1413 19.6595C24.872 19.3333 25.707 19.1702 26.6464 19.1702C28.0556 19.1702 29.1972 19.516 30.0714 20.2075C30.9587 20.886 31.4479 21.8384 31.5393 23.0649H28.5253C28.4992 22.5952 28.2969 22.2103 27.9186 21.9102C27.5532 21.597 27.0639 21.4405 26.4507 21.4405C25.9158 21.4405 25.4852 21.5775 25.159 21.8515C24.8459 22.1255 24.6893 22.5234 24.6893 23.0453C24.6893 23.4107 24.8067 23.7173 25.0416 23.9652C25.2895 24.2 25.5896 24.3958 25.9419 24.5523C26.3072 24.6958 26.816 24.8655 27.4684 25.0612C28.3557 25.3221 29.0798 25.5831 29.6408 25.844C30.2019 26.105 30.6847 26.4964 31.0891 27.0183C31.4936 27.5402 31.6958 28.2252 31.6958 29.0733C31.6958 29.804 31.5066 30.4824 31.1283 31.1087C30.7499 31.735 30.1954 32.2373 29.4647 32.6157C28.734 32.9811 27.8664 33.1637 26.8617 33.1637Z" fill="white"/>
<path d="M40.4124 33.1637C39.1338 33.1637 37.9595 32.8636 36.8896 32.2634C35.8197 31.6633 34.9716 30.8347 34.3453 29.7779C33.719 28.708 33.4059 27.5011 33.4059 26.1572C33.4059 24.8263 33.719 23.6325 34.3453 22.5756C34.9716 21.5057 35.8197 20.6707 36.8896 20.0705C37.9595 19.4703 39.1338 19.1702 40.4124 19.1702C41.7041 19.1702 42.8784 19.4703 43.9353 20.0705C45.0052 20.6707 45.8468 21.5057 46.46 22.5756C47.0863 23.6325 47.3994 24.8263 47.3994 26.1572C47.3994 27.5011 47.0863 28.708 46.46 29.7779C45.8468 30.8347 45.0052 31.6633 43.9353 32.2634C42.8654 32.8636 41.6911 33.1637 40.4124 33.1637ZM40.4124 30.7173C41.2344 30.7173 41.9586 30.5346 42.5849 30.1693C43.2111 29.7909 43.7004 29.256 44.0527 28.5645C44.405 27.8729 44.5811 27.0705 44.5811 26.1572C44.5811 25.2438 44.405 24.4479 44.0527 23.7695C43.7004 23.0779 43.2111 22.5495 42.5849 22.1842C41.9586 21.8189 41.2344 21.6362 40.4124 21.6362C39.5904 21.6362 38.8598 21.8189 38.2204 22.1842C37.5942 22.5495 37.1049 23.0779 36.7526 23.7695C36.4003 24.4479 36.2242 25.2438 36.2242 26.1572C36.2242 27.0705 36.4003 27.8729 36.7526 28.5645C37.1049 29.256 37.5942 29.7909 38.2204 30.1693C38.8598 30.5346 39.5904 30.7173 40.4124 30.7173Z" fill="white"/>
<path d="M73.3682 35.7422C72.1776 35.7422 71.1012 35.5383 70.1389 35.1306C69.193 34.7229 68.4427 34.1357 67.8882 33.3692C67.3337 32.6026 67.0483 31.6975 67.032 30.6537H70.7016C70.7505 31.355 70.9952 31.9095 71.4355 32.3172C71.8922 32.725 72.5119 32.9288 73.2948 32.9288C74.094 32.9288 74.7219 32.7413 75.1785 32.3662C75.6352 31.9747 75.8635 31.4691 75.8635 30.8494C75.8635 30.3438 75.7086 29.9279 75.3987 29.6017C75.0888 29.2755 74.6974 29.0227 74.2244 28.8433C73.7678 28.6476 73.1317 28.4356 72.3162 28.2072C71.2072 27.881 70.302 27.563 69.6007 27.2531C68.9157 26.9269 68.3204 26.4458 67.8148 25.8097C67.3255 25.1574 67.0809 24.293 67.0809 23.2165C67.0809 22.2054 67.3337 21.3246 67.8393 20.5744C68.3449 19.8242 69.0543 19.2533 69.9677 18.8619C70.881 18.4542 71.9248 18.2503 73.0991 18.2503C74.8605 18.2503 76.2876 18.6825 77.3803 19.5469C78.4894 20.395 79.101 21.5856 79.2151 23.1187H75.4476C75.415 22.5315 75.1622 22.0504 74.6893 21.6753C74.2326 21.2839 73.621 21.0882 72.8544 21.0882C72.1857 21.0882 71.6475 21.2594 71.2398 21.6019C70.8484 21.9444 70.6527 22.4418 70.6527 23.0942C70.6527 23.5509 70.7994 23.9342 71.093 24.244C71.4029 24.5376 71.778 24.7822 72.2184 24.978C72.675 25.1574 73.3111 25.3694 74.1266 25.614C75.2356 25.9402 76.1408 26.2664 76.8421 26.5926C77.5434 26.9188 78.1469 27.4081 78.6525 28.0605C79.158 28.7128 79.4108 29.5691 79.4108 30.6292C79.4108 31.5425 79.1744 32.3906 78.7014 33.1735C78.2284 33.9563 77.5353 34.5842 76.6219 35.0572C75.7086 35.5139 74.624 35.7422 73.3682 35.7422Z" fill="#161515"/>
<path d="M99.2116 21.8221C100.875 21.8221 102.213 22.3358 103.224 23.3633C104.251 24.3745 104.765 25.7934 104.765 27.6201V35.571H101.34V28.0849C101.34 27.0248 101.071 26.2175 100.533 25.663C99.9944 25.0921 99.2605 24.8067 98.3309 24.8067C97.4012 24.8067 96.6591 25.0921 96.1046 25.663C95.5664 26.2175 95.2973 27.0248 95.2973 28.0849V35.571H91.8723V28.0849C91.8723 27.0248 91.6032 26.2175 91.065 25.663C90.5268 25.0921 89.7928 24.8067 88.8632 24.8067C87.9173 24.8067 87.167 25.0921 86.6125 25.663C86.0743 26.2175 85.8052 27.0248 85.8052 28.0849V35.571H82.3802V22.0178H85.8052V23.6569C86.2455 23.0861 86.8082 22.6376 87.4932 22.3114C88.1945 21.9852 88.9611 21.8221 89.7928 21.8221C90.853 21.8221 91.7989 22.0504 92.6307 22.5071C93.4625 22.9474 94.1067 23.5835 94.5634 24.4153C95.0037 23.6324 95.6398 23.0045 96.4716 22.5315C97.3197 22.0586 98.233 21.8221 99.2116 21.8221Z" fill="#161515"/>
<path d="M107.134 28.7455C107.134 27.3755 107.403 26.1604 107.942 25.1003C108.496 24.0402 109.238 23.2247 110.168 22.6539C111.114 22.083 112.166 21.7976 113.324 21.7976C114.335 21.7976 115.216 22.0015 115.966 22.4092C116.732 22.817 117.344 23.3307 117.801 23.9505V22.0178H121.25V35.571H117.801V33.5894C117.36 34.2254 116.749 34.7555 115.966 35.1795C115.199 35.5873 114.311 35.7911 113.299 35.7911C112.158 35.7911 111.114 35.4976 110.168 34.9104C109.238 34.3233 108.496 33.4997 107.942 32.4395C107.403 31.3631 107.134 30.1318 107.134 28.7455ZM117.801 28.7944C117.801 27.9626 117.638 27.2531 117.311 26.666C116.985 26.0625 116.545 25.6059 115.99 25.296C115.436 24.9698 114.841 24.8067 114.204 24.8067C113.568 24.8067 112.981 24.9617 112.443 25.2715C111.905 25.5814 111.465 26.0381 111.122 26.6415C110.796 27.2287 110.633 27.93 110.633 28.7455C110.633 29.5609 110.796 30.2785 111.122 30.8983C111.465 31.5018 111.905 31.9666 112.443 32.2928C112.998 32.619 113.585 32.782 114.204 32.782C114.841 32.782 115.436 32.6271 115.99 32.3172C116.545 31.991 116.985 31.5344 117.311 30.9472C117.638 30.3438 117.801 29.6262 117.801 28.7944Z" fill="#161515"/>
<path d="M128.02 24.1217C128.461 23.4041 129.031 22.8414 129.733 22.4337C130.45 22.0259 131.266 21.8221 132.179 21.8221V25.4183H131.274C130.198 25.4183 129.382 25.6711 128.828 26.1767C128.289 26.6823 128.02 27.563 128.02 28.8188V35.571H124.595V22.0178H128.02V24.1217Z" fill="#161515"/>
<path d="M138.474 24.8312V31.3876C138.474 31.8443 138.58 32.1786 138.792 32.3906C139.02 32.5863 139.395 32.6842 139.917 32.6842H141.507V35.571H139.354C136.468 35.571 135.024 34.1684 135.024 31.3631V24.8312H133.41V22.0178H135.024V18.6662H138.474V22.0178H141.507V24.8312H138.474Z" fill="#161515"/>
<path d="M157.727 35.7422C156.128 35.7422 154.66 35.3671 153.323 34.6169C151.986 33.8666 150.925 32.831 150.143 31.5099C149.36 30.1725 148.968 28.6639 148.968 26.984C148.968 25.3205 149.36 23.8281 150.143 22.5071C150.925 21.1697 151.986 20.1259 153.323 19.3757C154.66 18.6254 156.128 18.2503 157.727 18.2503C159.341 18.2503 160.809 18.6254 162.13 19.3757C163.467 20.1259 164.519 21.1697 165.286 22.5071C166.069 23.8281 166.46 25.3205 166.46 26.984C166.46 28.6639 166.069 30.1725 165.286 31.5099C164.519 32.831 163.467 33.8666 162.13 34.6169C160.793 35.3671 159.325 35.7422 157.727 35.7422ZM157.727 32.6842C158.754 32.6842 159.659 32.4559 160.442 31.9992C161.225 31.5262 161.837 30.8575 162.277 29.9931C162.717 29.1287 162.937 28.1257 162.937 26.984C162.937 25.8424 162.717 24.8475 162.277 23.9994C161.837 23.135 161.225 22.4745 160.442 22.0178C159.659 21.5611 158.754 21.3328 157.727 21.3328C156.699 21.3328 155.786 21.5611 154.987 22.0178C154.204 22.4745 153.592 23.135 153.152 23.9994C152.711 24.8475 152.491 25.8424 152.491 26.984C152.491 28.1257 152.711 29.1287 153.152 29.9931C153.592 30.8575 154.204 31.5262 154.987 31.9992C155.786 32.4559 156.699 32.6842 157.727 32.6842Z" fill="#161515"/>
<path d="M175.222 24.8312H172.849V35.571H169.375V24.8312H167.834V22.0178H169.375V21.3328C169.375 19.6692 169.848 18.446 170.794 17.6632C171.74 16.8803 173.167 16.5133 175.075 16.5623V19.449C174.244 19.4327 173.665 19.5714 173.339 19.8649C173.012 20.1585 172.849 20.6886 172.849 21.4551V22.0178H175.222V24.8312Z" fill="#161515"/>
<path d="M183.656 24.8312H181.283V35.571H177.809V24.8312H176.268V22.0178H177.809V21.3328C177.809 19.6692 178.282 18.446 179.228 17.6632C180.174 16.8803 181.601 16.5133 183.509 16.5623V19.449C182.677 19.4327 182.098 19.5714 181.772 19.8649C181.446 20.1585 181.283 20.6886 181.283 21.4551V22.0178H183.656V24.8312Z" fill="#161515"/>
<path d="M187.612 20.4032C187.009 20.4032 186.503 20.2156 186.095 19.8405C185.704 19.449 185.508 18.9679 185.508 18.3971C185.508 17.8263 185.704 17.3533 186.095 16.9782C186.503 16.5867 187.009 16.391 187.612 16.391C188.216 16.391 188.713 16.5867 189.105 16.9782C189.512 17.3533 189.716 17.8263 189.716 18.3971C189.716 18.9679 189.512 19.449 189.105 19.8405C188.713 20.2156 188.216 20.4032 187.612 20.4032ZM189.3 22.0178V35.571H185.875V22.0178H189.3Z" fill="#161515"/>
<path d="M191.803 28.7944C191.803 27.3918 192.089 26.1686 192.66 25.1247C193.231 24.0646 194.022 23.2492 195.033 22.6783C196.044 22.0912 197.202 21.7976 198.507 21.7976C200.187 21.7976 201.573 22.2217 202.666 23.0698C203.775 23.9015 204.517 25.0758 204.892 26.5926H201.198C201.002 26.0055 200.668 25.5488 200.195 25.2226C199.738 24.8801 199.167 24.7089 198.482 24.7089C197.504 24.7089 196.729 25.0677 196.158 25.7853C195.587 26.4866 195.302 27.4896 195.302 28.7944C195.302 30.0828 195.587 31.0859 196.158 31.8035C196.729 32.5048 197.504 32.8554 198.482 32.8554C199.868 32.8554 200.774 32.2357 201.198 30.9962H204.892C204.517 32.464 203.775 33.6301 202.666 34.4945C201.557 35.3589 200.17 35.7911 198.507 35.7911C197.202 35.7911 196.044 35.5057 195.033 34.9349C194.022 34.3478 193.231 33.5323 192.66 32.4885C192.089 31.4284 191.803 30.197 191.803 28.7944Z" fill="#161515"/>
<path d="M220 28.5008C220 28.9901 219.967 29.4304 219.902 29.8219H209.994C210.076 30.8004 210.418 31.567 211.022 32.1215C211.625 32.676 212.367 32.9533 213.248 32.9533C214.52 32.9533 215.425 32.4069 215.963 31.3142H219.658C219.266 32.619 218.516 33.6954 217.407 34.5435C216.298 35.3753 214.936 35.7911 213.321 35.7911C212.017 35.7911 210.842 35.5057 209.798 34.9349C208.771 34.3478 207.964 33.5241 207.376 32.464C206.806 31.4039 206.52 30.1807 206.52 28.7944C206.52 27.3918 206.806 26.1604 207.376 25.1003C207.947 24.0402 208.746 23.2247 209.774 22.6539C210.801 22.083 211.984 21.7976 213.321 21.7976C214.61 21.7976 215.76 22.0749 216.771 22.6294C217.798 23.1839 218.589 23.9749 219.144 25.0024C219.715 26.0136 220 27.1797 220 28.5008ZM216.453 27.5222C216.436 26.6415 216.118 25.9402 215.499 25.4183C214.879 24.8801 214.12 24.611 213.223 24.611C212.375 24.611 211.658 24.872 211.071 25.3939C210.5 25.8994 210.149 26.6089 210.019 27.5222H216.453Z" fill="#161515"/>
</svg>
