<svg width="145" height="31" viewBox="0 0 145 31" fill="none" xmlns="http://www.w3.org/2000/svg">
<path d="M55.8555 19.3901V16.5093H60.2134C61.2713 16.5093 62.0933 16.2407 62.6792 15.7036C63.2651 15.1584 63.5581 14.3853 63.5581 13.3843V13.3599C63.5581 12.3589 63.2651 11.5898 62.6792 11.0527C62.0933 10.5156 61.2713 10.2471 60.2134 10.2471H55.8555V7.32959H61.1045C62.3496 7.32959 63.432 7.58187 64.3516 8.08643C65.2793 8.58285 65.9995 9.28271 66.5122 10.186C67.033 11.0894 67.2935 12.1432 67.2935 13.3477V13.3721C67.2935 14.5846 67.033 15.6426 66.5122 16.5459C65.9995 17.4492 65.2793 18.1491 64.3516 18.6455C63.432 19.1419 62.3496 19.3901 61.1045 19.3901H55.8555ZM54 24.9443V7.32959H57.6865V24.9443H54Z" fill="black"/>
<path d="M69.125 24.9443V7.32959H72.8115V21.9048H80.5386V24.9443H69.125Z" fill="black"/>
<path d="M81.2227 24.9443L87.375 7.32959H90.6099V10.7598H89.499L85.1045 24.9443H81.2227ZM84.5308 20.6719L85.4341 17.9131H93.6372L94.5405 20.6719H84.5308ZM93.979 24.9443L89.5845 10.7598V7.32959H91.7085L97.8486 24.9443H93.979Z" fill="black"/>
<path d="M101.23 24.9443V10.3691H96.1157V7.32959H110.044V10.3691H104.917V24.9443H101.23Z" fill="black"/>
<path d="M118.724 25.2739C116.982 25.2739 115.477 24.9036 114.207 24.1631C112.938 23.4225 111.957 22.3687 111.265 21.0015C110.573 19.6343 110.228 18.0148 110.228 16.1431V16.1187C110.228 14.2469 110.573 12.6315 111.265 11.2725C111.965 9.90527 112.95 8.8514 114.219 8.11084C115.489 7.37028 116.99 7 118.724 7C120.465 7 121.971 7.37435 123.24 8.12305C124.51 8.86361 125.49 9.91341 126.182 11.2725C126.874 12.6315 127.22 14.2469 127.22 16.1187V16.1431C127.22 18.0148 126.874 19.6343 126.182 21.0015C125.499 22.3605 124.522 23.4144 123.252 24.1631C121.983 24.9036 120.473 25.2739 118.724 25.2739ZM118.724 22.1489C119.7 22.1489 120.542 21.9048 121.25 21.4165C121.958 20.9201 122.504 20.2243 122.886 19.3291C123.269 18.4258 123.46 17.3638 123.46 16.1431V16.1187C123.46 14.8898 123.265 13.8278 122.874 12.9326C122.492 12.0374 121.946 11.3457 121.238 10.8574C120.53 10.3691 119.692 10.125 118.724 10.125C117.771 10.125 116.937 10.3691 116.221 10.8574C115.513 11.3376 114.964 12.0252 114.573 12.9204C114.183 13.8156 113.987 14.8817 113.987 16.1187V16.1431C113.987 17.3719 114.183 18.438 114.573 19.3413C114.964 20.2365 115.513 20.9282 116.221 21.4165C116.929 21.9048 117.763 22.1489 118.724 22.1489Z" fill="black"/>
<path d="M129.234 24.9443V7.32959H132.445L141.954 20.9404L138.927 18.7554H140.514V7.32959H144.164V24.9443H140.99L131.468 11.2603L134.483 13.4453H132.896V24.9443H129.234Z" fill="black"/>
<path d="M44 16.6527L40.1971 13.9792L40.038 11.5046L38.6153 6.24908L35.7624 1.71603L26.8876 0L25.7785 0.993533L17.7139 3.1065L9.43827 3.34145L2.60851 9.96981L0.457905 15.3336L0 19.1089L0.298802 19.1265L1.31939 15.4563L2.65818 12.1549V13.6721L3.76724 16.2734L2.71173 20.1561V23.2265L0 30.996H5.54608L5.10603 28.9913L6.30356 24.4205L6.95472 23.9146L9.01529 29.0282L8.61016 31H14.8788V30.5991L13.1163 27.9945L11.7782 22.6845L12.4294 21.2411L17.1637 21.4752L21.3942 19.4858L21.7637 19.6662L21.9546 20.6774L22.3628 20.9123L21.9546 28.0659L20.778 30.9952H26.5212L25.4122 29.2768L26.7316 24.0565L28.0509 24.9779L28.8604 27.4701L28.068 29.8758L28.8255 30.9984H33.0693L33.8787 29.7499L33.8609 29.3529L32.5415 27.8534L32.3638 24.6178L28.9303 18.1346L29.7405 13.6914L31.167 14.6488L31.4487 14.6119L31.5714 11.7765L35.5862 14.6119L36.2024 20.2075L38.2808 25.969L37.6638 28.4252L38.7907 30.0506L39.0376 30.0867L40.7985 27.2688L40.4283 15.9086L43.9984 16.9743L44 16.6527ZM37.9859 7.29233L39.0996 11.7596V13.1661L38.783 13.0699L38.5013 12.697L37.3643 7.77346L37.9859 7.29233ZM39.0678 14.4339L39.0306 14.6817L38.36 14.466L38.0744 14.2254L38.0992 13.9391H38.2855C38.2855 13.9391 38.5587 14.0281 38.5835 14.0466L39.0678 14.4339ZM36.8838 5.29644L36.71 5.47686L33.1446 4.49055V4.22592L35.4069 3.07121L36.8838 5.29644ZM20.8704 8.5609V8.92656L10.8733 10.5921L10.7313 10.4574L17.7163 4.3005L20.8704 8.5609ZM16.0895 4.19946L10.2392 9.61779L11.8108 4.19946H16.0895ZM4.38192 9.49189L10.1507 4.30371H10.3223V5.47045L8.47124 10.7452L4.38192 9.7092V9.49189ZM3.64772 13.1974V10.5921L8.64121 11.9609L10.7289 19.0696L3.64772 13.1974ZM4.3369 29.7964L4.31517 30.1051H1.36595L2.14206 27.7211L4.66054 25.7781L4.93994 25.9104L4.01637 29.2471L4.3369 29.7964ZM6.48906 22.9523L2.98104 25.5985V25.289L3.71213 23.5008V20.262L4.44401 18.0319L6.48906 22.5137V22.9523ZM9.28926 27.1036L4.59768 15.6696V15.2286L11.2055 21.0093L9.56944 27.1036H9.28926ZM12.0623 28.3418L12.9067 29.5093V29.9487H9.98077V29.4981L11.0332 25.4173H11.4437L12.0623 28.3418ZM18.161 18.0295L16.816 20.3598L12.2594 20.1192L9.92179 12.5735L18.161 17.4738V18.0295ZM18.5576 19.5876V19.3976L20.7105 15.591L21.1723 18.4361L18.5576 19.5876ZM20.6989 13.3834L19.0745 16.5533H18.48L10.7313 11.9481V11.6907L21.2926 10.0115L20.6989 13.3834ZM18.8975 4.0014V3.68064L23.6364 2.49466L20.7586 5.19941L21.8863 7.2394L21.8723 7.90496H21.6131L18.8975 4.0014ZM22.8176 9.07732L27.8096 12.3731L27.666 12.5703L21.6705 13.2816L22.8176 9.07732ZM21.6131 14.389L28.498 13.624L27.9097 17.5893L23.4083 19.4649H22.806L21.6131 14.389ZM24.4071 29.7386V30.1612H22.421V29.559L24.8673 26.5319L24.9923 26.73L24.2309 29.4828L24.4071 29.7386ZM25.7971 23.6131L23.0194 26.8671L23.3299 21.9187L23.5588 21.8385L25.7994 23.3989L25.7971 23.6131ZM31.5233 26.5319V28.2487L32.5702 29.6464L32.415 29.9559H29.3307L29.2027 29.6352L29.7328 28.2471L31.1383 26.6337L31.5233 26.5319ZM29.2027 25.115L30.6625 25.1679V25.3604L29.6932 26.4405H29.4604L29.2027 25.115ZM30.6625 23.8793L30.5648 24.0701L28.4561 23.9972L23.7071 20.4953L28.0401 18.9357L30.6625 23.8793ZM30.3894 12.9392L23.5022 8.26661L22.2006 5.67974L22.3636 5.19861L27.0273 1.20282L30.8504 4.62286L30.3894 12.9392ZM31.3455 3.7889L28.9062 1.62381L28.8612 1.33995L33.9424 2.33829L33.8531 2.64621L32.3188 3.56597L31.3455 3.7889ZM31.9136 5.23229L36.7434 6.66365V6.8561L31.9136 9.84151V5.23229ZM35.8408 13.5951L32.2419 10.9617L36.0511 8.46067L36.3677 8.53284L37.4465 12.9352L36.4267 13.5951H35.8408ZM37.0111 18.4866L36.7698 14.8821C36.8008 14.9038 39.0981 15.6592 39.0981 15.6592V15.9294L37.1469 18.6702L37.0111 18.4866ZM37.6755 19.9669L39.4799 17.3447V22.2362L37.6755 20.2876V19.9669ZM39.7492 26.9024L39.0507 28.2407H38.7814L39.3356 26.5287C39.3356 26.5287 39.3356 25.9674 39.3208 25.9121C39.3061 25.8567 38.2296 22.6933 38.2296 22.6933V22.4455L39.7492 24.1367V26.9024Z" fill="black"/>
</svg>
