<svg width="98" height="79" viewBox="0 0 98 79" fill="none" xmlns="http://www.w3.org/2000/svg">
<g clip-path="url(#clip0_157_2889)">
<path d="M27.1819 69.6999V38.4382L17.5959 29.5685L9 24.6465V64.183C9 67.2355 11.4453 69.6999 14.4547 69.6999H27.1819Z" fill="#4285F4"/>
<path d="M70.8181 69.6996H83.5453C86.5637 69.6996 89 67.2261 89 64.1827V24.6465L79.2637 30.2841L70.8181 38.4379V69.6996Z" fill="#34A853"/>
<path d="M27.1818 38.4379L25.8774 26.223L27.1818 14.5322L48.9999 31.0825L70.8181 14.5322L72.2771 25.5919L70.8181 38.4379L48.9999 54.9882L27.1818 38.4379Z" fill="#EA4335"/>
<path d="M70.8181 14.5323V38.4379L89 24.6462V17.2905C89 10.4683 81.3 6.57918 75.9094 10.6706L70.8181 14.5323Z" fill="#FBBC04"/>
<path d="M9 24.6464L17.3622 30.9898L27.1819 38.4381V14.5324L22.0906 10.6708C16.6906 6.57901 9 10.4685 9 17.2904V24.6464Z" fill="#C5221F"/>
</g>
<defs>
<clipPath id="clip0_157_2889">
<rect width="80" height="61" fill="white" transform="translate(9 9)"/>
</clipPath>
</defs>
</svg>
