<svg width="24" height="24" viewBox="0 0 24 24" fill="none" xmlns="http://www.w3.org/2000/svg">
<path d="M20.97 1H18.03C17.16 1 16.52 1.36 16.23 2C16.07 2.29 16 2.63 16 3.03V5.97C16 7.24 16.76 8 18.03 8H20.97C21.37 8 21.71 7.93 22 7.77C22.64 7.48 23 6.84 23 5.97V3.03C23 1.76 22.24 1 20.97 1ZM21.91 4.93C21.81 5.03 21.66 5.1 21.5 5.11H20.09V5.62L20.1 6.5C20.09 6.67 20.03 6.81 19.91 6.93C19.81 7.03 19.66 7.1 19.5 7.1C19.17 7.1 18.9 6.83 18.9 6.5V5.1L17.5 5.11C17.34 5.10738 17.1874 5.04195 17.0751 4.92784C16.9629 4.81372 16.9 4.66006 16.9 4.5C16.9 4.17 17.17 3.9 17.5 3.9L18.38 3.91H18.9V2.51C18.9 2.18 19.17 1.9 19.5 1.9C19.83 1.9 20.1 2.18 20.1 2.51L20.09 3.22V3.9H21.5C21.83 3.9 22.1 4.17 22.1 4.5C22.0898 4.66136 22.0224 4.81381 21.91 4.93ZM9.001 10.381C9.63222 10.381 10.2376 10.1303 10.6839 9.68391C11.1303 9.23758 11.381 8.63222 11.381 8.001C11.381 7.36979 11.1303 6.76442 10.6839 6.31809C10.2376 5.87175 9.63222 5.621 9.001 5.621C8.36979 5.621 7.76442 5.87175 7.31809 6.31809C6.87175 6.76442 6.621 7.36979 6.621 8.001C6.621 8.63222 6.87175 9.23758 7.31809 9.68391C7.76442 10.1303 8.36979 10.381 9.001 10.381Z" fill="#dedede"/>
<path d="M20.97 8H20.5V12.61L20.37 12.5C19.59 11.83 18.33 11.83 17.55 12.5L13.39 16.07C12.61 16.74 11.35 16.74 10.57 16.07L10.23 15.79C9.52 15.17 8.39 15.11 7.59 15.65L3.85 18.16C3.63 17.6 3.5 16.95 3.5 16.19V7.81C3.5 4.99 4.99 3.5 7.81 3.5H16V3.03C16 2.63 16.07 2.29 16.23 2H7.81C4.17 2 2 4.17 2 7.81V16.19C2 17.28 2.19 18.23 2.56 19.03C3.42 20.93 5.26 22 7.81 22H16.19C19.83 22 22 19.83 22 16.19V7.77C21.71 7.93 21.37 8 20.97 8Z" fill="#dedede"/>
</svg>
