<svg width="16" height="16" viewBox="0 0 16 16" fill="none" xmlns="http://www.w3.org/2000/svg">
<g clip-path="url(#clip0_157_2902)">
<path d="M8 0C5.87875 0 3.8425 0.843375 2.34375 2.34313C0.843465 3.84348 0.000429311 5.87823 0 8C0 10.1209 0.84375 12.1571 2.34375 13.6569C3.8425 15.1566 5.87875 16 8 16C10.1212 16 12.1575 15.1566 13.6562 13.6569C15.1562 12.1571 16 10.1209 16 8C16 5.87913 15.1562 3.84288 13.6562 2.34313C12.1575 0.843375 10.1212 0 8 0Z" fill="url(#paint0_linear_157_2902)"/>
<path d="M3.62131 7.91504C5.95381 6.89904 7.50881 6.22921 8.28631 5.90554C10.5088 4.98141 10.9701 4.82091 11.2713 4.81548C11.3376 4.81441 11.4851 4.83079 11.5813 4.9086C11.6613 4.97423 11.6838 5.06298 11.6951 5.12529C11.7051 5.18754 11.7188 5.32941 11.7076 5.44016C11.5876 6.70516 11.0663 9.77491 10.8013 11.1918C10.6901 11.7913 10.4688 11.9923 10.2551 12.0119C9.79006 12.0547 9.43756 11.7049 8.98756 11.41C8.28381 10.9484 7.88631 10.6612 7.20256 10.2108C6.41256 9.69029 6.92506 9.40416 7.37506 8.93666C7.49256 8.81429 9.54006 6.95241 9.57881 6.78354C9.58381 6.76241 9.58881 6.68366 9.54131 6.64216C9.49506 6.60054 9.42631 6.61479 9.37631 6.62604C9.30506 6.64204 8.18131 7.38554 6.00131 8.85641C5.68256 9.07566 5.39381 9.18254 5.13381 9.17691C4.84881 9.17079 4.29881 9.01541 3.89006 8.88266C3.39006 8.71979 2.99131 8.63366 3.02631 8.35704C3.04381 8.21304 3.24256 8.06566 3.62131 7.91504Z" fill="white"/>
</g>
<defs>
<linearGradient id="paint0_linear_157_2902" x1="800" y1="0" x2="800" y2="1600" gradientUnits="userSpaceOnUse">
<stop stop-color="#2AABEE"/>
<stop offset="1" stop-color="#229ED9"/>
</linearGradient>
<clipPath id="clip0_157_2902">
<rect width="16" height="16" fill="white"/>
</clipPath>
</defs>
</svg>
