<svg width="16" height="16" viewBox="0 0 16 16" fill="none" xmlns="http://www.w3.org/2000/svg">
<g clip-path="url(#clip0_157_2895)">
<path d="M15.5943 6.42316L15.5722 6.36666L13.4337 0.785661C13.3901 0.676258 13.3131 0.583448 13.2135 0.520536C13.114 0.458683 12.9978 0.428885 12.8808 0.435167C12.7637 0.441448 12.6514 0.483507 12.559 0.555661C12.4678 0.629984 12.4016 0.730507 12.3693 0.843661L10.9254 5.26141H5.07853L3.63453 0.843661C3.60314 0.729888 3.53676 0.628871 3.44478 0.554911C3.35241 0.482757 3.24011 0.440698 3.12306 0.434417C3.00601 0.428135 2.88985 0.457934 2.79028 0.519786C2.69098 0.582956 2.61399 0.675683 2.57016 0.784911L0.427658 6.36341L0.406408 6.41991C-0.225967 8.07229 0.311033 9.94391 1.72353 11.0094L1.73091 11.0152L1.75053 11.029L5.00816 13.4685L6.61978 14.6883L7.60153 15.4295C7.71636 15.5168 7.85659 15.564 8.00078 15.564C8.14498 15.564 8.28521 15.5168 8.40003 15.4295L9.38178 14.6883L10.9934 13.4685L14.2707 11.0143L14.2788 11.0078C15.6879 9.94204 16.224 8.07379 15.5943 6.42316Z" fill="#E24329"/>
<path d="M15.5944 6.42271L15.5723 6.36621C14.5302 6.58014 13.5483 7.02152 12.6966 7.65884L8 11.2102C9.59938 12.4202 10.9917 13.4715 10.9917 13.4715L14.269 11.0172L14.2771 11.0107C15.6885 9.94484 16.2254 8.07471 15.5944 6.42271Z" fill="#FC6D26"/>
<path d="M5.0083 13.4712L6.61993 14.691L7.60168 15.4322C7.7165 15.5194 7.85673 15.5667 8.00093 15.5667C8.14512 15.5667 8.28535 15.5194 8.40018 15.4322L9.38193 14.691L10.9936 13.4712C10.9936 13.4712 9.59955 12.4167 8.00018 11.21C7.00227 11.9629 6.00498 12.7166 5.0083 13.4712Z" fill="#FCA326"/>
<path d="M3.30241 7.65916C2.45147 7.02045 1.46976 6.57791 0.427658 6.36328L0.406408 6.41978C-0.225967 8.07216 0.311033 9.94378 1.72353 11.0093L1.73091 11.015L1.75053 11.0289L5.00816 13.4684L7.99991 11.2072L3.30241 7.65916Z" fill="#FC6D26"/>
</g>
<defs>
<clipPath id="clip0_157_2895">
<rect width="16" height="16" fill="white"/>
</clipPath>
</defs>
</svg>
