<svg width="24" height="24" viewBox="0 0 24 24" fill="none" xmlns="http://www.w3.org/2000/svg">
<path d="M6.44444 17.5556V9.77778M22 7.55556V16.4444C22 17.9179 21.4147 19.3309 20.3728 20.3728C19.3309 21.4147 17.9179 22 16.4444 22H7.55556C6.08213 22 4.66905 21.4147 3.62718 20.3728C2.58532 19.3309 2 17.9179 2 16.4444V7.55556C2 6.08213 2.58532 4.66905 3.62718 3.62718C4.66905 2.58532 6.08213 2 7.55556 2H16.4444C17.9179 2 19.3309 2.58532 20.3728 3.62718C21.4147 4.66905 22 6.08213 22 7.55556Z" stroke="white" stroke-opacity="0.7" stroke-width="1.5" stroke-linecap="round" stroke-linejoin="round"/>
<path d="M10.8889 17.5556V13.9445M10.8889 13.9445V9.7778M10.8889 13.9445C10.8889 9.7778 17.5556 9.7778 17.5556 13.9445V17.5556M6.44446 6.45558L6.45557 6.44336" stroke="white" stroke-opacity="0.7" stroke-width="1.5" stroke-linecap="round" stroke-linejoin="round"/>
</svg>
