<svg width="24" height="24" viewBox="0 0 24 24" fill="none" xmlns="http://www.w3.org/2000/svg">
<path d="M12 1C10.5555 1 9.12506 1.29159 7.79048 1.85811C6.4559 2.42464 5.24327 3.25501 4.22183 4.30181C2.15893 6.41593 1 9.28329 1 12.2731C1 17.2558 4.157 21.4832 8.524 22.9825C9.074 23.0727 9.25 22.7233 9.25 22.4189V20.5137C6.203 21.1901 5.554 19.0031 5.554 19.0031C5.048 17.6955 4.333 17.346 4.333 17.346C3.332 16.6471 4.41 16.6696 4.41 16.6696C5.51 16.7485 6.093 17.8307 6.093 17.8307C7.05 19.5442 8.667 19.037 9.294 18.7664C9.393 18.0336 9.679 17.5376 9.987 17.2558C7.545 16.974 4.982 16.0045 4.982 11.7094C4.982 10.4581 5.4 9.45482 6.115 8.65443C6.005 8.37261 5.62 7.2002 6.225 5.67834C6.225 5.67834 7.149 5.37396 9.25 6.82819C10.119 6.58018 11.065 6.45618 12 6.45618C12.935 6.45618 13.881 6.58018 14.75 6.82819C16.851 5.37396 17.775 5.67834 17.775 5.67834C18.38 7.2002 17.995 8.37261 17.885 8.65443C18.6 9.45482 19.018 10.4581 19.018 11.7094C19.018 16.0158 16.444 16.9627 13.991 17.2445C14.387 17.594 14.75 18.2817 14.75 19.3301V22.4189C14.75 22.7233 14.926 23.084 15.487 22.9825C19.854 21.4719 23 17.2558 23 12.2731C23 10.7927 22.7155 9.32678 22.1627 7.95907C21.6099 6.59135 20.7996 5.34862 19.7782 4.30181C18.7567 3.25501 17.5441 2.42464 16.2095 1.85811C14.8749 1.29159 13.4445 1 12 1Z" fill="white" fill-opacity="0.7"/>
</svg>
