<svg width="54" height="54" viewBox="0 0 54 54" fill="none" xmlns="http://www.w3.org/2000/svg">
<g clip-path="url(#clip0_157_2879)">
<path d="M1.15232 26.6767C1.15106 31.2137 2.34581 35.6438 4.61761 39.5486L0.935059 52.8899L14.6949 49.31C18.5008 51.3657 22.7649 52.4429 27.0981 52.4432H27.1094C41.4142 52.4432 53.0586 40.8933 53.0647 26.697C53.0674 19.8178 50.37 13.3491 45.469 8.48243C40.569 3.61615 34.052 0.93478 27.1084 0.931641C12.802 0.931641 1.15844 12.4809 1.15254 26.6767" fill="url(#paint0_linear_157_2879)"/>
<path d="M0.225703 26.6685C0.224227 31.3688 1.4618 35.9573 3.81459 40.0019L0 53.8215L14.2533 50.1133C18.1805 52.2379 22.6022 53.3581 27.1015 53.3597H27.1131C41.931 53.3597 53.9937 41.3943 54 26.6898C54.0025 19.5635 51.208 12.8623 46.132 7.82121C41.0554 2.78079 34.3054 0.00293023 27.1131 0C12.2926 0 0.231609 11.9637 0.225703 26.6685ZM8.71404 39.3053L8.18184 38.467C5.94464 34.9374 4.76381 30.8585 4.7655 26.6701C4.77014 14.4479 14.7947 4.50419 27.1215 4.50419C33.091 4.5067 38.7011 6.81572 42.9207 11.0051C47.1401 15.1949 49.4619 20.7645 49.4604 26.6881C49.4549 38.9103 39.4301 48.8553 27.1131 48.8553H27.1042C23.0936 48.8533 19.1603 47.7846 15.73 45.765L14.9137 45.2847L6.45553 47.485L8.71404 39.3053Z" fill="url(#paint1_linear_157_2879)"/>
<path d="M20.3931 15.5189C19.8898 14.4089 19.3602 14.3865 18.8815 14.3671C18.4896 14.3503 18.0416 14.3516 17.594 14.3516C17.146 14.3516 16.418 14.5188 15.8027 15.1854C15.1868 15.8527 13.4512 17.4652 13.4512 20.7447C13.4512 24.0243 15.8586 27.194 16.1942 27.6391C16.5302 28.0835 20.8418 35.029 27.6703 37.7009C33.3453 39.9214 34.5002 39.4798 35.7319 39.3684C36.9637 39.2575 39.7068 37.7564 40.2664 36.1998C40.8264 34.6434 40.8264 33.3094 40.6585 33.0306C40.4906 32.7528 40.0426 32.586 39.3707 32.2528C38.6989 31.9196 35.3958 30.3067 34.7801 30.0842C34.1642 29.8619 33.7164 29.751 33.2683 30.4185C32.8203 31.0849 31.5338 32.586 31.1417 33.0306C30.7499 33.4762 30.3578 33.5316 29.6862 33.1982C29.0139 32.8637 26.8503 32.1607 24.2834 29.89C22.2863 28.123 20.938 25.9411 20.5461 25.2736C20.1541 24.6072 20.5041 24.2459 20.8409 23.9138C21.1428 23.6151 21.513 23.1354 21.8492 22.7463C22.1842 22.357 22.296 22.0792 22.52 21.6347C22.7442 21.1897 22.632 20.8004 22.4643 20.467C22.296 20.1336 20.9905 16.8368 20.3931 15.5189Z" fill="white"/>
</g>
<defs>
<linearGradient id="paint0_linear_157_2879" x1="2607.42" y1="5196.76" x2="2607.42" y2="0.931641" gradientUnits="userSpaceOnUse">
<stop stop-color="#1FAF38"/>
<stop offset="1" stop-color="#60D669"/>
</linearGradient>
<linearGradient id="paint1_linear_157_2879" x1="2700" y1="5382.15" x2="2700" y2="0" gradientUnits="userSpaceOnUse">
<stop stop-color="#F9F9F9"/>
<stop offset="1" stop-color="white"/>
</linearGradient>
<clipPath id="clip0_157_2879">
<rect width="54" height="54" fill="white"/>
</clipPath>
</defs>
</svg>
