<svg width="24" height="24" viewBox="0 0 24 24" fill="none" xmlns="http://www.w3.org/2000/svg">
<path fill-rule="evenodd" clip-rule="evenodd" d="M16.552 22.1335C15.112 22.0805 11.031 21.5165 6.757 17.2435C2.484 12.9695 1.921 8.88946 1.867 7.44846C1.787 5.25246 3.469 3.11946 5.412 2.28646C5.64598 2.18543 5.9022 2.14696 6.15553 2.17484C6.40886 2.20271 6.65059 2.29597 6.857 2.44546C8.457 3.61146 9.561 5.37546 10.509 6.76246C10.7176 7.06719 10.8068 7.43801 10.7596 7.80426C10.7123 8.17051 10.532 8.50659 10.253 8.74846L8.302 10.1975C8.20774 10.2655 8.14139 10.3655 8.11528 10.4788C8.08916 10.5921 8.10505 10.711 8.16 10.8135C8.602 11.6165 9.388 12.8125 10.288 13.7125C11.188 14.6125 12.441 15.4505 13.3 15.9425C13.4077 16.0029 13.5345 16.0198 13.6543 15.9897C13.774 15.9596 13.8777 15.8847 13.944 15.7805L15.214 13.8475C15.4475 13.5373 15.7919 13.3295 16.1752 13.2676C16.5584 13.2058 16.9508 13.2946 17.27 13.5155C18.677 14.4895 20.319 15.5745 21.521 17.1135C21.6826 17.3214 21.7854 17.5689 21.8187 17.8301C21.8519 18.0913 21.8144 18.3567 21.71 18.5985C20.873 20.5515 18.755 22.2145 16.552 22.1335Z" fill="black"/>
</svg>
