<svg width="80" height="69" viewBox="0 0 80 69" fill="none" xmlns="http://www.w3.org/2000/svg">
<path d="M44.033 45.3787V48.2328H39.4331V55.9236H44.033V58.7792H31.4658V55.9236H36.0656V48.2328H31.4658V45.3787H44.033Z" fill="white"/>
<path d="M57.8442 56.0652H59.8865C62.3888 56.0652 63.824 55.899 64.7255 55.1976C65.5167 54.5701 65.8663 53.5549 65.8663 52.0782C65.8663 50.6016 65.5167 49.5864 64.7255 48.9588C63.824 48.2574 62.3888 48.0913 59.8681 48.0913H57.8626C55.3419 48.0913 53.9068 48.2574 53.0052 48.9588C52.214 49.5864 51.8645 50.6016 51.8645 52.0782C51.8645 53.5549 52.214 54.5701 53.0052 55.1976C53.9068 55.899 55.3419 56.0652 57.8442 56.0652ZM57.5314 45.1564H60.1993C63.8976 45.1564 66.3447 45.7102 67.7982 47.2053C68.8654 48.3128 69.3989 49.9925 69.3989 52.0782C69.3989 54.164 68.8654 55.8437 67.7982 56.9511C66.3447 58.4463 63.8976 59 60.1625 59H57.5314C53.8332 59 51.3861 58.4463 49.9325 56.9511C48.8654 55.8437 48.3318 54.164 48.3318 52.0782C48.3318 49.9925 48.8654 48.3128 49.9325 47.2053C51.3861 45.7102 53.8332 45.1564 57.5314 45.1564Z" fill="white"/>
<path d="M26.2969 55.899V58.557H11.1359V45.1564H14.503V55.899H26.2969Z" fill="white"/>
<path d="M57.8442 39.1453H59.8865C62.3888 39.1453 63.824 38.9791 64.7255 38.2777C65.5167 37.6501 65.8663 36.635 65.8663 35.1583C65.8663 33.6817 65.5167 32.6665 64.7255 32.0389C63.824 31.3375 62.3888 31.1714 59.8681 31.1714H57.8626C55.3419 31.1714 53.9068 31.3375 53.0052 32.0389C52.214 32.6665 51.8645 33.6817 51.8645 35.1583C51.8645 36.635 52.214 37.6501 53.0052 38.2777C53.9068 38.9791 55.3419 39.1453 57.8442 39.1453ZM57.5314 28.2365H60.1993C63.8976 28.2365 66.3447 28.7903 67.7982 30.2854C68.8654 31.3929 69.399 33.0725 69.399 35.1583C69.399 37.2441 68.8654 38.9238 67.7982 40.0312C66.3447 41.5263 63.8976 42.0801 60.1625 42.0801H57.5314C53.8332 42.0801 51.3861 41.5263 49.9325 40.0312C48.8654 38.9238 48.3318 37.2441 48.3318 35.1583C48.3318 33.0725 48.8654 31.3929 49.9325 30.2854C51.3861 28.7903 53.8332 28.2365 57.5314 28.2365Z" fill="white"/>
<path d="M34.8329 36.4703V42.0631H31.4658V28.6626H46.9396V31.3205H34.8329V33.9231H42.9286V36.4703H34.8329Z" fill="white"/>
<path d="M10 31.3205V28.6626H27.6449V31.3205H20.506V42.0631H17.1389V31.3205H10Z" fill="white"/>
<path d="M65.7866 23.6221L63.2475 21.3149C61.8675 20.0597 61.2788 19.8382 59.6412 19.8382H54.7654V23.6221H51.3983V10.2216H63.2659C65.529 10.2216 66.9457 10.6646 67.8841 11.5321C68.7305 12.3258 69.1352 13.5256 69.1352 15.0207C69.1352 16.5158 68.7305 17.7155 67.8841 18.5092C67.2401 19.1184 66.3569 19.506 65.1426 19.6906C65.9706 20.0043 66.5409 20.4473 67.3873 21.2226L70 23.6221H65.7866ZM54.7654 17.1803H62.9347C64.1674 17.1803 64.8298 17.0326 65.2346 16.6081C65.5658 16.2574 65.713 15.7405 65.713 15.0207C65.713 14.3008 65.5658 13.8024 65.2346 13.4517C64.8298 13.0272 64.1674 12.8795 62.9347 12.8795H54.7654V17.1803Z" fill="white"/>
<path d="M37.9117 20.9087H39.954C42.4563 20.9087 43.8914 20.7426 44.793 20.0412C45.5842 19.4136 45.9338 18.3984 45.9338 16.9218C45.9338 15.4451 45.5842 14.4299 44.793 13.8024C43.8914 13.101 42.4563 12.9348 39.9356 12.9348H37.9301C35.4094 12.9348 33.9742 13.101 33.0727 13.8024C32.2815 14.4299 31.9319 15.4451 31.9319 16.9218C31.9319 18.3984 32.2815 19.4136 33.0727 20.0412C33.9742 20.7426 35.4094 20.9087 37.9117 20.9087ZM37.5989 10H40.2668C43.965 10 46.4121 10.5537 47.8657 12.0488C48.9328 13.1563 49.4664 14.836 49.4664 16.9218C49.4664 19.0075 48.9328 20.6872 47.8657 21.7947C46.4121 23.2898 43.965 23.8436 40.23 23.8436H37.5989C33.9006 23.8436 31.4535 23.2898 30 21.7947C28.9328 20.6872 28.3993 19.0075 28.3993 16.9218C28.3993 14.836 28.9328 13.1563 30 12.0488C31.4535 10.5537 33.9006 10 37.5989 10Z" fill="white"/>
<path d="M13.3671 17.1803H21.4627C22.6955 17.1803 23.3579 17.0326 23.7626 16.6081C24.0938 16.2574 24.241 15.7405 24.241 15.0207C24.241 14.3008 24.0938 13.8024 23.7626 13.4517C23.3579 13.0272 22.6955 12.8795 21.4627 12.8795H13.3671V17.1803ZM21.7939 19.8382H13.3671V23.6221H10V10.2216H21.7939C24.057 10.2216 25.4738 10.6646 26.4121 11.5321C27.2585 12.3258 27.6633 13.5256 27.6633 15.0207C27.6633 16.5158 27.2585 17.7155 26.4121 18.5092C25.4738 19.3768 24.057 19.8382 21.7939 19.8382Z" fill="white"/>
</svg>
