<svg width="31" height="26" viewBox="0 0 31 26" fill="none" xmlns="http://www.w3.org/2000/svg">
<rect width="30.0533" height="26" fill="black"/>
<path d="M16.5409 17.1018V18.1779H14.8138V21.0777H16.5409V22.1544H11.8223V21.0777H13.5494V18.1779H11.8223V17.1018H16.5409Z" fill="white"/>
<path d="M21.7267 21.131H22.4935C23.4331 21.131 23.972 21.0684 24.3105 20.8039C24.6075 20.5673 24.7388 20.1846 24.7388 19.6278C24.7388 19.071 24.6075 18.6883 24.3105 18.4516C23.972 18.1872 23.4331 18.1245 22.4866 18.1245H21.7336C20.7872 18.1245 20.2483 18.1872 19.9098 18.4516C19.6127 18.6883 19.4815 19.071 19.4815 19.6278C19.4815 20.1846 19.6127 20.5673 19.9098 20.8039C20.2483 21.0684 20.7872 21.131 21.7267 21.131ZM21.6093 17.018H22.611C23.9996 17.018 24.9184 17.2267 25.4642 17.7905C25.8649 18.208 26.0652 18.8414 26.0652 19.6278C26.0652 20.4142 25.8649 21.0475 25.4642 21.4651C24.9184 22.0288 23.9996 22.2376 22.5972 22.2376H21.6093C20.2207 22.2376 19.3018 22.0288 18.7561 21.4651C18.3554 21.0475 18.155 20.4142 18.155 19.6278C18.155 18.8414 18.3554 18.208 18.7561 17.7905C19.3018 17.2267 20.2207 17.018 21.6093 17.018Z" fill="white"/>
<path d="M9.88147 21.0684V22.0706H4.18889V17.018H5.45314V21.0684H9.88147Z" fill="white"/>
<path d="M21.7267 14.7515H22.4935C23.4331 14.7515 23.972 14.6888 24.3105 14.4244C24.6075 14.1877 24.7388 13.805 24.7388 13.2482C24.7388 12.6914 24.6075 12.3087 24.3105 12.072C23.972 11.8076 23.4331 11.7449 22.4866 11.7449H21.7336C20.7872 11.7449 20.2483 11.8076 19.9098 12.072C19.6127 12.3087 19.4815 12.6914 19.4815 13.2482C19.4815 13.805 19.6127 14.1877 19.9098 14.4244C20.2483 14.6888 20.7872 14.7515 21.7267 14.7515ZM21.6093 10.6384H22.611C23.9996 10.6384 24.9184 10.8472 25.4642 11.4109C25.8649 11.8285 26.0652 12.4618 26.0652 13.2482C26.0652 14.0346 25.8649 14.668 25.4642 15.0855C24.9184 15.6493 23.9996 15.858 22.5972 15.858H21.6093C20.2207 15.858 19.3018 15.6493 18.7561 15.0855C18.3554 14.668 18.155 14.0346 18.155 13.2482C18.155 12.4618 18.3554 11.8285 18.7561 11.4109C19.3018 10.8472 20.2207 10.6384 21.6093 10.6384Z" fill="white"/>
<path d="M13.0865 13.7429V15.8516H11.8223V10.799H17.6323V11.8012H13.0865V12.7825H16.1262V13.7429H13.0865Z" fill="white"/>
<path d="M3.76239 11.8012V10.799H10.3876V11.8012H7.70712V15.8516H6.44287V11.8012H3.76239Z" fill="white"/>
<path d="M24.7089 8.89855L23.7555 8.02861C23.2374 7.55536 23.0163 7.47184 22.4014 7.47184H20.5707V8.89855H19.3064V3.84592H23.7624C24.6121 3.84592 25.1441 4.01295 25.4964 4.34005C25.8142 4.63931 25.9662 5.09168 25.9662 5.6554C25.9662 6.21912 25.8142 6.6715 25.4964 6.97076C25.2546 7.20042 24.923 7.34657 24.4671 7.41617C24.7779 7.53448 24.9921 7.70151 25.3099 7.99381L26.2909 8.89855H24.7089ZM20.5707 6.46967H23.638C24.1009 6.46967 24.3496 6.41399 24.5016 6.25392C24.626 6.12169 24.6812 5.92682 24.6812 5.6554C24.6812 5.38398 24.626 5.19607 24.5016 5.06384C24.3496 4.90377 24.1009 4.8481 23.638 4.8481H20.5707V6.46967Z" fill="white"/>
<path d="M14.2425 7.87547H15.0094C15.9489 7.87547 16.4878 7.81283 16.8263 7.54837C17.1234 7.31175 17.2546 6.92897 17.2546 6.37221C17.2546 5.81545 17.1234 5.43267 16.8263 5.19605C16.4878 4.93159 15.9489 4.86895 15.0025 4.86895H14.2494C13.303 4.86895 12.7641 4.93159 12.4256 5.19605C12.1285 5.43267 11.9973 5.81545 11.9973 6.37221C11.9973 6.92897 12.1285 7.31175 12.4256 7.54837C12.7641 7.81283 13.303 7.87547 14.2425 7.87547ZM14.1251 3.76238H15.1268C16.5154 3.76238 17.4342 3.97117 17.98 4.53489C18.3807 4.95246 18.581 5.58578 18.581 6.37221C18.581 7.15864 18.3807 7.79196 17.98 8.20953C17.4342 8.77325 16.5154 8.98204 15.113 8.98204H14.1251C12.7365 8.98204 11.8177 8.77325 11.2719 8.20953C10.8712 7.79196 10.6709 7.15864 10.6709 6.37221C10.6709 5.58578 10.8712 4.95246 11.2719 4.53489C11.8177 3.97117 12.7365 3.76238 14.1251 3.76238Z" fill="white"/>
<path d="M5.02664 6.46967H8.06636C8.52923 6.46967 8.77794 6.41399 8.92992 6.25392C9.05427 6.12169 9.10954 5.92682 9.10954 5.6554C9.10954 5.38398 9.05427 5.19607 8.92992 5.06384C8.77794 4.90377 8.52923 4.8481 8.06636 4.8481H5.02664V6.46967ZM8.19072 7.47184H5.02664V8.89855H3.76239V3.84592H8.19072C9.04046 3.84592 9.57241 4.01295 9.92474 4.34005C10.2425 4.63931 10.3945 5.09168 10.3945 5.6554C10.3945 6.21912 10.2425 6.6715 9.92474 6.97076C9.57241 7.29785 9.04046 7.47184 8.19072 7.47184Z" fill="white"/>
</svg>
