<svg width="132" height="22" viewBox="0 0 132 22" fill="none" xmlns="http://www.w3.org/2000/svg">
<g clip-path="url(#clip0_155_2861)">
<path fill-rule="evenodd" clip-rule="evenodd" d="M0.0184933 21.9556C4.01092 21.0425 3.34556 17.1551 3.34556 13.4815L5.60488 15.3684L7.49281 17.2666C7.86178 17.6778 8.26061 18.1128 8.68504 18.4796L9.81398 19.4457C10.4588 19.9497 11.16 20.4268 11.9024 20.794C14.5179 22.0872 18.0171 22.3428 20.9157 21.5491C23.0047 20.9771 24.9097 19.6732 25.6846 17.6241C26.149 16.3958 26.1391 15.1081 25.395 13.9928C23.5833 11.2775 18.7446 9.92622 17.2121 7.4609C15.3257 4.42647 17.7325 2.75668 20.7902 2.75668C21.77 2.75668 22.778 2.94428 23.6737 3.23624C24.3802 3.46652 25.0471 3.79184 25.6073 4.25105C25.7295 4.3511 25.71 4.39179 25.8707 4.43389V1.30033C24.4905 0.583417 22.4303 0.24109 20.7901 0.24109C18.3426 0.24109 16.3596 0.84337 14.8612 2.01217C14.7594 2.09154 14.7411 2.10138 14.6419 2.19417C14.5366 2.29272 14.4977 2.30439 14.3949 2.39301C14.0868 2.65898 13.8522 2.98104 13.6088 3.29852C12.1716 5.17307 12.6866 7.3504 14.0265 9.04341L14.6414 9.71962C15.1869 10.2595 15.8223 10.7174 16.4417 11.1741C17.9471 12.2841 20.5795 13.7219 21.626 15.0445C22.2321 15.8105 22.4536 16.199 22.4536 17.2333C22.4536 17.6917 22.1808 18.1996 21.9775 18.4872C21.2142 19.5667 19.8047 20.1021 18.3173 20.1021C15.2015 20.1021 13.8631 19.2378 11.7868 17.2002C11.0583 16.4853 10.3246 15.5396 9.65189 14.8825C9.02811 14.2733 8.42512 13.6888 7.7375 13.1426C7.58422 13.0208 7.46369 12.9239 7.30906 12.8128C6.73993 12.4042 6.13546 12.0255 5.47368 11.7016C4.95248 11.4466 4.46285 11.2095 3.91365 11.0263C3.72071 10.962 3.50378 10.9083 3.3455 10.8337V2.53625C3.54405 2.58168 3.60123 2.56476 3.83315 2.5871C5.86116 2.78253 8.60584 3.91247 8.60584 6.24356C8.60584 7.77618 7.41836 8.88859 6.13367 9.51024C6.03862 9.5562 5.96738 9.58478 5.85018 9.62922C5.79855 9.64872 5.73027 9.67215 5.68845 9.6911L5.62819 9.72029C5.56997 9.75238 5.5831 9.74493 5.5485 9.77448C6.3258 9.77448 6.9684 10.084 7.57231 10.4801C7.84809 10.661 8.09636 10.8224 8.36825 11.0228C8.64661 11.2281 8.8868 11.41 9.15202 11.6216L11.6499 13.848C12.021 14.1525 12.3444 14.5255 12.6854 14.8618L14.1029 16.1625C14.3453 16.4016 14.5696 16.597 14.8211 16.8257L15.1835 17.1319C15.7984 17.6433 16.4634 18.2102 17.2434 18.4641C18.1229 18.7503 19.0941 18.7885 19.8405 18.2432C20.1758 17.9983 20.5021 17.5568 20.6103 17.101C19.9735 17.101 18.9609 16.7112 18.4435 16.4034C17.8439 16.0466 17.2523 15.6849 16.7548 15.1923L15.0418 13.4312C14.9487 13.3165 14.8595 13.249 14.7533 13.1407C14.2833 12.6618 13.8665 12.0768 13.3267 11.6723L12.0739 10.607C11.6685 10.2886 10.3518 9.39012 9.90965 9.289C10.345 8.65069 10.5379 8.63259 11.0487 7.62656C11.342 7.04887 11.6854 6.3072 11.7082 5.49322C11.7199 5.0721 11.7298 4.68142 11.6362 4.28398C10.8492 0.945086 6.2191 0.0131499 3.21054 0.0206534C2.66757 0.0219873 2.38883 -0.0247845 1.85942 0.0182356C1.64712 0.0354937 1.36135 0.021237 1.14189 0.0199864C0.840454 0.018319 0.728565 0.0660912 0.469011 0.0656746C-0.139657 0.0645908 0.0184933 0.0418299 0.0184933 0.991528V21.9556Z" fill="#BA9D5F"/>
<path fill-rule="evenodd" clip-rule="evenodd" d="M32 17.6686H35.5718C35.7398 17.6686 35.7904 17.6179 35.7904 17.45V6.9535C36.9445 6.9535 38.779 6.8861 38.779 8.4114C38.779 9.9496 38.3841 10.744 36.8109 10.744C36.8047 11.0238 36.6021 11.6689 36.5281 11.9189C36.4143 12.3023 36.3182 12.6879 36.2278 13.0764C37.5016 13.1824 37.3664 13.5045 37.8063 14.4135L39.3621 17.8871C40.0495 17.8871 40.5902 17.8011 41.2442 17.7282C41.7803 17.6686 42.5876 17.5227 43.1525 17.5227C42.6392 16.5526 42.1731 15.5637 41.6704 14.5584C41.4151 14.0478 41.2083 13.6025 40.9421 13.0998C40.4612 12.1914 40.0281 12.295 39.7994 11.9828C40.5505 11.9661 41.2461 11.3179 41.7144 10.8364C43.1967 9.3129 43.3929 4.3291 37.1754 4.3291H32.0001L32 17.6686Z" fill="#7C7C7C"/>
<path fill-rule="evenodd" clip-rule="evenodd" d="M70.3411 9.72381H70.4869C70.5342 10.2917 71.5115 12.6875 71.6532 13.2954H69.2478L70.077 10.6258C70.1708 10.3472 70.3175 10.0069 70.3411 9.72381ZM64.364 17.6688H67.7899L68.3731 15.8466H72.5278C72.5493 16.1052 73.0039 17.4455 73.111 17.6688H77.0471L72.7373 5.06782C72.4092 4.07262 72.841 4.32961 69.3934 4.32961C69.1808 4.32961 69.2125 4.41812 69.1367 4.58312L64.6555 16.7941C64.5755 16.9957 64.3826 17.4442 64.364 17.6688Z" fill="#7C7C7C"/>
<path fill-rule="evenodd" clip-rule="evenodd" d="M114.222 9.65128L115.16 12.3577C115.245 12.6119 115.442 13.0614 115.461 13.2959H113.056C113.257 12.4341 113.984 10.6741 114.222 9.65128ZM108.172 17.6694H111.598C111.709 17.4594 112.159 16.1143 112.181 15.8471H116.336L116.93 17.6658L120.855 17.6694C120.666 16.8589 117.899 8.98348 117.474 7.71058C117.206 6.90458 116.492 5.00288 116.335 4.33008H113.055C112.988 4.62128 112.868 4.87698 112.772 5.14038L108.172 17.6694Z" fill="#7C7C7C"/>
<path fill-rule="evenodd" clip-rule="evenodd" d="M53.2114 10.38C53.2114 12.3381 53.291 13.2566 54.1335 14.9246C55.2161 17.0678 57.0372 17.7477 59.2603 17.8946C59.591 17.9165 59.436 17.9315 59.7184 17.908C59.9197 17.8911 60.0753 17.886 60.2818 17.8878C61.0042 17.8944 61.7784 17.7479 62.3391 17.6124C62.6408 17.5394 63.9265 17.1935 63.9265 16.8672V10.963H60.5006V15.0449C60.1475 15.0744 60.3086 15.1179 59.6988 15.1179C58.0517 15.1179 57.1475 12.7425 57.1475 11.1088C57.1475 9.83657 57.2515 8.99117 58.0099 8.03507C58.899 6.91407 60.5488 6.65247 61.8242 7.01537C62.1539 7.10927 62.3784 7.29287 62.6874 7.31847C62.7357 6.73697 63.4163 5.15887 63.4163 4.54847C63.0931 4.52167 62.6806 4.33587 62.3186 4.26127C60.061 3.79527 57.6234 4.23747 55.747 5.48037C54.3945 6.37637 53.2114 8.26997 53.2114 10.38Z" fill="#7C7C7C"/>
<path fill-rule="evenodd" clip-rule="evenodd" d="M44.4646 17.4506C44.4646 17.6186 44.5152 17.6692 44.6832 17.6692H51.9725V15.191C51.9725 15.023 51.9218 14.9723 51.7538 14.9723H48.255V12.2024H51.3165V9.57828H48.255V6.95428H51.5351C51.544 6.56138 51.7294 5.95738 51.8121 5.62748C51.9061 5.25108 52.0884 4.68888 52.1183 4.33008H44.4647L44.4646 17.4506Z" fill="#7C7C7C"/>
<path fill-rule="evenodd" clip-rule="evenodd" d="M124.208 13.3681V17.6687C128.651 17.6687 128 17.9867 127.999 16.5752L127.999 13.9509C127.995 13.0779 128.091 12.9503 128.606 11.9344C129.394 10.3797 130.354 8.05759 131.133 6.51589C131.291 6.20219 131.397 5.97689 131.549 5.62029C132.007 4.54639 132.48 4.60529 130.985 4.47719L128.582 4.18359C128.496 4.55179 128.211 5.10199 128.051 5.47539C127.85 5.94429 127.683 6.35599 127.486 6.80569C127.31 7.20829 126.419 9.14729 126.395 9.43179L124.352 4.84159C124.261 4.63499 124.166 4.38009 124.062 4.18359C123.587 4.29439 120.315 4.51789 120.208 4.61749C120.09 4.72749 120.164 4.58829 120.178 4.72139C120.183 4.77279 124.208 13.0903 124.208 13.3681Z" fill="#7C7C7C"/>
<path fill-rule="evenodd" clip-rule="evenodd" d="M90.2405 7.61033C90.2405 8.85373 90.4906 10.1545 91.478 10.8922C91.7583 11.1016 91.972 11.2663 92.2945 11.4606C93.5796 12.2347 95.1244 12.5316 95.1244 13.9518C95.1244 15.5784 92.9553 15.3495 91.9435 15.0188L90.7508 14.5349C90.5994 14.8508 90.4592 15.4704 90.3397 15.873C90.233 16.2323 89.9766 16.9017 89.949 17.2318C90.4483 17.496 91.9069 17.8526 92.6458 17.888C93.7168 17.9394 94.7419 17.9149 95.6946 17.6563C96.0511 17.5595 96.5637 17.3352 96.8713 17.1566C97.9265 16.5443 98.8418 15.3611 98.8418 13.9516C98.8418 12.1067 98.5515 11.1147 96.8606 10.1014C96.3174 9.77583 95.7849 9.50323 95.2203 9.19063C94.3973 8.73483 94.0308 8.58143 94.0308 7.61013C94.0308 6.42213 95.9078 6.72883 96.6276 6.90863C97.0385 7.01133 97.2671 7.16753 97.6026 7.24573C97.6387 6.81233 97.8557 6.33703 97.9763 5.94283C98.081 5.60123 98.3316 4.93643 98.3316 4.54873C97.3363 4.46593 97.6621 4.11133 94.687 4.11133C93.123 4.11133 91.485 4.87353 90.7349 6.06343C90.5006 6.43513 90.2405 7.03273 90.2405 7.61033Z" fill="#7C7C7C"/>
<path fill-rule="evenodd" clip-rule="evenodd" d="M99.1333 6.95407H102.049V17.6692H105.839V6.95407C108.769 6.95407 108.174 7.30867 108.565 5.74417C108.69 5.24447 108.787 4.81688 108.901 4.33008H99.1333V6.95407Z" fill="#7C7C7C"/>
<path fill-rule="evenodd" clip-rule="evenodd" d="M77.7759 17.6692H85.2839V15.191C85.2839 15.023 85.2332 14.9723 85.0652 14.9723H81.5664V4.33008H77.7759V17.6692Z" fill="#7C7C7C"/>
</g>
<defs>
<clipPath id="clip0_155_2861">
<rect width="132" height="22" fill="white"/>
</clipPath>
</defs>
</svg>
