<svg width="79" height="24" viewBox="0 0 79 24" fill="none" xmlns="http://www.w3.org/2000/svg">
<g clip-path="url(#clip0_154_2849)">
<path d="M20 0H4C1.79086 0 0 1.79086 0 4V20C0 22.2091 1.79086 24 4 24H20C22.2091 24 24 22.2091 24 20V4C24 1.79086 22.2091 0 20 0Z" fill="#EFF0FE"/>
<path d="M10.9831 6H13.4938L5 15.3895V12.5945L10.9831 6Z" fill="#0076FE"/>
<path d="M5 6H8.42827L5 9.75581V6Z" fill="#00CEFF"/>
<path d="M10.7207 14.7129L13.8867 18.25H11.3584L9.43262 16.1318L7.51074 18.25H5L9.43652 13.293L10.7207 14.7129Z" fill="#002FFF"/>
<path d="M13.2354 11.9727L18.8047 18.25H16.2939L10.7305 12.0205L10.6777 11.9619L16.0928 6H18.625L13.2354 11.9727Z" fill="#002FFF"/>
</g>
<path d="M29.5625 16V7.27273H31.9318V10.8011H32.0511L34.6761 7.27273H37.4375L34.4886 11.1591L37.5057 16H34.6761L32.7159 12.7273L31.9318 13.75V16H29.5625ZM40.8306 16.1193C40.1317 16.1193 39.5295 15.9858 39.0238 15.7188C38.521 15.4489 38.1332 15.0625 37.8604 14.5597C37.5906 14.054 37.4556 13.4489 37.4556 12.7443C37.4556 12.0682 37.592 11.4773 37.8647 10.9716C38.1374 10.4659 38.5224 10.0724 39.0195 9.79119C39.5167 9.50994 40.1033 9.36932 40.7795 9.36932C41.2738 9.36932 41.7212 9.44602 42.1218 9.59943C42.5224 9.75284 42.8647 9.97585 43.1488 10.2685C43.4329 10.5582 43.6516 10.9105 43.805 11.3253C43.9585 11.7401 44.0352 12.2074 44.0352 12.7273V13.2727H38.1886V11.9773H41.8704C41.8675 11.7898 41.8192 11.625 41.7255 11.483C41.6346 11.3381 41.511 11.2259 41.3548 11.1463C41.2013 11.0639 41.0266 11.0227 40.8306 11.0227C40.6403 11.0227 40.4656 11.0639 40.3065 11.1463C40.1474 11.2259 40.0195 11.3366 39.9229 11.4787C39.8292 11.6207 39.7795 11.7869 39.7738 11.9773V13.375C39.7738 13.5852 39.8178 13.7727 39.9059 13.9375C39.994 14.1023 40.1204 14.2315 40.2852 14.3253C40.4499 14.419 40.6488 14.4659 40.8817 14.4659C41.0437 14.4659 41.1914 14.4432 41.3249 14.3977C41.4613 14.3523 41.5778 14.2869 41.6744 14.2017C41.771 14.1136 41.842 14.0085 41.8874 13.8864H44.0352C43.9613 14.3409 43.7866 14.7358 43.511 15.071C43.2354 15.4034 42.8704 15.6619 42.4158 15.8466C41.9641 16.0284 41.4357 16.1193 40.8306 16.1193ZM48.1314 16.1193C47.4325 16.1193 46.8303 15.9858 46.3246 15.7188C45.8217 15.4489 45.4339 15.0625 45.1612 14.5597C44.8913 14.054 44.7564 13.4489 44.7564 12.7443C44.7564 12.0682 44.8928 11.4773 45.1655 10.9716C45.4382 10.4659 45.8232 10.0724 46.3203 9.79119C46.8175 9.50994 47.4041 9.36932 48.0803 9.36932C48.5746 9.36932 49.022 9.44602 49.4226 9.59943C49.8232 9.75284 50.1655 9.97585 50.4496 10.2685C50.7337 10.5582 50.9524 10.9105 51.1058 11.3253C51.2592 11.7401 51.3359 12.2074 51.3359 12.7273V13.2727H45.4893V11.9773H49.1712C49.1683 11.7898 49.12 11.625 49.0263 11.483C48.9354 11.3381 48.8118 11.2259 48.6555 11.1463C48.5021 11.0639 48.3274 11.0227 48.1314 11.0227C47.9411 11.0227 47.7663 11.0639 47.6072 11.1463C47.4482 11.2259 47.3203 11.3366 47.2237 11.4787C47.13 11.6207 47.0803 11.7869 47.0746 11.9773V13.375C47.0746 13.5852 47.1186 13.7727 47.2067 13.9375C47.2947 14.1023 47.4212 14.2315 47.5859 14.3253C47.7507 14.419 47.9496 14.4659 48.1825 14.4659C48.3445 14.4659 48.4922 14.4432 48.6257 14.3977C48.7621 14.3523 48.8786 14.2869 48.9751 14.2017C49.0717 14.1136 49.1428 14.0085 49.1882 13.8864H51.3359C51.2621 14.3409 51.0874 14.7358 50.8118 15.071C50.5362 15.4034 50.1712 15.6619 49.7166 15.8466C49.2649 16.0284 48.7365 16.1193 48.1314 16.1193ZM52.2958 18.4545V9.45455H54.631V10.5966H54.6822C54.7674 10.375 54.8924 10.1719 55.0572 9.98722C55.2219 9.79972 55.4265 9.65057 55.6708 9.53977C55.9151 9.42614 56.1992 9.36932 56.5231 9.36932C56.9549 9.36932 57.3654 9.48438 57.7546 9.71449C58.1467 9.9446 58.4648 10.3068 58.7092 10.8011C58.9563 11.2955 59.0799 11.9375 59.0799 12.7273C59.0799 13.483 58.962 14.1094 58.7262 14.6065C58.4933 15.1037 58.1808 15.4744 57.7887 15.7188C57.3995 15.9631 56.9719 16.0852 56.506 16.0852C56.1992 16.0852 55.9251 16.0355 55.6836 15.9361C55.445 15.8338 55.2404 15.696 55.07 15.5227C54.9023 15.3466 54.7731 15.1477 54.6822 14.9261H54.6481V18.4545H52.2958ZM54.5969 12.7273C54.5969 13.0455 54.6381 13.321 54.7205 13.554C54.8058 13.7841 54.9251 13.9631 55.0785 14.0909C55.2347 14.2159 55.4208 14.2784 55.6367 14.2784C55.8526 14.2784 56.0359 14.2173 56.1864 14.0952C56.3398 13.9702 56.4563 13.7926 56.5359 13.5625C56.6183 13.3295 56.6594 13.0511 56.6594 12.7273C56.6594 12.4034 56.6183 12.1264 56.5359 11.8963C56.4563 11.6634 56.3398 11.4858 56.1864 11.3636C56.0359 11.2386 55.8526 11.1761 55.6367 11.1761C55.4208 11.1761 55.2347 11.2386 55.0785 11.3636C54.9251 11.4858 54.8058 11.6634 54.7205 11.8963C54.6381 12.1264 54.5969 12.4034 54.5969 12.7273ZM60.0653 16V9.45455H62.4176V16H60.0653ZM61.2415 8.77273C60.9233 8.77273 60.6506 8.66761 60.4233 8.45739C60.196 8.24716 60.0824 7.99432 60.0824 7.69886C60.0824 7.40341 60.196 7.15057 60.4233 6.94034C60.6506 6.73011 60.9233 6.625 61.2415 6.625C61.5625 6.625 61.8352 6.73011 62.0597 6.94034C62.2869 7.15057 62.4006 7.40341 62.4006 7.69886C62.4006 7.99432 62.2869 8.24716 62.0597 8.45739C61.8352 8.66761 61.5625 8.77273 61.2415 8.77273ZM65.9684 12.3182V16H63.6161V9.45455H65.8491V10.6989H65.9173C66.0593 10.2841 66.3093 9.95881 66.6673 9.72301C67.0281 9.48722 67.4485 9.36932 67.9286 9.36932C68.3917 9.36932 68.7937 9.47585 69.1346 9.68892C69.4783 9.89915 69.744 10.1889 69.9315 10.5582C70.1218 10.9276 70.2156 11.3494 70.2127 11.8239V16H67.8604V12.3182C67.8633 11.9943 67.7809 11.7401 67.6133 11.5554C67.4485 11.3707 67.2184 11.2784 66.9229 11.2784C66.7298 11.2784 66.5607 11.321 66.4158 11.4062C66.2738 11.4886 66.1644 11.608 66.0877 11.7642C66.011 11.9176 65.9712 12.1023 65.9684 12.3182ZM74.5273 18.5909C73.8711 18.5909 73.3086 18.4972 72.8398 18.3097C72.3739 18.125 72.0117 17.8693 71.7532 17.5426C71.4975 17.2188 71.354 16.8466 71.3228 16.4261H73.5898C73.6126 16.5653 73.6694 16.6776 73.7603 16.7628C73.8512 16.848 73.9677 16.9091 74.1097 16.946C74.2546 16.9858 74.4165 17.0057 74.5955 17.0057C74.8995 17.0057 75.1509 16.9318 75.3498 16.7841C75.5515 16.6364 75.6523 16.3693 75.6523 15.983V14.875H75.5842C75.4989 15.0966 75.3683 15.2855 75.1921 15.4418C75.016 15.5952 74.8043 15.7131 74.5572 15.7955C74.31 15.875 74.0387 15.9148 73.7433 15.9148C73.2773 15.9148 72.8484 15.8068 72.4563 15.5909C72.0671 15.375 71.7546 15.0327 71.5188 14.5639C71.2859 14.0952 71.1694 13.483 71.1694 12.7273C71.1694 11.9375 71.2915 11.2955 71.5359 10.8011C71.783 10.3068 72.1012 9.9446 72.4904 9.71449C72.8825 9.48438 73.2944 9.36932 73.7262 9.36932C74.0501 9.36932 74.3342 9.42614 74.5785 9.53977C74.8228 9.65057 75.0273 9.79972 75.1921 9.98722C75.3569 10.1719 75.4819 10.375 75.5671 10.5966H75.6183V9.45455H77.9705V15.983C77.9705 16.5369 77.8271 17.0071 77.5401 17.3935C77.256 17.7827 76.8555 18.0795 76.3384 18.2841C75.8214 18.4886 75.2177 18.5909 74.5273 18.5909ZM74.6126 14.2443C74.8285 14.2443 75.0131 14.1847 75.1665 14.0653C75.3228 13.9432 75.4421 13.7699 75.5245 13.5455C75.6097 13.3182 75.6523 13.0455 75.6523 12.7273C75.6523 12.4034 75.6097 12.1264 75.5245 11.8963C75.4421 11.6634 75.3228 11.4858 75.1665 11.3636C75.0131 11.2386 74.8285 11.1761 74.6126 11.1761C74.3967 11.1761 74.212 11.2386 74.0586 11.3636C73.908 11.4858 73.7915 11.6634 73.7092 11.8963C73.6296 12.1264 73.5898 12.4034 73.5898 12.7273C73.5898 13.0511 73.6296 13.3267 73.7092 13.554C73.7915 13.7784 73.908 13.9503 74.0586 14.0696C74.212 14.1861 74.3967 14.2443 74.6126 14.2443Z" fill="#2E2E2E"/>
<defs>
<clipPath id="clip0_154_2849">
<rect width="24" height="24" fill="white"/>
</clipPath>
</defs>
</svg>
