<svg width="1465" height="435" viewBox="0 0 1465 435" fill="none" xmlns="http://www.w3.org/2000/svg">
<g clip-path="url(#clip0_10_32)">
<path fill-rule="evenodd" clip-rule="evenodd" d="M41.4999 0.99791C20.9789 4.17691 4.23595 21.0399 1.09395 41.6919C-0.38605 51.4199 -0.42505 243.697 1.05195 254.678C3.67295 274.178 17.223 290.282 35.848 296.035C43.876 298.514 58.2359 298.754 65.3979 296.529C78.0449 292.599 79.689 291.133 140.115 229.927C171.677 197.958 197.5 171.313 197.5 170.717C197.5 169.727 193.156 166.704 185.593 162.429C183.103 161.022 157.648 145.336 132.083 129.455L124.666 124.848L133.765 115.749L142.864 106.65L187.278 121.332L231.692 136.013L242.133 125.257C247.876 119.341 256.553 110.361 261.417 105.302C266.28 100.244 271.732 95.4059 273.531 94.5519C281.298 90.8659 291.873 94.3169 295.386 101.684C297.221 105.532 297.511 113.068 295.949 116.316C295.372 117.517 285.697 127.5 274.451 138.5L254.003 158.5L268.526 202C276.514 225.925 282.83 246.4 282.562 247.5C282.293 248.6 278.46 253.087 274.043 257.47C267.093 264.369 265.829 265.243 264.653 263.97C263.371 262.584 241.893 228.021 228.007 205C219.421 190.765 219.662 190.982 216.396 194.569C212.672 198.659 194.011 218.109 179.523 233C142.973 270.568 119.903 295.252 116.079 300.883C84.6589 347.151 106.708 412.837 159.788 431.099C168.792 434.197 176.899 435.221 191.722 435.134C240.712 434.846 287.134 414.988 322.638 379.132C350.215 351.283 367.782 316.201 374.703 275.156C376.358 265.345 376.5 255.698 376.5 153.5V42.4999L374.295 35.4919C370.428 23.2039 360.149 11.1489 349.022 5.85391C337.003 0.132909 348.126 0.519911 191 0.364911C111.525 0.286911 44.2499 0.57191 41.4999 0.99791Z" fill="url(#paint0_linear_10_32)"/>
</g>
<path d="M406.463 248C404.973 248 403.649 247.503 402.49 246.509C401.497 245.349 401 244.023 401 242.531C401 241.869 401.166 241.289 401.497 240.791L458.117 81.7057C458.613 79.8829 459.69 78.1429 461.345 76.4857C463.166 74.8286 465.567 74 468.547 74H513.992C517.137 74 519.538 74.8286 521.194 76.4857C522.849 78.1429 523.925 79.8829 524.422 81.7057L581.29 240.791C581.456 241.289 581.539 241.869 581.539 242.531C581.539 244.023 580.959 245.349 579.8 246.509C578.807 247.503 577.565 248 576.075 248H537.832C535.017 248 532.948 247.337 531.624 246.011C530.299 244.686 529.389 243.443 528.892 242.283L521.194 221.403H461.345L453.647 242.283C453.15 243.443 452.24 244.686 450.915 246.011C449.756 247.337 447.687 248 444.707 248H406.463ZM472.768 179.394H509.77L491.145 123.466L472.768 179.394Z" fill="#0054F9"/>
<path d="M632.629 248C629.649 248 627.249 247.171 625.428 245.514C623.772 243.857 622.696 242.117 622.199 240.294L573.278 81.2086C573.112 80.5457 573.029 79.9657 573.029 79.4686C573.029 77.9771 573.526 76.7343 574.519 75.74C575.678 74.58 577.003 74 578.493 74H616.984C619.964 74 622.282 74.8286 623.938 76.4857C625.593 78.1429 626.669 79.8 627.166 81.4572L656.47 185.111L685.773 81.4572C686.27 79.8 687.346 78.1429 689.001 76.4857C690.657 74.8286 692.975 74 695.955 74H734.446C735.936 74 737.178 74.58 738.171 75.74C739.165 76.7343 739.661 77.9771 739.661 79.4686C739.661 79.9657 739.579 80.5457 739.413 81.2086L690.74 240.294C690.243 242.117 689.084 243.857 687.263 245.514C685.607 247.171 683.207 248 680.061 248H632.629Z" fill="#0054F9"/>
<path d="M766.472 248C764.816 248 763.326 247.42 762.002 246.26C760.677 244.934 760.015 243.36 760.015 241.537V80.4629C760.015 78.64 760.677 77.1486 762.002 75.9886C763.326 74.6629 764.816 74 766.472 74H808.688C810.51 74 812 74.6629 813.158 75.9886C814.483 77.1486 815.145 78.64 815.145 80.4629V241.537C815.145 243.36 814.483 244.934 813.158 246.26C812 247.42 810.51 248 808.688 248H766.472Z" fill="#0054F9"/>
<path d="M836.925 248C835.435 248 834.11 247.503 832.951 246.509C831.958 245.349 831.461 244.023 831.461 242.531C831.461 241.869 831.627 241.289 831.958 240.791L888.578 81.7057C889.075 79.8829 890.151 78.1429 891.806 76.4857C893.628 74.8286 896.028 74 899.008 74H944.453C947.599 74 949.999 74.8286 951.655 76.4857C953.311 78.1429 954.387 79.8829 954.883 81.7057L1011.75 240.791C1011.92 241.289 1012 241.869 1012 242.531C1012 244.023 1011.42 245.349 1010.26 246.509C1009.27 247.503 1008.03 248 1006.54 248H968.293C965.479 248 963.409 247.337 962.085 246.011C960.761 244.686 959.85 243.443 959.353 242.283L951.655 221.403H891.806L884.108 242.283C883.611 243.443 882.701 244.686 881.376 246.011C880.218 247.337 878.148 248 875.168 248H836.925ZM903.23 179.394H940.232L921.607 123.466L903.23 179.394Z" fill="#0054F9"/>
<path d="M1032.45 248C1030.8 248 1029.31 247.42 1027.98 246.26C1026.66 244.934 1026 243.36 1026 241.537V80.4629C1026 78.64 1026.66 77.1486 1027.98 75.9886C1029.31 74.6629 1030.8 74 1032.45 74H1152.03C1153.85 74 1155.42 74.6629 1156.74 75.9886C1158.07 77.1486 1158.73 78.64 1158.73 80.4629V112.031C1158.73 113.689 1158.07 115.18 1156.74 116.506C1155.42 117.831 1153.85 118.494 1152.03 118.494H1078.35V145.837H1147.07C1148.89 145.837 1150.46 146.5 1151.78 147.826C1153.11 148.986 1153.77 150.477 1153.77 152.3V183.62C1153.77 185.443 1153.11 187.017 1151.78 188.343C1150.46 189.503 1148.89 190.083 1147.07 190.083H1078.35V241.537C1078.35 243.36 1077.69 244.934 1076.36 246.26C1075.2 247.42 1073.72 248 1071.9 248H1032.45Z" fill="#EBFF00"/>
<path d="M1189.2 248C1187.55 248 1186.06 247.42 1184.74 246.26C1183.41 244.934 1182.75 243.36 1182.75 241.537V80.4629C1182.75 78.64 1183.41 77.1486 1184.74 75.9886C1186.06 74.6629 1187.55 74 1189.2 74H1230.39C1232.21 74 1233.78 74.6629 1235.1 75.9886C1236.42 77.1486 1237.09 78.64 1237.09 80.4629V203.754H1308.78C1310.6 203.754 1312.17 204.417 1313.5 205.743C1314.82 206.903 1315.48 208.394 1315.48 210.217V241.537C1315.48 243.36 1314.82 244.934 1313.5 246.26C1312.17 247.42 1310.6 248 1308.78 248H1189.2Z" fill="#EBFF00"/>
<path d="M1360.8 248C1358.98 248 1357.41 247.42 1356.09 246.26C1354.93 244.934 1354.35 243.36 1354.35 241.537V190.331L1297.79 81.7057C1297.62 81.3743 1297.46 81.0429 1297.29 80.7114C1297.12 80.2143 1297.04 79.8 1297.04 79.4686C1297.04 77.9771 1297.54 76.7343 1298.53 75.74C1299.69 74.58 1301.01 74 1302.5 74H1341.2C1344.18 74 1346.41 74.7457 1347.9 76.2371C1349.39 77.7286 1350.38 78.8886 1350.88 79.7171L1381.15 136.889L1411.41 79.7171C1411.74 78.8886 1412.65 77.7286 1414.14 76.2371C1415.63 74.7457 1417.86 74 1420.84 74H1459.79C1461.11 74 1462.27 74.58 1463.26 75.74C1464.42 76.7343 1465 77.9771 1465 79.4686C1465 79.8 1464.92 80.2143 1464.75 80.7114C1464.75 81.0429 1464.67 81.3743 1464.5 81.7057L1407.69 190.331V241.537C1407.69 243.36 1407.03 244.934 1405.71 246.26C1404.55 247.42 1403.06 248 1401.24 248H1360.8Z" fill="#EBFF00"/>
<path d="M426.508 343.771C422.244 343.771 418.622 343.026 415.642 341.536C412.662 339.995 410.376 337.657 408.783 334.523C407.191 331.338 406.317 327.33 406.163 322.501C406.112 320.189 406.086 318.031 406.086 316.028C406.086 314.024 406.112 311.866 406.163 309.554C406.317 304.777 407.242 300.821 408.938 297.687C410.633 294.501 412.971 292.138 415.95 290.597C418.981 289.056 422.501 288.285 426.508 288.285C430.515 288.285 434.009 289.056 436.989 290.597C440.02 292.138 442.383 294.501 444.078 297.687C445.825 300.821 446.75 304.777 446.853 309.554C446.955 311.866 447.007 314.024 447.007 316.028C447.007 318.031 446.955 320.189 446.853 322.501C446.75 327.33 445.877 331.338 444.233 334.523C442.64 337.657 440.354 339.995 437.374 341.536C434.394 343.026 430.772 343.771 426.508 343.771ZM426.508 339.147C430.926 339.147 434.548 337.811 437.374 335.14C440.251 332.468 441.792 328.127 441.998 322.116C442.1 319.804 442.152 317.775 442.152 316.028C442.152 314.281 442.1 312.252 441.998 309.94C441.895 305.933 441.15 302.67 439.763 300.153C438.427 297.635 436.603 295.812 434.291 294.681C432.031 293.5 429.436 292.909 426.508 292.909C423.631 292.909 421.036 293.5 418.725 294.681C416.464 295.812 414.64 297.635 413.253 300.153C411.917 302.67 411.172 305.933 411.018 309.94C410.967 312.252 410.941 314.281 410.941 316.028C410.941 317.775 410.967 319.804 411.018 322.116C411.224 328.127 412.765 332.468 415.642 335.14C418.519 337.811 422.141 339.147 426.508 339.147ZM470.52 343C470.006 343 469.595 342.846 469.287 342.538C468.978 342.229 468.824 341.818 468.824 341.305V307.397H454.722C454.208 307.397 453.797 307.243 453.489 306.934C453.18 306.626 453.026 306.215 453.026 305.701V304.622C453.026 304.109 453.18 303.698 453.489 303.389C453.797 303.081 454.208 302.927 454.722 302.927H487.628C488.141 302.927 488.552 303.081 488.861 303.389C489.169 303.698 489.323 304.109 489.323 304.622V305.701C489.323 306.215 489.169 306.626 488.861 306.934C488.552 307.243 488.141 307.397 487.628 307.397H473.525V341.305C473.525 341.818 473.371 342.229 473.063 342.538C472.754 342.846 472.343 343 471.83 343H470.52ZM498.268 343C497.754 343 497.343 342.846 497.035 342.538C496.727 342.229 496.572 341.818 496.572 341.305V304.622C496.572 304.109 496.727 303.698 497.035 303.389C497.343 303.081 497.754 302.927 498.268 302.927H499.578C500.092 302.927 500.503 303.081 500.811 303.389C501.119 303.698 501.273 304.109 501.273 304.622V320.266H509.519L520.847 304.083C521.104 303.672 521.387 303.389 521.695 303.235C522.003 303.03 522.389 302.927 522.851 302.927H524.392C524.855 302.927 525.214 303.03 525.471 303.235C525.779 303.389 525.934 303.646 525.934 304.006C525.934 304.109 525.882 304.237 525.779 304.391C525.728 304.545 525.651 304.725 525.548 304.931L513.603 322.039L527.012 340.919C527.269 341.228 527.398 341.561 527.398 341.921C527.398 342.281 527.269 342.563 527.012 342.769C526.756 342.923 526.396 343 525.934 343H523.93C523.468 343 523.082 342.923 522.774 342.769C522.466 342.563 522.183 342.281 521.926 341.921L509.75 324.89H501.273V341.305C501.273 341.818 501.119 342.229 500.811 342.538C500.503 342.846 500.092 343 499.578 343H498.268ZM537.328 357.642C536.814 357.642 536.403 357.488 536.095 357.18C535.787 356.871 535.633 356.46 535.633 355.947V304.622C535.633 304.109 535.787 303.698 536.095 303.389C536.403 303.081 536.814 302.927 537.328 302.927H538.638C539.152 302.927 539.563 303.081 539.871 303.389C540.179 303.698 540.334 304.109 540.334 304.622V308.244C541.618 306.498 543.288 305.059 545.343 303.929C547.449 302.747 550.095 302.156 553.28 302.156C556.311 302.156 558.854 302.696 560.91 303.775C562.965 304.802 564.634 306.189 565.919 307.936C567.203 309.683 568.153 311.635 568.77 313.793C569.386 315.951 569.72 318.16 569.772 320.42C569.823 321.191 569.849 322.039 569.849 322.964C569.849 323.888 569.823 324.736 569.772 325.507C569.72 327.767 569.386 329.976 568.77 332.134C568.153 334.292 567.203 336.244 565.919 337.991C564.634 339.738 562.965 341.15 560.91 342.229C558.854 343.257 556.311 343.771 553.28 343.771C550.095 343.771 547.449 343.18 545.343 341.998C543.288 340.817 541.618 339.378 540.334 337.683V355.947C540.334 356.46 540.179 356.871 539.871 357.18C539.563 357.488 539.152 357.642 538.638 357.642H537.328ZM552.818 339.301C555.849 339.301 558.238 338.633 559.985 337.297C561.732 335.962 562.99 334.215 563.761 332.057C564.532 329.899 564.968 327.587 565.071 325.121C565.122 323.683 565.122 322.244 565.071 320.806C564.968 318.34 564.532 316.028 563.761 313.87C562.99 311.712 561.732 309.965 559.985 308.63C558.238 307.294 555.849 306.626 552.818 306.626C549.889 306.626 547.526 307.32 545.728 308.707C543.93 310.094 542.594 311.841 541.721 313.947C540.899 316.002 540.436 318.083 540.334 320.189C540.282 320.96 540.257 321.962 540.257 323.195C540.257 324.428 540.282 325.43 540.334 326.2C540.385 328.255 540.847 330.285 541.721 332.288C542.646 334.292 544.007 335.962 545.805 337.297C547.655 338.633 549.992 339.301 552.818 339.301ZM595.592 343.771C591.893 343.771 588.785 343 586.268 341.459C583.802 339.917 581.901 337.811 580.565 335.14C579.281 332.468 578.587 329.488 578.484 326.2C578.433 325.43 578.407 324.351 578.407 322.964C578.407 321.576 578.433 320.497 578.484 319.727C578.587 316.387 579.281 313.408 580.565 310.788C581.901 308.116 583.802 306.01 586.268 304.468C588.785 302.927 591.893 302.156 595.592 302.156C599.291 302.156 602.374 302.927 604.84 304.468C607.357 306.01 609.258 308.116 610.543 310.788C611.878 313.408 612.598 316.387 612.7 319.727C612.752 320.497 612.777 321.576 612.777 322.964C612.777 324.351 612.752 325.43 612.7 326.2C612.598 329.488 611.878 332.468 610.543 335.14C609.258 337.811 607.357 339.917 604.84 341.459C602.374 343 599.291 343.771 595.592 343.771ZM595.592 339.301C599.189 339.301 602.117 338.145 604.377 335.833C606.638 333.521 607.845 330.182 607.999 325.815C608.051 325.044 608.077 324.094 608.077 322.964C608.077 321.833 608.051 320.883 607.999 320.112C607.845 315.694 606.638 312.354 604.377 310.094C602.117 307.782 599.189 306.626 595.592 306.626C591.996 306.626 589.068 307.782 586.807 310.094C584.547 312.354 583.339 315.694 583.185 320.112C583.134 320.883 583.108 321.833 583.108 322.964C583.108 324.094 583.134 325.044 583.185 325.815C583.339 330.182 584.547 333.521 586.807 335.833C589.068 338.145 591.996 339.301 595.592 339.301ZM624.847 343C624.436 343 624.076 342.846 623.768 342.538C623.46 342.229 623.306 341.87 623.306 341.459V304.622C623.306 304.109 623.46 303.698 623.768 303.389C624.076 303.081 624.487 302.927 625.001 302.927H626.311C626.825 302.927 627.236 303.081 627.544 303.389C627.852 303.698 628.006 304.109 628.006 304.622V339.224L626.619 336.989L651.742 304.083C651.999 303.775 652.256 303.518 652.513 303.312C652.821 303.055 653.232 302.927 653.746 302.927H655.21C655.621 302.927 655.98 303.081 656.289 303.389C656.597 303.646 656.751 303.98 656.751 304.391V341.305C656.751 341.818 656.597 342.229 656.289 342.538C655.98 342.846 655.569 343 655.056 343H653.746C653.232 343 652.821 342.846 652.513 342.538C652.204 342.229 652.05 341.818 652.05 341.305V309.015L653.669 308.63L628.315 341.844C628.109 342.101 627.852 342.358 627.544 342.615C627.236 342.872 626.825 343 626.311 343H624.847ZM640.028 297.533C637.151 297.533 634.916 297.096 633.324 296.223C631.783 295.349 630.704 294.219 630.087 292.832C629.522 291.445 629.239 290.032 629.239 288.593C629.239 288.182 629.368 287.848 629.625 287.591C629.882 287.283 630.241 287.129 630.704 287.129H631.86C632.322 287.129 632.682 287.283 632.938 287.591C633.195 287.848 633.324 288.182 633.324 288.593C633.324 289.826 633.76 290.982 634.634 292.061C635.559 293.14 637.357 293.679 640.028 293.679C642.751 293.679 644.549 293.14 645.423 292.061C646.296 290.982 646.733 289.826 646.733 288.593C646.733 288.182 646.861 287.848 647.118 287.591C647.375 287.283 647.735 287.129 648.197 287.129H649.353C649.815 287.129 650.175 287.283 650.432 287.591C650.689 287.848 650.817 288.182 650.817 288.593C650.817 290.032 650.509 291.445 649.892 292.832C649.327 294.219 648.248 295.349 646.656 296.223C645.115 297.096 642.905 297.533 640.028 297.533ZM681.466 343C680.952 343 680.541 342.846 680.233 342.538C679.924 342.229 679.77 341.818 679.77 341.305V307.397H665.668C665.154 307.397 664.743 307.243 664.435 306.934C664.126 306.626 663.972 306.215 663.972 305.701V304.622C663.972 304.109 664.126 303.698 664.435 303.389C664.743 303.081 665.154 302.927 665.668 302.927H698.574C699.087 302.927 699.498 303.081 699.807 303.389C700.115 303.698 700.269 304.109 700.269 304.622V305.701C700.269 306.215 700.115 306.626 699.807 306.934C699.498 307.243 699.087 307.397 698.574 307.397H684.471V341.305C684.471 341.818 684.317 342.229 684.009 342.538C683.7 342.846 683.289 343 682.776 343H681.466ZM722.392 343.771C717.408 343.771 713.452 342.152 710.524 338.916C707.595 335.628 705.926 331.338 705.515 326.046C705.463 325.275 705.438 324.248 705.438 322.964C705.438 321.679 705.463 320.652 705.515 319.881C705.772 316.387 706.594 313.305 707.981 310.633C709.368 307.962 711.269 305.881 713.683 304.391C716.149 302.901 719.052 302.156 722.392 302.156C725.988 302.156 729.045 302.953 731.562 304.545C734.08 306.138 736.006 308.424 737.342 311.404C738.729 314.384 739.423 317.929 739.423 322.039V323.195C739.423 323.708 739.243 324.119 738.883 324.428C738.575 324.736 738.164 324.89 737.65 324.89H710.216C710.216 324.89 710.216 324.993 710.216 325.198C710.216 325.404 710.216 325.558 710.216 325.661C710.318 327.973 710.858 330.182 711.834 332.288C712.81 334.343 714.197 336.039 715.995 337.374C717.793 338.659 719.926 339.301 722.392 339.301C724.601 339.301 726.425 338.967 727.863 338.299C729.353 337.631 730.535 336.912 731.408 336.141C732.281 335.319 732.847 334.703 733.103 334.292C733.566 333.624 733.925 333.239 734.182 333.136C734.439 332.982 734.85 332.905 735.415 332.905H736.648C737.111 332.905 737.496 333.059 737.804 333.367C738.164 333.624 738.318 333.984 738.267 334.446C738.215 335.165 737.804 336.064 737.034 337.143C736.314 338.171 735.261 339.198 733.874 340.226C732.538 341.253 730.894 342.101 728.942 342.769C726.99 343.437 724.806 343.771 722.392 343.771ZM710.216 320.575H734.722V320.266C734.722 317.698 734.234 315.386 733.258 313.331C732.281 311.276 730.869 309.657 729.019 308.476C727.17 307.243 724.96 306.626 722.392 306.626C719.823 306.626 717.614 307.243 715.764 308.476C713.966 309.657 712.579 311.276 711.603 313.331C710.678 315.386 710.216 317.698 710.216 320.266V320.575ZM771.15 343C770.637 343 770.226 342.846 769.917 342.538C769.609 342.229 769.455 341.818 769.455 341.305V304.391C769.455 303.98 769.609 303.646 769.917 303.389C770.277 303.081 770.637 302.927 770.996 302.927H772.769C773.539 302.927 774.13 303.312 774.541 304.083L788.798 331.055L803.055 304.083C803.466 303.312 804.057 302.927 804.827 302.927H806.6C807.011 302.927 807.37 303.081 807.678 303.389C807.987 303.646 808.141 303.98 808.141 304.391V341.305C808.141 341.818 807.987 342.229 807.678 342.538C807.37 342.846 806.959 343 806.445 343H805.135C804.622 343 804.211 342.846 803.902 342.538C803.594 342.229 803.44 341.818 803.44 341.305V308.167H805.675L792.189 334.292C791.932 334.806 791.624 335.294 791.264 335.756C790.904 336.218 790.339 336.45 789.569 336.45H788.027C787.257 336.45 786.692 336.218 786.332 335.756C785.972 335.294 785.664 334.806 785.407 334.292L772.306 309.632H774.156V341.305C774.156 341.818 774.002 342.229 773.694 342.538C773.385 342.846 772.974 343 772.461 343H771.15ZM822.171 343C821.76 343 821.401 342.846 821.092 342.538C820.784 342.229 820.63 341.87 820.63 341.459V304.622C820.63 304.109 820.784 303.698 821.092 303.389C821.401 303.081 821.812 302.927 822.325 302.927H823.635C824.149 302.927 824.56 303.081 824.868 303.389C825.177 303.698 825.331 304.109 825.331 304.622V339.224L823.944 336.989L849.066 304.083C849.323 303.775 849.58 303.518 849.837 303.312C850.145 303.055 850.556 302.927 851.07 302.927H852.534C852.945 302.927 853.305 303.081 853.613 303.389C853.921 303.646 854.075 303.98 854.075 304.391V341.305C854.075 341.818 853.921 342.229 853.613 342.538C853.305 342.846 852.894 343 852.38 343H851.07C850.556 343 850.145 342.846 849.837 342.538C849.529 342.229 849.375 341.818 849.375 341.305V309.015L850.993 308.63L825.639 341.844C825.434 342.101 825.177 342.358 824.868 342.615C824.56 342.872 824.149 343 823.635 343H822.171ZM868.309 357.642C867.796 357.642 867.385 357.488 867.076 357.18C866.768 356.871 866.614 356.46 866.614 355.947V304.622C866.614 304.109 866.768 303.698 867.076 303.389C867.385 303.081 867.796 302.927 868.309 302.927H869.619C870.133 302.927 870.544 303.081 870.852 303.389C871.161 303.698 871.315 304.109 871.315 304.622V308.244C872.599 306.498 874.269 305.059 876.324 303.929C878.43 302.747 881.076 302.156 884.261 302.156C887.293 302.156 889.836 302.696 891.891 303.775C893.946 304.802 895.615 306.189 896.9 307.936C898.184 309.683 899.135 311.635 899.751 313.793C900.368 315.951 900.702 318.16 900.753 320.42C900.804 321.191 900.83 322.039 900.83 322.964C900.83 323.888 900.804 324.736 900.753 325.507C900.702 327.767 900.368 329.976 899.751 332.134C899.135 334.292 898.184 336.244 896.9 337.991C895.615 339.738 893.946 341.15 891.891 342.229C889.836 343.257 887.293 343.771 884.261 343.771C881.076 343.771 878.43 343.18 876.324 341.998C874.269 340.817 872.599 339.378 871.315 337.683V355.947C871.315 356.46 871.161 356.871 870.852 357.18C870.544 357.488 870.133 357.642 869.619 357.642H868.309ZM883.799 339.301C886.83 339.301 889.219 338.633 890.966 337.297C892.713 335.962 893.971 334.215 894.742 332.057C895.513 329.899 895.949 327.587 896.052 325.121C896.103 323.683 896.103 322.244 896.052 320.806C895.949 318.34 895.513 316.028 894.742 313.87C893.971 311.712 892.713 309.965 890.966 308.63C889.219 307.294 886.83 306.626 883.799 306.626C880.871 306.626 878.507 307.32 876.709 308.707C874.911 310.094 873.575 311.841 872.702 313.947C871.88 316.002 871.418 318.083 871.315 320.189C871.263 320.96 871.238 321.962 871.238 323.195C871.238 324.428 871.263 325.43 871.315 326.2C871.366 328.255 871.829 330.285 872.702 332.288C873.627 334.292 874.988 335.962 876.786 337.297C878.636 338.633 880.973 339.301 883.799 339.301ZM932.878 343C932.364 343 931.953 342.846 931.645 342.538C931.337 342.229 931.183 341.818 931.183 341.305V304.622C931.183 304.109 931.337 303.698 931.645 303.389C931.953 303.081 932.364 302.927 932.878 302.927H948.06C952.324 302.927 955.586 303.877 957.847 305.778C960.159 307.679 961.315 310.222 961.315 313.408C961.315 315.874 960.852 317.698 959.927 318.879C959.003 320.061 957.667 321.063 955.92 321.885C957.975 322.655 959.516 324.017 960.544 325.969C961.571 327.921 962.085 329.874 962.085 331.826C962.085 335.473 960.827 338.248 958.309 340.149C955.843 342.05 952.555 343 948.445 343H932.878ZM935.884 338.53H947.828C950.654 338.53 952.94 337.965 954.687 336.835C956.485 335.705 957.384 334.035 957.384 331.826C957.384 329.463 956.588 327.741 954.995 326.663C953.403 325.584 951.014 325.044 947.828 325.044H935.884V338.53ZM935.884 320.575H947.289C950.115 320.575 952.375 319.932 954.071 318.648C955.766 317.364 956.614 315.617 956.614 313.408C956.614 311.147 955.766 309.58 954.071 308.707C952.375 307.833 950.115 307.397 947.289 307.397H935.884V320.575ZM974.646 343C974.132 343 973.721 342.846 973.413 342.538C973.105 342.229 972.951 341.818 972.951 341.305V304.391C972.951 303.98 973.105 303.646 973.413 303.389C973.773 303.081 974.132 302.927 974.492 302.927H976.264C977.035 302.927 977.626 303.312 978.037 304.083L992.293 331.055L1006.55 304.083C1006.96 303.312 1007.55 302.927 1008.32 302.927H1010.1C1010.51 302.927 1010.87 303.081 1011.17 303.389C1011.48 303.646 1011.64 303.98 1011.64 304.391V341.305C1011.64 341.818 1011.48 342.229 1011.17 342.538C1010.87 342.846 1010.45 343 1009.94 343H1008.63C1008.12 343 1007.71 342.846 1007.4 342.538C1007.09 342.229 1006.94 341.818 1006.94 341.305V308.167H1009.17L995.684 334.292C995.427 334.806 995.119 335.294 994.76 335.756C994.4 336.218 993.835 336.45 993.064 336.45H991.523C990.752 336.45 990.187 336.218 989.827 335.756C989.468 335.294 989.16 334.806 988.903 334.292L975.802 309.632H977.651V341.305C977.651 341.818 977.497 342.229 977.189 342.538C976.881 342.846 976.47 343 975.956 343H974.646ZM1039 343.771C1034.02 343.771 1030.06 342.152 1027.13 338.916C1024.2 335.628 1022.53 331.338 1022.12 326.046C1022.07 325.275 1022.04 324.248 1022.04 322.964C1022.04 321.679 1022.07 320.652 1022.12 319.881C1022.38 316.387 1023.2 313.305 1024.59 310.633C1025.97 307.962 1027.88 305.881 1030.29 304.391C1032.76 302.901 1035.66 302.156 1039 302.156C1042.59 302.156 1045.65 302.953 1048.17 304.545C1050.69 306.138 1052.61 308.424 1053.95 311.404C1055.34 314.384 1056.03 317.929 1056.03 322.039V323.195C1056.03 323.708 1055.85 324.119 1055.49 324.428C1055.18 324.736 1054.77 324.89 1054.26 324.89H1026.82C1026.82 324.89 1026.82 324.993 1026.82 325.198C1026.82 325.404 1026.82 325.558 1026.82 325.661C1026.93 327.973 1027.46 330.182 1028.44 332.288C1029.42 334.343 1030.8 336.039 1032.6 337.374C1034.4 338.659 1036.53 339.301 1039 339.301C1041.21 339.301 1043.03 338.967 1044.47 338.299C1045.96 337.631 1047.14 336.912 1048.02 336.141C1048.89 335.319 1049.45 334.703 1049.71 334.292C1050.17 333.624 1050.53 333.239 1050.79 333.136C1051.05 332.982 1051.46 332.905 1052.02 332.905H1053.26C1053.72 332.905 1054.1 333.059 1054.41 333.367C1054.77 333.624 1054.93 333.984 1054.87 334.446C1054.82 335.165 1054.41 336.064 1053.64 337.143C1052.92 338.171 1051.87 339.198 1050.48 340.226C1049.15 341.253 1047.5 342.101 1045.55 342.769C1043.6 343.437 1041.41 343.771 1039 343.771ZM1026.82 320.575H1051.33V320.266C1051.33 317.698 1050.84 315.386 1049.86 313.331C1048.89 311.276 1047.48 309.657 1045.63 308.476C1043.78 307.243 1041.57 306.626 1039 306.626C1036.43 306.626 1034.22 307.243 1032.37 308.476C1030.57 309.657 1029.19 311.276 1028.21 313.331C1027.29 315.386 1026.82 317.698 1026.82 320.266V320.575ZM1081.38 343.771C1077.78 343.771 1074.72 343.077 1072.21 341.69C1069.69 340.251 1067.76 338.196 1066.43 335.525C1065.14 332.853 1064.45 329.694 1064.34 326.046C1064.29 325.275 1064.27 324.248 1064.27 322.964C1064.27 321.679 1064.29 320.652 1064.34 319.881C1064.45 316.182 1065.14 313.022 1066.43 310.402C1067.76 307.731 1069.69 305.701 1072.21 304.314C1074.72 302.876 1077.78 302.156 1081.38 302.156C1084.1 302.156 1086.44 302.542 1088.39 303.312C1090.39 304.032 1092.04 305.008 1093.32 306.241C1094.6 307.422 1095.58 308.732 1096.25 310.171C1096.92 311.61 1097.28 313.022 1097.33 314.409C1097.38 314.923 1097.23 315.334 1096.87 315.642C1096.51 315.951 1096.09 316.105 1095.63 316.105H1094.55C1094.04 316.105 1093.65 316.002 1093.4 315.797C1093.19 315.54 1092.96 315.103 1092.7 314.487C1091.63 311.558 1090.14 309.529 1088.23 308.399C1086.38 307.217 1084.1 306.626 1081.38 306.626C1077.88 306.626 1074.98 307.705 1072.67 309.863C1070.41 311.969 1069.2 315.437 1069.05 320.266C1068.94 322.064 1068.94 323.863 1069.05 325.661C1069.2 330.49 1070.41 333.984 1072.67 336.141C1074.98 338.248 1077.88 339.301 1081.38 339.301C1084.1 339.301 1086.38 338.736 1088.23 337.606C1090.14 336.424 1091.63 334.369 1092.7 331.44C1092.96 330.824 1093.19 330.413 1093.4 330.207C1093.65 329.951 1094.04 329.822 1094.55 329.822H1095.63C1096.09 329.822 1096.51 329.976 1096.87 330.285C1097.23 330.593 1097.38 331.004 1097.33 331.518C1097.28 332.648 1097.05 333.778 1096.63 334.908C1096.22 336.039 1095.58 337.143 1094.71 338.222C1093.89 339.301 1092.86 340.251 1091.63 341.073C1090.39 341.895 1088.9 342.538 1087.16 343C1085.46 343.514 1083.53 343.771 1081.38 343.771ZM1119.76 343C1119.25 343 1118.84 342.846 1118.53 342.538C1118.22 342.229 1118.07 341.818 1118.07 341.305V307.397H1103.97C1103.45 307.397 1103.04 307.243 1102.73 306.934C1102.42 306.626 1102.27 306.215 1102.27 305.701V304.622C1102.27 304.109 1102.42 303.698 1102.73 303.389C1103.04 303.081 1103.45 302.927 1103.97 302.927H1136.87C1137.39 302.927 1137.8 303.081 1138.1 303.389C1138.41 303.698 1138.57 304.109 1138.57 304.622V305.701C1138.57 306.215 1138.41 306.626 1138.1 306.934C1137.8 307.243 1137.39 307.397 1136.87 307.397H1122.77V341.305C1122.77 341.818 1122.61 342.229 1122.31 342.538C1122 342.846 1121.59 343 1121.07 343H1119.76ZM1160.69 343.771C1155.71 343.771 1151.75 342.152 1148.82 338.916C1145.89 335.628 1144.22 331.338 1143.81 326.046C1143.76 325.275 1143.74 324.248 1143.74 322.964C1143.74 321.679 1143.76 320.652 1143.81 319.881C1144.07 316.387 1144.89 313.305 1146.28 310.633C1147.67 307.962 1149.57 305.881 1151.98 304.391C1154.45 302.901 1157.35 302.156 1160.69 302.156C1164.29 302.156 1167.34 302.953 1169.86 304.545C1172.38 306.138 1174.3 308.424 1175.64 311.404C1177.03 314.384 1177.72 317.929 1177.72 322.039V323.195C1177.72 323.708 1177.54 324.119 1177.18 324.428C1176.87 324.736 1176.46 324.89 1175.95 324.89H1148.51C1148.51 324.89 1148.51 324.993 1148.51 325.198C1148.51 325.404 1148.51 325.558 1148.51 325.661C1148.62 327.973 1149.16 330.182 1150.13 332.288C1151.11 334.343 1152.5 336.039 1154.29 337.374C1156.09 338.659 1158.22 339.301 1160.69 339.301C1162.9 339.301 1164.72 338.967 1166.16 338.299C1167.65 337.631 1168.83 336.912 1169.71 336.141C1170.58 335.319 1171.14 334.703 1171.4 334.292C1171.86 333.624 1172.22 333.239 1172.48 333.136C1172.74 332.982 1173.15 332.905 1173.71 332.905H1174.95C1175.41 332.905 1175.79 333.059 1176.1 333.367C1176.46 333.624 1176.62 333.984 1176.56 334.446C1176.51 335.165 1176.1 336.064 1175.33 337.143C1174.61 338.171 1173.56 339.198 1172.17 340.226C1170.84 341.253 1169.19 342.101 1167.24 342.769C1165.29 343.437 1163.1 343.771 1160.69 343.771ZM1148.51 320.575H1173.02V320.266C1173.02 317.698 1172.53 315.386 1171.56 313.331C1170.58 311.276 1169.17 309.657 1167.32 308.476C1165.47 307.243 1163.26 306.626 1160.69 306.626C1158.12 306.626 1155.91 307.243 1154.06 308.476C1152.26 309.657 1150.88 311.276 1149.9 313.331C1148.98 315.386 1148.51 317.698 1148.51 320.266V320.575ZM1222.93 343.771C1219.34 343.771 1216.28 343.077 1213.76 341.69C1211.25 340.251 1209.32 338.196 1207.98 335.525C1206.7 332.853 1206.01 329.694 1205.9 326.046C1205.85 325.275 1205.83 324.248 1205.83 322.964C1205.83 321.679 1205.85 320.652 1205.9 319.881C1206.01 316.182 1206.7 313.022 1207.98 310.402C1209.32 307.731 1211.25 305.701 1213.76 304.314C1216.28 302.876 1219.34 302.156 1222.93 302.156C1225.66 302.156 1227.99 302.542 1229.95 303.312C1231.95 304.032 1233.59 305.008 1234.88 306.241C1236.16 307.422 1237.14 308.732 1237.81 310.171C1238.48 311.61 1238.84 313.022 1238.89 314.409C1238.94 314.923 1238.78 315.334 1238.42 315.642C1238.06 315.951 1237.65 316.105 1237.19 316.105H1236.11C1235.6 316.105 1235.21 316.002 1234.96 315.797C1234.75 315.54 1234.52 315.103 1234.26 314.487C1233.18 311.558 1231.69 309.529 1229.79 308.399C1227.94 307.217 1225.66 306.626 1222.93 306.626C1219.44 306.626 1216.54 307.705 1214.23 309.863C1211.97 311.969 1210.76 315.437 1210.6 320.266C1210.5 322.064 1210.5 323.863 1210.6 325.661C1210.76 330.49 1211.97 333.984 1214.23 336.141C1216.54 338.248 1219.44 339.301 1222.93 339.301C1225.66 339.301 1227.94 338.736 1229.79 337.606C1231.69 336.424 1233.18 334.369 1234.26 331.44C1234.52 330.824 1234.75 330.413 1234.96 330.207C1235.21 329.951 1235.6 329.822 1236.11 329.822H1237.19C1237.65 329.822 1238.06 329.976 1238.42 330.285C1238.78 330.593 1238.94 331.004 1238.89 331.518C1238.84 332.648 1238.6 333.778 1238.19 334.908C1237.78 336.039 1237.14 337.143 1236.27 338.222C1235.44 339.301 1234.42 340.251 1233.18 341.073C1231.95 341.895 1230.46 342.538 1228.71 343C1227.02 343.514 1225.09 343.771 1222.93 343.771ZM1270.63 343C1270.12 343 1269.71 342.846 1269.4 342.538C1269.09 342.229 1268.94 341.818 1268.94 341.305V304.622C1268.94 304.109 1269.09 303.698 1269.4 303.389C1269.71 303.081 1270.12 302.927 1270.63 302.927H1271.94C1272.46 302.927 1272.87 303.081 1273.18 303.389C1273.48 303.698 1273.64 304.109 1273.64 304.622V320.266H1297.68V304.622C1297.68 304.109 1297.84 303.698 1298.14 303.389C1298.45 303.081 1298.86 302.927 1299.38 302.927H1300.69C1301.2 302.927 1301.61 303.081 1301.92 303.389C1302.23 303.698 1302.38 304.109 1302.38 304.622V341.305C1302.38 341.818 1302.23 342.229 1301.92 342.538C1301.61 342.846 1301.2 343 1300.69 343H1299.38C1298.86 343 1298.45 342.846 1298.14 342.538C1297.84 342.229 1297.68 341.818 1297.68 341.305V324.736H1273.64V341.305C1273.64 341.818 1273.48 342.229 1273.18 342.538C1272.87 342.846 1272.46 343 1271.94 343H1270.63ZM1325.63 343.771C1323.17 343.771 1320.88 343.257 1318.77 342.229C1316.72 341.202 1315.05 339.84 1313.77 338.145C1312.48 336.398 1311.84 334.446 1311.84 332.288C1311.84 328.795 1313.25 325.995 1316.08 323.888C1318.9 321.782 1322.58 320.42 1327.1 319.804L1339.27 318.109V315.411C1339.27 312.688 1338.43 310.556 1336.73 309.015C1335.09 307.422 1332.44 306.626 1328.79 306.626C1326.12 306.626 1323.96 307.166 1322.32 308.244C1320.68 309.272 1319.54 310.633 1318.93 312.329C1318.67 313.099 1318.18 313.485 1317.46 313.485H1316.23C1315.61 313.485 1315.18 313.331 1314.92 313.022C1314.66 312.663 1314.54 312.252 1314.54 311.789C1314.54 311.07 1314.79 310.171 1315.31 309.092C1315.87 308.013 1316.72 306.96 1317.85 305.933C1318.98 304.854 1320.44 303.955 1322.24 303.235C1324.04 302.516 1326.22 302.156 1328.79 302.156C1331.82 302.156 1334.32 302.567 1336.27 303.389C1338.27 304.211 1339.81 305.29 1340.89 306.626C1342.02 307.91 1342.82 309.349 1343.28 310.942C1343.74 312.534 1343.97 314.101 1343.97 315.642V341.305C1343.97 341.818 1343.82 342.229 1343.51 342.538C1343.2 342.846 1342.79 343 1342.28 343H1340.97C1340.45 343 1340.04 342.846 1339.74 342.538C1339.43 342.229 1339.27 341.818 1339.27 341.305V337.683C1338.66 338.607 1337.78 339.532 1336.65 340.457C1335.52 341.382 1334.06 342.178 1332.26 342.846C1330.51 343.462 1328.3 343.771 1325.63 343.771ZM1326.4 339.301C1328.77 339.301 1330.92 338.787 1332.88 337.76C1334.83 336.732 1336.37 335.165 1337.5 333.059C1338.68 330.901 1339.27 328.204 1339.27 324.967V322.347L1329.33 323.734C1325.12 324.299 1321.93 325.275 1319.78 326.663C1317.62 328.05 1316.54 329.796 1316.54 331.903C1316.54 333.598 1317.03 334.985 1318 336.064C1318.98 337.143 1320.21 337.965 1321.7 338.53C1323.24 339.044 1324.81 339.301 1326.4 339.301ZM1357.86 343C1357.34 343 1356.93 342.846 1356.62 342.538C1356.31 342.229 1356.16 341.818 1356.16 341.305V304.391C1356.16 303.98 1356.31 303.646 1356.62 303.389C1356.98 303.081 1357.34 302.927 1357.7 302.927H1359.47C1360.24 302.927 1360.84 303.312 1361.25 304.083L1375.5 331.055L1389.76 304.083C1390.17 303.312 1390.76 302.927 1391.53 302.927H1393.3C1393.72 302.927 1394.08 303.081 1394.38 303.389C1394.69 303.646 1394.85 303.98 1394.85 304.391V341.305C1394.85 341.818 1394.69 342.229 1394.38 342.538C1394.08 342.846 1393.66 343 1393.15 343H1391.84C1391.33 343 1390.92 342.846 1390.61 342.538C1390.3 342.229 1390.15 341.818 1390.15 341.305V308.167H1392.38L1378.89 334.292C1378.64 334.806 1378.33 335.294 1377.97 335.756C1377.61 336.218 1377.04 336.45 1376.27 336.45H1374.73C1373.96 336.45 1373.4 336.218 1373.04 335.756C1372.68 335.294 1372.37 334.806 1372.11 334.292L1359.01 309.632H1360.86V341.305C1360.86 341.818 1360.71 342.229 1360.4 342.538C1360.09 342.846 1359.68 343 1359.17 343H1357.86ZM1408.88 343C1408.47 343 1408.11 342.846 1407.8 342.538C1407.49 342.229 1407.34 341.87 1407.34 341.459V304.622C1407.34 304.109 1407.49 303.698 1407.8 303.389C1408.11 303.081 1408.52 302.927 1409.03 302.927H1410.34C1410.85 302.927 1411.27 303.081 1411.57 303.389C1411.88 303.698 1412.04 304.109 1412.04 304.622V339.224L1410.65 336.989L1435.77 304.083C1436.03 303.775 1436.29 303.518 1436.54 303.312C1436.85 303.055 1437.26 302.927 1437.78 302.927H1439.24C1439.65 302.927 1440.01 303.081 1440.32 303.389C1440.63 303.646 1440.78 303.98 1440.78 304.391V341.305C1440.78 341.818 1440.63 342.229 1440.32 342.538C1440.01 342.846 1439.6 343 1439.09 343H1437.78C1437.26 343 1436.85 342.846 1436.54 342.538C1436.23 342.229 1436.08 341.818 1436.08 341.305V309.015L1437.7 308.63L1412.34 341.844C1412.14 342.101 1411.88 342.358 1411.57 342.615C1411.27 342.872 1410.85 343 1410.34 343H1408.88ZM1455.01 331.98C1454.5 331.98 1454.09 331.826 1453.78 331.518C1453.47 331.209 1453.32 330.798 1453.32 330.285V290.751C1453.32 290.237 1453.47 289.826 1453.78 289.518C1454.09 289.21 1454.5 289.056 1455.01 289.056H1456.32C1456.84 289.056 1457.25 289.21 1457.56 289.518C1457.87 289.826 1458.02 290.237 1458.02 290.751V330.285C1458.02 330.798 1457.87 331.209 1457.56 331.518C1457.25 331.826 1456.84 331.98 1456.32 331.98H1455.01ZM1454.17 343C1453.65 343 1453.24 342.846 1452.93 342.538C1452.63 342.229 1452.47 341.818 1452.47 341.305V338.376C1452.47 337.862 1452.63 337.451 1452.93 337.143C1453.24 336.784 1453.65 336.604 1454.17 336.604H1457.1C1457.61 336.604 1458.02 336.784 1458.33 337.143C1458.69 337.451 1458.87 337.862 1458.87 338.376V341.305C1458.87 341.818 1458.69 342.229 1458.33 342.538C1458.02 342.846 1457.61 343 1457.1 343H1454.17Z" fill="#B9B9B9"/>
<defs>
<linearGradient id="paint0_linear_10_32" x1="358.5" y1="15" x2="8.32902e-05" y2="428" gradientUnits="userSpaceOnUse">
<stop offset="0.9999" stop-color="#0054F9"/>
<stop offset="1" stop-color="#EBFF00"/>
</linearGradient>
<clipPath id="clip0_10_32">
<rect width="376" height="435" fill="white"/>
</clipPath>
</defs>
</svg>
