<svg width="80" height="47" viewBox="0 0 80 47" fill="none" xmlns="http://www.w3.org/2000/svg">
<g clip-path="url(#clip0)">
<path d="M28.1604 0H34.0915L25.5079 11.9647L34.2574 24.9244H28.0594L20.1722 12.6958H20.1049V24.9244H15.1334V0H20.1049V11.6992H20.1722L28.1604 0Z" fill="#252322"/>
<path d="M46.8542 22.7039H46.7884C45.1968 24.7924 42.9431 25.3874 40.9557 25.3874C38.2697 25.3874 34.9891 24.0624 34.9891 20.1845C34.9891 18.3628 35.5858 15.3461 42.249 14.9496L46.6546 14.6836V13.8888C46.6546 11.8671 45.3964 10.8733 43.3091 10.8733C41.3529 10.8733 40.192 11.8671 40.0931 13.392H35.5199C35.6849 10.7716 37.5418 7.42285 43.5065 7.42285C47.7164 7.42285 51.2303 9.01683 51.2303 12.927V22.8052C51.2303 23.6996 51.3297 24.2958 51.4597 24.925H46.8538V22.7044L46.8542 22.7039ZM46.6548 17.499L42.6783 17.8643C40.4907 18.0642 39.7615 18.727 39.7615 19.9547C39.7615 21.4793 41.1551 21.9421 42.7449 21.9421C44.2367 21.9421 46.6546 21.1139 46.6546 19.0602V17.499H46.6548Z" fill="#252322"/>
<path d="M54.8757 0H59.6497V24.9244H54.8757V0Z" fill="#252322"/>
<path d="M67.5373 17.7673C67.7365 19.7524 68.9609 21.7424 71.5155 21.7424C72.9731 21.7424 74.2671 21.0467 74.9277 19.7219L79.5697 20.0854C78.41 23.5668 75.2937 25.3876 71.2846 25.3876C66.146 25.3876 62.5653 21.8751 62.5653 16.4402C62.5653 10.9382 66.1463 7.42236 71.2846 7.42236C76.4207 7.42236 80.0002 10.9382 80.0002 16.4402V17.7675H67.5375L67.5373 17.7673ZM75.2281 14.7164C75.0622 13.0594 73.7998 11.0706 71.5155 11.0706C69.0303 11.0706 67.803 12.7948 67.5373 14.7164H75.2281Z" fill="#252322"/>
<path d="M10.2983 0.000488281H8.2401V1.34982H6.18189V0.000488281H4.12415V1.34982H2.06454V0.000488281H0.00656152L0 10.2695H10.2936L10.2983 0.000488281Z" fill="#E31E24"/>
<path d="M25.0678 32.0842H22.3455V33.486C21.5735 32.3078 20.6795 31.7997 19.2168 31.7997C16.4537 31.7997 14.6254 33.9125 14.6254 37.1021C14.6254 40.2512 16.3726 42.2625 19.0949 42.2625C20.4764 42.2625 21.5126 41.7343 22.3049 40.6372L22.2845 41.8154C22.2644 43.5017 21.8986 44.5377 19.9686 44.5377C18.709 44.5377 18.0791 44.1314 17.8557 43.1969H14.9912C15.2757 45.391 16.8807 46.4678 19.9076 46.4678C23.3208 46.4678 25.0678 44.9645 25.0678 41.47V32.084V32.0842ZM19.8872 34.0346C21.4109 34.0346 22.3253 35.152 22.3253 37.0211C22.3253 38.9307 21.3908 40.109 19.9076 40.109C18.4043 40.109 17.4696 38.9307 17.4696 37.082C17.4696 35.1721 18.3636 34.0346 19.8872 34.0346ZM37.1761 42.5674C36.7902 41.6736 36.8106 40.6779 36.8106 39.7232V35.1927C36.8106 32.2672 34.3523 31.7796 32.2395 31.7796C29.2126 31.7796 27.5466 32.9782 27.384 35.3146H30.0862C30.2894 34.1159 30.8379 33.7096 32.1585 33.7096C33.4384 33.7096 34.0479 34.1565 34.0479 35.1114C34.0479 35.9646 33.3571 36.1273 31.488 36.371C29.4157 36.6351 26.917 36.9601 26.917 39.7028C26.917 41.6734 28.3389 42.8721 30.6552 42.8721C31.9147 42.8721 33.1539 42.4453 34.0479 41.5516C34.0885 42.0188 34.1089 42.1812 34.2511 42.5674H37.1766H37.1761ZM34.0271 37.4682V38.6464C34.0271 40.1497 32.9707 40.9828 31.4674 40.9828C30.4719 40.9828 29.8828 40.4546 29.8828 39.581C29.8828 38.301 31.0003 38.1792 31.9956 38.0165C32.727 37.8947 33.3569 37.8539 34.0271 37.4679V37.4682ZM42.0518 28.1025H39.1669V42.5674H42.0518V28.1025ZM47.2933 28.1025H44.4083V42.5674H47.2933V28.1025ZM59.422 39.3169H56.6592C56.2324 40.3733 55.5824 40.8406 54.526 40.8406C52.9819 40.8406 52.1083 39.8655 52.0677 38.0573H59.5847V37.7731C59.5847 34.0958 57.5733 31.7798 54.4041 31.7798C51.3568 31.7798 49.1423 34.1366 49.1423 37.3871C49.1423 40.6782 51.2754 42.8723 54.5056 42.8723C56.8825 42.8723 58.772 41.5923 59.422 39.3171V39.3169ZM56.6592 36.229H52.0677C52.2304 34.7662 53.1242 33.8722 54.4041 33.8722C55.8465 33.8722 56.5373 34.949 56.6592 36.229ZM68.0362 31.9017C67.7517 31.8609 67.6298 31.8407 67.4065 31.8407C65.842 31.8407 64.6638 32.6534 64.0137 34.0145V32.0844H61.271V42.5674H64.156V37.7728C64.156 35.8629 64.9279 34.441 66.9188 34.441C67.2438 34.441 67.5283 34.4614 68.0362 34.5628V31.9014V31.9017ZM79.6772 32.0844H76.6908L74.3748 39.2051L71.9775 32.0844H68.8692L72.6684 42.0833C72.7091 42.2051 72.7497 42.3881 72.7497 42.4896C72.7497 43.3632 72.2416 43.8879 71.2869 43.8879H69.8851V46.2648C71.2869 46.285 70.9213 46.285 71.8151 46.285C74.4765 46.285 74.9642 44.8222 75.8174 42.5095L79.6775 32.084L79.6772 32.0844Z" fill="#252322"/>
</g>
<defs>
<clipPath id="clip0">
<rect width="80" height="46.4682" fill="white"/>
</clipPath>
</defs>
</svg>
