<svg id="bigLogo" width="184" height="33" viewBox="0 0 184 33" xmlns="http://www.w3.org/2000/svg">
                  <path fill-rule="evenodd" clip-rule="evenodd" d="M34.8815 16.0218C37.4676 17.2077 39.2703 19.7842 39.2703 22.7535V23.97C39.2703 28.0553 35.8593 31.397 31.6902 31.397H0V13.0085H28.2319C29.4464 13.0085 30.4399 12.0355 30.4399 10.8457C30.4399 9.65587 29.4464 8.68269 28.2319 8.68269H0L6.18356 1.03367H31.9085C35.958 1.03367 39.2703 4.27908 39.2703 8.24533V9.42779C39.2703 12.3598 37.4606 14.8966 34.8815 16.0218ZM9.62062 19.2668H28.0742C29.2887 19.2668 30.2821 20.2399 30.2821 21.43C30.2821 22.6196 29.2887 23.5938 28.0742 23.5938H9.62062V19.2668ZM57.0302 0C48.0005 0 40.6126 7.23759 40.6126 16.0851C40.6126 24.931 48.0005 32.1691 57.0302 32.1691H70.1062V23.6709H57.1733C52.7922 23.6709 49.2084 20.1592 49.2084 15.8671C49.2084 11.5751 52.7922 8.06429 57.1733 8.06429H72.6297V32.1691H81.2258V8.06429H90.0578V0C79.0485 0 68.0394 0 57.0302 0Z"></path>
                  <path fill-rule="evenodd" clip-rule="evenodd" d="M96 18H100.853C100.853 18 102.8 20.3629 103.022 24.1013V25.4755C102.917 27.2765 102.386 29.3283 101.104 31.5426H96V18ZM98.0174 21.6669H100.051C100.051 21.6669 101.844 25.0457 100.051 28.1388H98.0174V21.6669ZM110.686 18H103.679C103.679 22.5144 103.679 27.0283 103.679 31.5426C106.042 31.5426 108.406 31.5426 110.769 31.5426V28.1764H105.848V27.2465H110.185V22.9195H105.848V21.629H110.686V18ZM118.526 31.5426V24.0015C118.526 20.0344 116.379 18 116.379 18H111.353V31.5426H113.521V21.6667H115.503C115.503 21.6667 116.379 22.5776 116.379 23.754V31.5426H118.526ZM121.332 18H119.184V31.5426H121.332V18ZM136.65 18H141.503C141.503 18 143.45 20.3629 143.672 24.1013V25.4755C143.567 27.2765 143.036 29.3283 141.753 31.5426H136.65V18ZM138.667 21.6669H140.701C140.701 21.6669 142.494 25.0457 140.701 28.1388H138.667V21.6669ZM146.406 18H144.258V31.5426H146.406V18ZM154.167 18V25.5417C154.167 29.508 152.019 31.5426 152.019 31.5426H146.994V18H149.163V27.8758H151.144C151.144 27.8758 152.019 26.9654 152.019 25.7883V18H154.167ZM156.707 18H154.559V31.5426H156.707V18ZM167.8 18H165.652V31.5426H167.8V18ZM184 31.5426V24.0015C184 20.0344 181.852 18 181.852 18H176.827V31.5426H178.996V21.6667H180.977C180.977 21.6667 181.852 22.5776 181.852 23.754V31.5426H184ZM130.662 31.5426V24.0015C130.662 20.0344 128.514 18 128.514 18H127.474H122.052V31.5426H124.18V21.4386H125.264V31.5426H127.474V21.6667H127.638C127.638 21.6667 128.514 22.5776 128.514 23.754V31.5426H130.662ZM170.408 18C171.661 18 172.997 18 174.251 18C174.251 18 178.661 23.8084 174.49 31.5426C173.237 31.5426 171.562 31.5426 170.309 31.5426C165.721 23.7132 170.408 18 170.408 18ZM171.689 21.6707C172.12 21.6707 172.551 21.6707 172.982 21.6707C172.982 21.6707 174.077 22.1257 174.077 23.7483V26.1299C174.077 27.4486 173.096 28.1416 173.096 28.1416C172.589 28.1416 172.081 28.1416 171.574 28.1416C171.574 28.1416 170.594 27.4486 170.594 26.1299V23.7483C170.594 22.1257 171.689 21.6707 171.689 21.6707ZM165.1 18H158.72L158.717 18.004L158.711 18.0144L158.7 18.0323L158.699 18.0346L158.686 18.0574L158.684 18.06L158.667 18.0895L158.665 18.0936L158.645 18.1275L158.642 18.1334L158.62 18.1723L158.616 18.1807L158.593 18.2238L158.569 18.267L158.562 18.2812L158.555 18.2941L158.528 18.3444C158.495 18.4098 158.457 18.4831 158.418 18.5652L158.414 18.5736L158.376 18.6524L158.373 18.6583C158.348 18.7126 158.322 18.7696 158.295 18.8287L158.282 18.8569C157.57 20.4583 156.482 24.0033 159.099 26.9174C159.184 27.013 159.273 27.1073 159.367 27.2022H162.922V28.151H157.428V31.5426H164.058C166.769 24.7434 163.016 22.9505 163.016 22.9505H159.596V21.6791H165.1V18Z"></path>
                </svg>