<svg width="120" height="66" viewBox="0 0 120 66" fill="none" xmlns="http://www.w3.org/2000/svg">
<path d="M7.48545 48.5508L12.4772 44.5083H13.9347V55.4155H10.6953V49.8009L7.48545 52.4211L4.26293 49.8309V55.4155H1.02356V44.5083H2.48107L7.48545 48.5508Z" fill="#3B3B3B"/>
<path d="M22.2838 44.5083C23.4977 44.5054 24.6853 44.8223 25.6965 45.4191C26.7076 46.0159 27.4969 46.8657 27.9645 47.8611C28.4321 48.8565 28.5571 49.9527 28.3235 51.0112C28.09 52.0696 27.5084 53.0428 26.6524 53.8076C25.7965 54.5724 24.7045 55.0944 23.5146 55.3078C22.3246 55.5211 21.0903 55.4161 19.9675 55.0061C18.8448 54.596 17.884 53.8994 17.2069 53.0042C16.5297 52.109 16.1665 51.0555 16.1631 49.9769C16.1631 48.5317 16.8069 47.1453 17.9538 46.1206C19.1007 45.0959 20.6574 44.5162 22.2838 44.5083V44.5083ZM22.2838 47.3605C21.7006 47.3605 21.1305 47.5142 20.6456 47.8021C20.1607 48.09 19.7828 48.4992 19.5596 48.978C19.3364 49.4567 19.278 49.9835 19.3918 50.4918C19.5056 51 19.7864 51.4669 20.1988 51.8333C20.6112 52.1998 21.1366 52.4493 21.7086 52.5504C22.2806 52.6515 22.8734 52.5996 23.4123 52.4013C23.9511 52.203 24.4116 51.8672 24.7356 51.4363C25.0596 51.0054 25.2325 50.4988 25.2325 49.9806C25.2359 49.6357 25.1619 49.2937 25.015 48.9744C24.868 48.6552 24.6509 48.3651 24.3764 48.1212C24.1019 47.8773 23.7755 47.6845 23.4162 47.5539C23.057 47.4232 22.672 47.3575 22.2838 47.3605V47.3605Z" fill="#3B3B3B"/>
<path d="M39.6813 55.4155L33.8891 50.2539V55.4155H30.6624V44.5083H31.9725L37.7857 49.6587V44.5083H41.0082V55.4155H39.6813Z" fill="#3B3B3B"/>
<path d="M43.2197 44.4937H52.9083V47.3458H49.6521V55.4158H46.4254V47.3458H43.2197V44.4937Z" fill="#3B3B3B"/>
<path d="M62.4833 55.4155V44.5083H67.9005C68.8618 44.5247 69.7783 44.8723 70.4565 45.4778C71.1348 46.0833 71.5218 46.8993 71.5358 47.7535C71.528 48.4672 71.2506 49.158 70.7481 49.7149C71.3412 50.1214 71.7759 50.683 71.9909 51.3206C72.206 51.9582 72.1906 52.6397 71.9468 53.2691C71.7031 53.8985 71.2434 54.4441 70.6324 54.8291C70.0214 55.2142 69.2898 55.4193 68.5408 55.4155H62.4833ZM67.2644 48.7716C67.5471 48.7716 67.8181 48.6718 68.018 48.4942C68.2179 48.3167 68.3302 48.0758 68.3302 47.8246C68.3302 47.5735 68.2179 47.3326 68.018 47.155C67.8181 46.9774 67.5471 46.8776 67.2644 46.8776H65.7142V48.7716H67.2644ZM67.8668 53.0611C68.1494 53.0611 68.4205 52.9614 68.6204 52.7838C68.8203 52.6062 68.9325 52.3653 68.9325 52.1141C68.9271 51.8648 68.8129 51.6272 68.6141 51.4512C68.4153 51.2752 68.1474 51.1747 67.8668 51.1709H65.7142V53.0424L67.8668 53.0611Z" fill="#3B3B3B"/>
<path d="M74.0717 44.5083H77.2942V52.5371H81.7214V55.4155H74.0717V44.5083Z" fill="#3B3B3B"/>
<path d="M83.2042 55.4155L88.9331 44.5083H90.3907L96.1659 55.4155H92.9434L92.1894 53.9894H87.1639L86.431 55.4155H83.2042ZM88.4277 51.5751H90.9298L89.6661 49.1759L88.4277 51.5751Z" fill="#3B3B3B"/>
<path d="M106.823 55.4155L101.027 50.2539V55.4155H97.8046V44.5083H99.1146L104.924 49.6587V44.5083H108.15V55.4155H106.823Z" fill="#3B3B3B"/>
<path d="M117.708 48.1166C117.435 47.8815 117.112 47.6972 116.757 47.5744C116.403 47.4516 116.025 47.3929 115.644 47.4017C115.266 47.4017 114.891 47.4679 114.542 47.5966C114.192 47.7253 113.874 47.9139 113.607 48.1516C113.339 48.3893 113.127 48.6716 112.982 48.9822C112.838 49.2928 112.763 49.6257 112.763 49.962C112.763 50.2982 112.838 50.6311 112.982 50.9417C113.127 51.2523 113.339 51.5346 113.607 51.7723C113.874 52.01 114.192 52.1986 114.542 52.3273C114.891 52.456 115.266 52.5222 115.644 52.5222C116.026 52.5316 116.405 52.4721 116.76 52.3473C117.115 52.2225 117.438 52.0349 117.708 51.796L120 53.8023C119.288 54.4398 118.411 54.9113 117.445 55.175C116.479 55.4387 115.455 55.4864 114.463 55.3139C113.471 55.1414 112.543 54.754 111.76 54.1861C110.978 53.6182 110.365 52.8874 109.976 52.0585C109.588 51.2296 109.436 50.3283 109.533 49.4346C109.631 48.541 109.976 47.6826 110.536 46.9356C111.097 46.1887 111.857 45.5763 112.748 45.1529C113.639 44.7294 114.634 44.5081 115.644 44.5084C116.447 44.505 117.243 44.6436 117.985 44.916C118.727 45.1885 119.4 45.5894 119.966 46.0954L117.708 48.1166Z" fill="#3B3B3B"/>
<path d="M83.2675 31.1535L88.3225 27.0698H89.7926V38.0856H86.5195V32.4298L83.2802 35.05L80.0239 32.4298V38.0856H76.7509V27.0698H78.221L83.2675 31.1535Z" fill="#DA291C"/>
<path d="M92.2778 38.0856V27.0698H97.754C98.7242 27.0862 99.6493 27.437 100.334 28.0481C101.018 28.6592 101.409 29.4828 101.423 30.345C101.414 31.066 101.135 31.7638 100.631 32.3288C101.229 32.7402 101.666 33.3077 101.882 33.9514C102.098 34.5951 102.082 35.2828 101.836 35.9179C101.59 36.553 101.126 37.1036 100.509 37.4923C99.8926 37.8811 99.1545 38.0886 98.3985 38.0856H92.2778ZM97.1053 31.3706C97.3902 31.3706 97.6634 31.27 97.8649 31.091C98.0663 30.912 98.1795 30.6692 98.1795 30.4161C98.1795 30.163 98.0663 29.9202 97.8649 29.7412C97.6634 29.5622 97.3902 29.4616 97.1053 29.4616H95.5341V31.3706H97.1053ZM97.7287 35.705C98.0136 35.705 98.2868 35.6044 98.4883 35.4254C98.6897 35.2464 98.8029 35.0037 98.8029 34.7505C98.7975 34.4989 98.6826 34.2589 98.4823 34.0809C98.282 33.9029 98.0119 33.8008 97.7287 33.796H95.5467V35.705H97.7287Z" fill="#DA291C"/>
<path d="M111.967 30.7119C111.69 30.4754 111.363 30.29 111.005 30.1666C110.647 30.0433 110.265 29.9843 109.882 29.9932C109.129 30.0187 108.417 30.3021 107.895 30.784C107.373 31.266 107.082 31.9089 107.082 32.5778C107.082 33.2467 107.373 33.8896 107.895 34.3716C108.417 34.8535 109.129 35.1369 109.882 35.1624C110.268 35.1695 110.652 35.1068 111.011 34.9781C111.369 34.8494 111.694 34.6574 111.967 34.4138L114.279 36.4387C113.561 37.0822 112.675 37.5582 111.7 37.8243C110.725 38.0904 109.691 38.1385 108.689 37.9643C107.688 37.7901 106.751 37.3989 105.961 36.8256C105.171 36.2522 104.552 35.5144 104.16 34.6776C103.768 33.8409 103.614 32.931 103.713 32.0288C103.812 31.1266 104.159 30.26 104.725 29.5059C105.291 28.7518 106.058 28.1335 106.958 27.7059C107.857 27.2784 108.862 27.0548 109.882 27.055C110.692 27.0527 111.494 27.1927 112.243 27.467C112.992 27.7413 113.673 28.1444 114.246 28.6532L111.967 30.7119Z" fill="#DA291C"/>
<path d="M116.744 27.0698H120V38.0856H116.744V27.0698Z" fill="#DA291C"/>
<path d="M4.87379 63.9461C4.76184 64.3103 4.50616 64.6265 4.15346 64.8369C3.78403 65.0422 3.35479 65.1464 2.91922 65.1364C2.61948 65.1509 2.3197 65.1083 2.04 65.0115C1.76029 64.9146 1.50711 64.7658 1.29742 64.5749C0.90971 64.134 0.699097 63.5905 0.699097 63.0309C0.699097 62.4714 0.90971 61.9279 1.29742 61.4869C1.50531 61.2968 1.75626 61.1482 2.03367 61.0507C2.31108 60.9533 2.60861 60.9093 2.90658 60.9217C3.3326 60.91 3.75396 61.0033 4.12398 61.1912C4.4573 61.3693 4.70257 61.6528 4.81061 61.9848L3.93863 62.3104C3.88963 62.1065 3.76683 61.9224 3.589 61.7864C3.40222 61.6695 3.17684 61.6116 2.9487 61.6217C2.77325 61.6152 2.59856 61.6458 2.43895 61.7108C2.27933 61.7759 2.13933 61.8736 2.03039 61.996C1.78507 62.2948 1.66309 62.6597 1.68497 63.0291C1.65947 63.3978 1.77204 63.7637 2.00512 64.0696C2.11133 64.1928 2.24963 64.2913 2.40812 64.3565C2.56662 64.4217 2.74057 64.4517 2.915 64.4439C3.16128 64.4613 3.40599 64.3965 3.60146 64.2623C3.79692 64.128 3.92913 63.9339 3.97233 63.7178L4.87379 63.9461Z" fill="#323131"/>
<path d="M6.0617 61.4829C6.27139 61.2921 6.52457 61.1432 6.80427 61.0464C7.08398 60.9495 7.38375 60.907 7.68349 60.9215C7.98254 60.9075 8.2815 60.9504 8.56043 61.0472C8.83937 61.144 9.09186 61.2925 9.30107 61.4829C9.68637 61.9255 9.89542 62.4692 9.89542 63.0288C9.89542 63.5883 9.68637 64.1321 9.30107 64.5747C9.09186 64.765 8.83937 64.9136 8.56043 65.0104C8.2815 65.1072 7.98254 65.1501 7.68349 65.1361C7.38375 65.1506 7.08398 65.108 6.80427 65.0112C6.52457 64.9144 6.27139 64.7655 6.0617 64.5747C5.67434 64.1329 5.46399 63.5888 5.46399 63.0288C5.46399 62.4687 5.67434 61.9247 6.0617 61.4829ZM7.68349 61.6214C7.50989 61.6152 7.33714 61.646 7.17962 61.7111C7.02209 61.7762 6.88433 61.8738 6.77782 61.9957C6.57068 62.313 6.46159 62.6732 6.46159 63.04C6.46159 63.4068 6.57068 63.7671 6.77782 64.0843C6.88362 64.207 7.02124 64.3051 7.17894 64.3703C7.33664 64.4354 7.50975 64.4658 7.68349 64.4586C7.85588 64.4649 8.02743 64.4341 8.18361 64.3689C8.33979 64.3038 8.47601 64.2062 8.58074 64.0843C8.78787 63.7671 8.89696 63.4068 8.89696 63.04C8.89696 62.6732 8.78787 62.313 8.58074 61.9957C8.4753 61.8746 8.33895 61.7775 8.18294 61.7124C8.02693 61.6473 7.85573 61.6161 7.68349 61.6214V61.6214Z" fill="#323131"/>
<path d="M15.8683 60.9856V65.0767H15.0047V62.9432L15.0469 61.7492L13.7831 65.0767H12.9701L11.7064 61.7492L11.7569 62.9432V65.0767H10.8639V60.9856H12.2582L13.1007 63.2314L13.3914 64.1559L13.6904 63.2389L14.5329 60.9931L15.8683 60.9856Z" fill="#323131"/>
<path d="M22.0774 60.9856V65.0767H21.235V62.9432L21.2771 61.7492L20.0133 65.0767H19.1751L17.9113 61.7492L17.9577 62.9432V65.0767H17.0688V60.9856H18.4632L19.3057 63.2314L19.6005 64.1559L19.8996 63.2389L20.7421 60.9931L22.0774 60.9856Z" fill="#323131"/>
<path d="M23.6445 61.4833C24.0861 61.1224 24.6642 60.9221 25.2642 60.9221C25.8642 60.9221 26.4423 61.1224 26.8839 61.4833C27.2665 61.9269 27.4738 62.4703 27.4738 63.0292C27.4738 63.5881 27.2665 64.1314 26.8839 64.575C26.4423 64.9359 25.8642 65.1362 25.2642 65.1362C24.6642 65.1362 24.0861 64.9359 23.6445 64.575C23.2572 64.1333 23.0468 63.5892 23.0468 63.0292C23.0468 62.4691 23.2572 61.9251 23.6445 61.4833ZM25.2621 61.6218C25.0891 61.6156 24.917 61.6463 24.7601 61.7115C24.6033 61.7766 24.4663 61.8742 24.3606 61.9961C24.1535 62.3134 24.0444 62.6736 24.0444 63.0404C24.0444 63.4072 24.1535 63.7675 24.3606 64.0847C24.4725 64.199 24.6107 64.2906 24.7659 64.3534C24.921 64.4162 25.0895 64.4487 25.26 64.4487C25.4305 64.4487 25.599 64.4162 25.7541 64.3534C25.9093 64.2906 26.0474 64.199 26.1594 64.0847C26.3665 63.7675 26.4756 63.4072 26.4756 63.0404C26.4756 62.6736 26.3665 62.3134 26.1594 61.9961C26.0559 61.8759 25.9217 61.7792 25.7679 61.7141C25.6141 61.649 25.445 61.6174 25.2747 61.6218H25.2621Z" fill="#323131"/>
<path d="M30.2243 60.9854C30.5312 60.9667 30.8391 61.0042 31.1289 61.0957C31.4188 61.1871 31.6844 61.3305 31.9093 61.5169C32.2941 61.9468 32.5036 62.4798 32.5036 63.0291C32.5036 63.5783 32.2941 64.1114 31.9093 64.5413C31.6847 64.7283 31.4193 64.8724 31.1294 64.9645C30.8395 65.0566 30.5315 65.0947 30.2243 65.0765H28.4424V60.9854H30.2243ZM30.1738 64.3915C30.3591 64.4054 30.5455 64.3812 30.7186 64.3208C30.8917 64.2605 31.0469 64.1656 31.1721 64.0434C31.3907 63.7415 31.5069 63.39 31.5069 63.0309C31.5069 62.6719 31.3907 62.3204 31.1721 62.0185C31.049 61.8968 30.8961 61.8018 30.7253 61.7408C30.5544 61.6798 30.37 61.6544 30.1864 61.6666H29.4071V64.3803L30.1738 64.3915Z" fill="#323131"/>
<path d="M34.4199 60.9856V65.0767H33.4595V60.9856H34.4199Z" fill="#323131"/>
<path d="M39.26 60.9856V61.6743H37.7183V65.0767H36.7578V61.6743H35.2076V60.9856H39.26Z" fill="#323131"/>
<path d="M41.0124 60.9856V65.0767H40.0477V60.9856H41.0124Z" fill="#323131"/>
<path d="M43.1734 64.3805H45.7598V65.0692H42.2087V60.9856H45.6629V61.6743H43.1734V62.6887H45.1322V63.3474H43.1734V64.3805Z" fill="#323131"/>
<path d="M48.3083 60.9217C48.6861 60.9132 49.0614 60.9783 49.4077 61.1126C49.7292 61.2494 50.0071 61.4552 50.2165 61.7114L49.5552 62.2879C49.4477 62.075 49.2682 61.8972 49.0417 61.7791C48.8152 61.6611 48.553 61.6086 48.2914 61.6291C48.0658 61.6164 47.8411 61.6647 47.6469 61.7676C47.5746 61.806 47.5152 61.861 47.4752 61.9269C47.4352 61.9928 47.4159 62.0671 47.4195 62.1419C47.4189 62.2116 47.4403 62.2802 47.4813 62.3397C47.5222 62.3992 47.581 62.4474 47.6512 62.4788C47.9166 62.592 48.2012 62.6653 48.4936 62.6959C48.9654 62.7465 49.4171 62.8953 49.8121 63.13C49.9424 63.2251 50.0455 63.3462 50.1128 63.4835C50.1802 63.6208 50.21 63.7703 50.1997 63.9198C50.2053 64.0966 50.1604 64.2718 50.069 64.4289C49.9777 64.586 49.8429 64.72 49.6773 64.8182C49.2725 65.0524 48.7951 65.1676 48.3125 65.1475C47.8813 65.1621 47.4513 65.0984 47.0488 64.9604C46.7329 64.8378 46.4616 64.6395 46.2653 64.3877L46.8382 63.7776C46.972 64.0022 47.177 64.187 47.4279 64.3091C47.6923 64.4149 47.9806 64.4648 48.2704 64.4551C48.8812 64.4551 49.1845 64.2941 49.1845 63.9722C49.1813 63.9119 49.1591 63.8536 49.1203 63.8039C49.0816 63.7543 49.0279 63.7153 48.9654 63.6915C48.7165 63.5896 48.4528 63.5191 48.1819 63.4819C47.6931 63.4194 47.2257 63.2622 46.8129 63.0215C46.676 62.9282 46.5664 62.8071 46.4931 62.6684C46.4198 62.5297 46.385 62.3774 46.3916 62.2242C46.3875 62.0452 46.4316 61.8678 46.5202 61.707C46.6089 61.5462 46.7396 61.4065 46.9013 61.2997C47.304 61.0277 47.8034 60.8935 48.3083 60.9217V60.9217Z" fill="#323131"/>
<path d="M57.0871 64.53L56.9691 65.1364C56.7634 65.1411 56.5582 65.1145 56.3625 65.0578C56.1507 64.9764 55.9568 64.8623 55.7897 64.7209C55.4157 65.0061 54.934 65.1546 54.4417 65.1364C54.0394 65.1525 53.6425 65.0498 53.3127 64.8445C53.1759 64.7512 53.0662 64.6301 52.9929 64.4914C52.9196 64.3527 52.8848 64.2003 52.8915 64.0472C52.8915 63.5232 53.2158 63.1339 53.8941 62.8868C53.7353 62.7308 53.602 62.5556 53.4981 62.3666C53.4265 62.2241 53.3906 62.0696 53.3928 61.9137C53.3922 61.7833 53.4218 61.6542 53.4798 61.5344C53.5378 61.4147 53.6229 61.3068 53.7298 61.2175C53.8573 61.1153 54.0064 61.0366 54.1683 60.9858C54.3303 60.9351 54.5019 60.9133 54.6733 60.9218C55.0073 60.9047 55.3372 60.9935 55.6043 61.1725C55.7163 61.2535 55.8055 61.3565 55.8647 61.4735C55.924 61.5905 55.9516 61.7181 55.9455 61.8463C55.9492 62.0741 55.871 62.297 55.7223 62.4826C55.5219 62.7003 55.2624 62.8691 54.9682 62.9729L55.36 63.3697L55.8613 63.8788C56.0184 63.5849 56.088 63.2601 56.0635 62.9355L56.7248 62.9692C56.7532 63.4319 56.5949 63.8885 56.2783 64.2568C56.3941 64.3568 56.5298 64.4367 56.6785 64.4926C56.8102 64.5303 56.9494 64.5431 57.0871 64.53ZM53.7171 63.9836C53.7145 64.059 53.7313 64.134 53.7664 64.2028C53.8014 64.2716 53.8537 64.3323 53.9193 64.3803C54.0832 64.4887 54.2838 64.5442 54.488 64.5375C54.7836 64.5382 55.0741 64.4698 55.3305 64.3391C55.1578 64.1782 54.9893 64.0135 54.8208 63.8451C54.5049 63.5381 54.3153 63.3472 54.2437 63.2724C54.0743 63.3659 53.9246 63.4849 53.8014 63.6242C53.7312 63.7332 53.7004 63.8586 53.7129 63.9836H53.7171ZM54.686 61.5169C54.6232 61.5142 54.5604 61.5232 54.5017 61.5431C54.443 61.5631 54.3895 61.5937 54.3448 61.6329C54.2613 61.7146 54.2174 61.8222 54.2226 61.9324C54.2227 62.0304 54.2502 62.1269 54.3027 62.2131C54.3939 62.3547 54.5012 62.4876 54.6228 62.6099C54.7919 62.5231 54.9361 62.4027 55.044 62.258C55.1154 62.1436 55.1517 62.0145 55.1494 61.8837C55.1536 61.6404 54.9977 61.5169 54.6818 61.5169H54.686Z" fill="#DA291C"/>
<path d="M60.7899 60.9856V65.0767H59.8168V60.9856H60.7899Z" fill="#3B3B3B"/>
<path d="M65.9416 60.9856V65.0767H64.8422L63.2288 62.67L62.8328 61.985L62.8623 62.7074V65.0767H61.9988V60.9856H63.094L64.7032 63.3849L65.0991 64.0773L65.0697 63.3512V60.9856H65.9416Z" fill="#3B3B3B"/>
<path d="M71.1188 60.9851L69.4338 65.0762H68.3091L66.6241 60.9851H67.6435L68.6124 63.5865L68.8777 64.3913L69.1347 63.594L70.112 60.9739L71.1188 60.9851Z" fill="#3B3B3B"/>
<path d="M72.7785 64.3805H75.3649V65.0692H71.8138V60.9856H75.268V61.6743H72.7785V62.6887H74.7373V63.3474H72.7785V64.3805Z" fill="#3B3B3B"/>
<path d="M77.9303 60.9216C78.3095 60.9126 78.6862 60.9778 79.034 61.1125C79.3554 61.2493 79.6334 61.4551 79.8428 61.7113L79.1814 62.2878C79.0751 62.0781 78.8989 61.9025 78.6767 61.7847C78.4544 61.6669 78.1969 61.6125 77.9387 61.629C77.7131 61.6163 77.4884 61.6646 77.2942 61.7675C77.2219 61.8059 77.1625 61.8609 77.1225 61.9268C77.0824 61.9927 77.0632 62.067 77.0668 62.1418C77.0662 62.2116 77.0876 62.2801 77.1285 62.3396C77.1695 62.3991 77.2283 62.4473 77.2984 62.4787C77.5639 62.5919 77.8485 62.6652 78.1409 62.6958C78.6125 62.7471 79.0641 62.8958 79.4594 63.13C79.5889 63.2256 79.6914 63.3468 79.7587 63.484C79.826 63.6211 79.8563 63.7703 79.847 63.9197C79.8526 64.0965 79.8077 64.2717 79.7163 64.4288C79.625 64.5859 79.4902 64.7199 79.3246 64.8181C78.909 65.0511 78.4205 65.1599 77.9303 65.1287C77.4991 65.1433 77.0691 65.0796 76.6666 64.9416C76.3499 64.82 76.0784 64.6215 75.8831 64.3689L76.456 63.7588C76.5885 63.9842 76.7939 64.1693 77.0457 64.2903C77.3101 64.3961 77.5984 64.446 77.8882 64.4363C78.499 64.4363 78.8023 64.2753 78.8023 63.9534C78.7991 63.8931 78.7769 63.8348 78.7381 63.7851C78.6994 63.7355 78.6457 63.6965 78.5832 63.6727C78.3343 63.5708 78.0706 63.5003 77.7997 63.4631C77.3109 63.4006 76.8435 63.2434 76.4307 63.0027C76.2938 62.9094 76.1842 62.7883 76.1109 62.6496C76.0376 62.5109 76.0028 62.3586 76.0094 62.2054C76.0048 62.0267 76.0482 61.8496 76.1361 61.6887C76.2241 61.5279 76.3539 61.3881 76.5149 61.2809C76.9227 61.0138 77.4252 60.8862 77.9303 60.9216Z" fill="#3B3B3B"/>
<path d="M84.2237 60.9856V61.6743H82.6819V65.0767H81.7215V61.6743H80.1755V60.9856H84.2237Z" fill="#3B3B3B"/>
<path d="M90.0158 60.9856V65.0767H89.1522V62.9432L89.1944 61.7492L87.9306 65.0767H87.1429L85.8792 61.7492L85.9297 62.9432V65.0767H85.0577V60.9856H86.4521L87.2945 63.2314L87.5852 64.1559L87.8843 63.2389L88.7057 60.9931L90.0158 60.9856Z" fill="#3B3B3B"/>
<path d="M92.181 64.3805H94.7801V65.0692H91.229V60.9856H94.6832V61.6743H92.1937V62.6887H94.1524V63.3474H92.1937L92.181 64.3805Z" fill="#3B3B3B"/>
<path d="M99.5865 60.9856V65.0767H98.4829L96.8863 62.67L96.4651 61.985L96.4904 62.7074V65.0767H95.6479V60.9856H96.7431L98.3565 63.3849L98.7525 64.0773L98.7272 63.3512V60.9856H99.5865Z" fill="#3B3B3B"/>
<path d="M104.427 60.9856V61.6743H102.885V65.0767H101.941V61.6743H100.395V60.9856H104.427Z" fill="#3B3B3B"/>
<path d="M106.76 60.9215C107.139 60.9126 107.516 60.9778 107.864 61.1124C108.185 61.2492 108.463 61.4551 108.673 61.7113L108.011 62.2877C107.904 62.0749 107.724 61.8971 107.498 61.779C107.271 61.661 107.009 61.6085 106.748 61.629C106.522 61.6163 106.297 61.6646 106.103 61.7675C106.031 61.8059 105.971 61.8609 105.931 61.9268C105.891 61.9927 105.872 62.067 105.876 62.1418C105.875 62.2115 105.897 62.28 105.937 62.3396C105.978 62.3991 106.037 62.4472 106.107 62.4786C106.373 62.5918 106.657 62.6652 106.95 62.6957C107.422 62.7464 107.873 62.8952 108.268 63.1299C108.399 63.225 108.502 63.3461 108.569 63.4834C108.636 63.6207 108.666 63.7702 108.656 63.9197C108.662 64.0965 108.617 64.2717 108.525 64.4288C108.434 64.5859 108.299 64.7198 108.134 64.818C107.729 65.0527 107.251 65.168 106.769 65.1474C106.338 65.162 105.908 65.0983 105.505 64.9603C105.19 64.8367 104.919 64.6386 104.721 64.3876L105.294 63.7775C105.429 64.0013 105.634 64.1859 105.884 64.309C106.149 64.4145 106.437 64.4644 106.727 64.455C107.333 64.455 107.636 64.294 107.636 63.9721C107.633 63.9118 107.611 63.8534 107.572 63.8038C107.534 63.7541 107.48 63.7152 107.417 63.6914C107.169 63.5887 106.905 63.5181 106.634 63.4818C106.146 63.4206 105.68 63.2633 105.269 63.0214C105.132 62.9285 105.022 62.8075 104.948 62.6687C104.875 62.5299 104.84 62.3773 104.848 62.2241C104.843 62.0454 104.887 61.8682 104.975 61.7074C105.062 61.5466 105.192 61.4068 105.353 61.2996C105.757 61.0299 106.256 60.896 106.76 60.9215V60.9215Z" fill="#3B3B3B"/>
<path d="M114.498 65.0767L114.111 64.0773H112.342L111.967 65.0767H110.981L112.666 60.9856H113.816L115.501 65.0767H114.498ZM112.578 63.4448H113.875L113.454 62.2919L113.243 61.6743L113.045 62.2807L112.578 63.4448Z" fill="#3B3B3B"/>
<path d="M117.822 62.913H120V65.0764H119.297L119.275 64.5861C119.121 64.7739 118.915 64.9232 118.676 65.0195C118.438 65.1159 118.176 65.1561 117.915 65.1363C117.627 65.1477 117.339 65.1038 117.071 65.0076C116.804 64.9113 116.563 64.765 116.365 64.5786C115.98 64.1366 115.771 63.5935 115.771 63.0346C115.771 62.4757 115.98 61.9326 116.365 61.4906C116.577 61.2986 116.833 61.1487 117.116 61.0506C117.398 60.9526 117.7 60.9086 118.003 60.9217C118.425 60.9065 118.843 60.9904 119.216 61.165C119.547 61.3393 119.808 61.601 119.962 61.9136L119.077 62.2542C119.018 62.0578 118.883 61.8866 118.694 61.7713C118.496 61.658 118.264 61.6006 118.029 61.6067C117.851 61.5999 117.673 61.6302 117.511 61.6952C117.349 61.7602 117.206 61.8581 117.093 61.981C116.851 62.2833 116.733 62.6509 116.761 63.0215C116.73 63.3976 116.846 63.7715 117.089 64.0808C117.205 64.2055 117.353 64.3042 117.519 64.3692C117.686 64.4342 117.868 64.4636 118.05 64.4551C118.334 64.468 118.614 64.3955 118.846 64.2492C118.948 64.178 119.029 64.0861 119.082 63.9812C119.136 63.8764 119.16 63.7616 119.153 63.6466V63.553H117.805L117.822 62.913Z" fill="#3B3B3B"/>
<path d="M31.1173 32.138V28.5971H37.4908V22.9339H43.8684V17.267H50.2418V14.8415L36.8083 4.56689L1.35217 37.6029L16.9382 37.5355H31.1131L31.1173 32.138ZM37.0695 6.89506L47.2636 14.7142L38.4049 12.7267V18.0643L34.9633 13.7149L33.2783 18.7567L32.2842 13.6175L24.2258 18.8578L37.0695 6.89506Z" fill="#DA291C"/>
<path d="M72.6942 4.4917L60.6593 14.8786H60.6129V15.1406H54.2269V20.8076H47.8534V26.4745H41.4758V32.1377H35.1024V37.5239H71.38L71.3168 30.8389V24.6442H75.7904V20.437H81.9869V16.3197H90.5929L72.6942 4.4917ZM73.8822 10.8024L71.0051 13.1942L71.6538 10.5741L65.453 13.7632L72.7364 7.3364L78.6338 12.3146L73.8822 10.8024Z" fill="#DA291C"/>
<path d="M95.989 4.86621V18.1989H119.886V4.86621H95.989ZM114.031 13.1795H109.65V16.945H106.225V13.1795H101.844V10.1364H106.225V6.11638H109.65V10.1364H114.031V13.1795Z" fill="#DA291C"/>
</svg>
