<svg width="180" height="38" viewBox="0 0 180 38" fill="none" xmlns="http://www.w3.org/2000/svg">
<path d="M23.0185 8.53105L23.1517 9.82074L23.8694 8.53105L23.0185 7.00317L22.1676 8.53105L22.8853 9.82074L23.0185 8.53105Z" fill="#F79A73"/>
<path d="M23.0185 19.3437L23.205 21.1489L24.2094 19.3437L23.0185 17.2015L21.8275 19.3437L22.832 21.1489L23.0185 19.3437Z" fill="#D79B39"/>
<path d="M22.0986 5.33738L20.9406 2.81756L22.5891 5.04748L22.5077 1.893L19.278 0L19.3751 3.74212L22.0986 5.33738Z" fill="#D43A50"/>
<path d="M16.3726 5.58339L16.9728 8.34297L18.1873 5.45802L16.1485 2.31921L14.558 5.70718L16.0639 8.41192L16.3726 5.58339Z" fill="#D43A50"/>
<path d="M10.8237 13.2291L9.32874 10.4805L11.5665 12.701L10.819 9.43524L7.45142 7.80237L7.84004 11.5241L10.8237 13.2291Z" fill="#D43A50"/>
<path d="M19.9753 15.8288L17.6232 14.6864L17.8958 17.2877L19.9785 18.4787L18.9348 16.5575L20.4971 18.1088L19.9753 15.8288Z" fill="#73A241"/>
<path d="M22.1175 21.4562L20.1069 20.2605L20.1916 22.7709L21.8291 23.6704L21.1302 21.8902L22.2632 23.4589L22.1175 21.4562Z" fill="#D79B39"/>
<path d="M18.9723 20.2197L16.7189 19.5083L19.0899 19.7167L17.0198 18.0023L14.4874 19.0381L16.7487 20.7353L18.9723 20.2197Z" fill="#73A241"/>
<path d="M22.3572 13.5692L20.1022 12.7465L20.7964 15.1738L22.224 15.6095L21.1584 14.0017L22.6815 15.3885L22.3572 13.5692Z" fill="#73A241"/>
<path d="M19.209 21.6896L17.5197 22.6628L19.0069 21.2979L17.1656 21.5282L16.2441 23.5983L18.2954 23.3068L19.209 21.6896Z" fill="#73A241"/>
<path d="M5.62259 16.6923L3.073 18.2703L5.75736 19.6023L8.18943 18.3173L5.68998 18.1481L8.15025 17.5886L5.62259 16.6923Z" fill="#D43A50"/>
<path d="M8.31798 20.613L6.43125 22.2615L7.77578 20.1256L5.39543 20.9013L4.66675 24.1968L7.88391 22.6877L8.31798 20.613Z" fill="#D43A50"/>
<path d="M8.46998 14.9873L5.01462 13.7697L8.67212 14.2821L5.88277 11.8062L2.27698 13.1617L5.33117 15.5091L8.46998 14.9873Z" fill="#D43A50"/>
<path d="M13.2933 8.67518L11.2468 6.42646L13.7102 8.20977L12.5772 4.93933L8.57336 4.03357L9.91633 7.91359L13.2933 8.67518Z" fill="#D43A50"/>
<path d="M17.2706 13.0347L17.7673 12.0757L17.783 13.2384L18.8282 12.0804L18.3142 10.3018L17.0747 11.6761L17.2706 13.0347Z" fill="#F79A73"/>
<path d="M21.138 9.3772L19.5051 9.56368L20.5253 10.8534L21.9027 10.6951L21.069 10.0839L22.0202 10.2203L21.138 9.3772Z" fill="#F79A73"/>
<path d="M9.09204 18.8125L10.4663 20.052L11.825 19.8561L10.8659 19.3594L12.0287 19.3437L10.8706 18.2985L9.09204 18.8125Z" fill="#F79A73"/>
<path d="M16.0201 11.4928L13.6178 11.0885L14.5439 13.1194L16.194 13.6365L15.3948 12.5349L16.5952 13.2401L16.0201 11.4928Z" fill="#F79A73"/>
<path d="M12.632 17.3504L13.0081 18.4802L13.3403 16.9289L11.9895 15.6407L11.7874 17.3582L12.5756 18.5194L12.632 17.3504Z" fill="#F79A73"/>
<path d="M13.2871 21.9794L13.3701 20.2149L12.3578 21.3291L12.9799 19.7699L11.3173 20.9185L11.3784 23.487L13.2871 21.9794Z" fill="#F79A73"/>
<path d="M23.9384 5.33738L26.6619 3.74212L26.7591 0L23.5294 1.893L23.4479 5.04748L25.0964 2.81756L23.9384 5.33738Z" fill="#D43A50"/>
<path d="M29.6644 5.58339L29.9715 8.41192L31.479 5.70718L29.8885 2.31921L27.8497 5.45802L29.0626 8.34297L29.6644 5.58339Z" fill="#D43A50"/>
<path d="M34.4706 12.701L36.7068 10.4805L35.2134 13.2291L38.197 11.5241L38.5857 7.80237L35.2181 9.43524L34.4706 12.701Z" fill="#D43A50"/>
<path d="M28.1412 17.2877L28.4139 14.6864L26.0617 15.8288L25.5383 18.1088L27.1007 16.5575L26.0586 18.4787L28.1412 17.2877Z" fill="#73A241"/>
<path d="M25.8454 22.7709L25.9301 20.2605L23.9195 21.4562L23.7738 23.4604L24.9052 21.8902L24.2079 23.6704L25.8454 22.7709Z" fill="#D79B39"/>
<path d="M29.0172 18.0023L26.9471 19.7167L29.3181 19.5067L27.0631 20.2197L29.2868 20.7353L31.548 19.0381L29.0172 18.0023Z" fill="#73A241"/>
<path d="M23.813 15.6095L25.2406 15.1738L25.9348 12.7465L23.6798 13.5692L23.3555 15.3885L24.8771 14.0017L23.813 15.6095Z" fill="#73A241"/>
<path d="M27.7416 23.3052L29.7929 23.5967L28.8714 21.5282L27.0302 21.2979L28.5173 22.6628L26.828 21.6896L27.7416 23.3052Z" fill="#73A241"/>
<path d="M40.4144 16.6923L37.8867 17.5886L40.347 18.1481L37.8475 18.3173L40.2796 19.6023L42.964 18.2703L40.4144 16.6923Z" fill="#D43A50"/>
<path d="M38.1531 22.6877L41.3702 24.1968L40.6416 20.9013L38.2612 20.1256L39.6057 22.2615L37.719 20.613L38.1531 22.6877Z" fill="#D43A50"/>
<path d="M41.0224 13.7697L37.567 14.9873L40.7058 15.5091L43.76 13.1617L40.1542 11.8062L37.3649 14.2821L41.0224 13.7697Z" fill="#D43A50"/>
<path d="M32.7436 8.67518L36.1191 7.91359L37.4636 4.03357L33.4598 4.93933L32.3268 8.20977L34.7902 6.42646L32.7436 8.67518Z" fill="#D43A50"/>
<path d="M28.2697 12.0757L28.7665 13.0347L28.9608 11.6761L27.7213 10.3018L27.2073 12.0788L28.2525 13.24L28.2697 12.0757Z" fill="#F79A73"/>
<path d="M25.5117 10.8534L26.5303 9.56368L24.8974 9.3772L24.0167 10.2203L24.9664 10.0839L24.1343 10.6967L25.5117 10.8534Z" fill="#F79A73"/>
<path d="M36.9449 18.8125L35.1663 18.2985L34.0067 19.3437L35.171 19.3594L34.212 19.8561L35.5706 20.052L36.9449 18.8125Z" fill="#F79A73"/>
<path d="M30.017 11.4928L29.4419 13.2401L30.6423 12.5349L29.8431 13.6365L31.4932 13.1194L32.4177 11.0885L30.017 11.4928Z" fill="#F79A73"/>
<path d="M33.4614 18.5194L34.2496 17.3582L34.0475 15.6407L32.6967 16.9289L33.0289 18.4818L33.405 17.3504L33.4614 18.5194Z" fill="#F79A73"/>
<path d="M32.7499 21.9794L34.6586 23.487L34.7197 20.9185L33.057 19.7699L33.6792 21.3291L32.6653 20.2149L32.7499 21.9794Z" fill="#F79A73"/>
<path d="M43.608 36.8994L40.7794 36.3619C39.8361 36.1864 38.8943 36.0015 37.9493 35.8323C37.006 35.6568 35.0378 35.3465 35.0378 35.3465L32.1873 35.2431C31.2376 35.2148 30.2864 35.1788 29.3368 35.1584C29.3368 35.1584 29.166 35.1537 28.9027 35.149C27.2918 35.113 25.9191 33.969 25.5931 32.391C25.3769 31.3458 25.637 30.2598 26.3014 29.4246C26.9424 28.6207 28.3245 27.4125 29.9621 26.922C31.0183 26.607 32.46 26.56 33.3516 26.5663C33.9878 26.571 34.6241 26.5193 35.254 26.4158C36.0015 26.292 36.9151 26.1338 37.2504 26.0413C38.9852 25.5634 40.6541 24.9287 40.6541 24.9287C40.6541 24.9287 38.479 25.3361 36.5421 25.5258C34.9986 25.6762 33.7136 25.6229 33.0304 25.579C31.5761 25.485 30.1313 25.1293 29.3368 25.2343C27.74 25.449 26.6916 26.1949 26.6916 26.1949L23.6327 25.7373L23.219 25.3236L22.8053 25.7373L19.7464 26.1949C19.7464 26.1949 18.6981 25.449 17.1013 25.2343C16.3083 25.1277 14.8635 25.485 13.4077 25.579C12.726 25.6229 11.4411 25.6762 9.89751 25.5258C7.9622 25.3361 5.78556 24.9287 5.78556 24.9287C5.78556 24.9287 7.45291 25.5618 9.18764 26.0413C9.52299 26.1338 10.4366 26.292 11.1841 26.4158C11.8125 26.5193 12.4487 26.571 13.0865 26.5663C13.9781 26.56 15.4214 26.607 16.476 26.922C18.1136 27.4125 19.4973 28.6207 20.1366 29.4246C20.8011 30.2598 21.0612 31.3458 20.8449 32.391C20.519 33.969 19.1463 35.113 17.5353 35.149C17.2721 35.1553 17.0997 35.1584 17.0997 35.1584C16.1501 35.1788 15.1989 35.2148 14.2492 35.2431L11.3987 35.3465C11.3987 35.3465 9.43053 35.6552 8.48716 35.8323C7.54223 36.0015 6.60043 36.1864 5.65706 36.3619L2.82697 36.8994C1.8836 37.0781 0.941799 37.2583 0 37.451C0.959037 37.4025 1.91807 37.3413 2.87554 37.2787L5.74952 37.0922C6.70699 37.0264 7.66603 36.9699 8.62193 36.8979C9.56059 36.8336 10.4946 36.7443 11.4301 36.6581L14.2665 36.6926C15.2177 36.6973 16.1689 36.7114 17.1185 36.7083L19.9705 36.7067C20.917 36.6941 22.271 36.6941 23.2175 36.6722C24.164 36.6926 25.5179 36.6941 26.4644 36.7067L29.3164 36.7083C30.2661 36.7114 31.2173 36.6973 32.1685 36.6926L35.0048 36.6581C35.9404 36.7427 36.8743 36.8336 37.8114 36.8979C38.7673 36.9699 39.7264 37.0264 40.6838 37.0922L43.5578 37.2787C44.5153 37.3413 45.4743 37.4025 46.4334 37.451C45.4916 37.2583 44.5482 37.0781 43.6064 36.8994H43.608Z" fill="#85363F"/>
<path d="M50.3955 8.2842V5.53479H62.3656V8.2842H58.1591V21.1246H54.602V8.2842H50.3955Z" fill="#292E2E"/>
<path d="M69.7403 5.53479C71.5699 5.53479 73.0765 5.90401 74.1248 6.68862C75.1699 7.47322 75.76 8.67321 75.76 10.2655V10.3512C75.76 11.5512 75.4336 12.4215 74.8435 13.0973C74.2534 13.7731 73.449 14.2314 72.5556 14.4918L76.6764 21.1214H72.9248L69.1963 15.1017H67.67V21.1214H64.1591V5.53149H69.7403V5.53479ZM72.3117 10.4633V10.3776C72.3117 8.78529 71.3754 8.24134 69.6513 8.24134H67.6667V12.7116H69.6513C71.4183 12.7116 72.3117 11.9501 72.3117 10.4666V10.4633Z" fill="#292E2E"/>
<path d="M78.1698 15.0423V5.53479H81.7236V14.8247C81.7236 17.4423 82.4653 18.5533 84.6246 18.5533C86.718 18.5533 87.6345 17.5511 87.6345 14.6962V5.53809H91.1883V14.9138C91.1883 19.1862 88.8542 21.3686 84.6016 21.3686C80.4808 21.3686 78.1698 19.2093 78.1698 15.0456V15.0423Z" fill="#292E2E"/>
<path d="M94.9728 19.9707C93.9278 19.0773 93.3805 17.8114 93.2948 16.2422H96.6739C96.7596 16.9411 96.9343 17.5939 97.3925 18.0323C97.8508 18.4906 98.5694 18.7971 99.7266 18.7971C101.296 18.7971 102.298 17.9466 102.298 16.7235C102.298 16.1137 102.123 15.6983 101.688 15.3719C101.23 15.0884 100.488 14.8708 99.354 14.6961C97.3464 14.4357 95.9519 14.0203 95.0585 13.2555C94.1223 12.5368 93.7267 11.4687 93.7267 9.96212C93.7267 8.63357 94.2937 7.47644 95.2761 6.62591C96.2585 5.81823 97.6727 5.31714 99.3969 5.31714C102.908 5.31714 104.958 6.86656 105.239 9.98189H101.988C101.794 8.58741 100.897 7.9116 99.3936 7.9116C97.8244 7.9116 97.0596 8.63026 97.0596 9.6786C97.0596 10.2225 97.1914 10.661 97.6266 10.9445C98.042 11.2709 98.7606 11.4885 99.9606 11.6632C101.859 11.9038 103.277 12.2961 104.236 12.995C105.196 13.7137 105.677 14.8049 105.677 16.3972C105.677 17.7917 105.11 19.0378 104.085 19.9081C103.059 20.8015 101.553 21.3685 99.7233 21.3685C97.564 21.3685 96.0145 20.8674 94.9695 19.974L94.9728 19.9707Z" fill="#292E2E"/>
<path d="M106.712 8.2842V5.53479H118.682V8.2842H114.476V21.1246H110.922V8.2842H106.712Z" fill="#292E2E"/>
<path d="M127.372 5.53479L132.433 21.1246H128.747L127.679 17.6566H122.032L120.964 21.1246H117.65L122.773 5.53479H127.376H127.372ZM126.914 15.1511L124.863 8.41276L122.793 15.1511H126.914Z" fill="#292E2E"/>
<path d="M134.951 19.1202C133.577 17.7257 132.878 15.7609 132.878 13.4302V13.2555C132.878 10.9017 133.705 8.91708 135.123 7.51931C136.517 6.12482 138.525 5.29407 140.813 5.29407C142.557 5.29407 144.192 5.68637 145.435 6.55998C146.677 7.45337 147.571 8.82808 147.746 10.7467H144.235C143.908 8.91709 142.751 8.08633 140.856 8.08633C138.129 8.08633 136.56 10.0907 136.56 13.2983V13.4731C136.56 14.9763 136.886 16.2851 137.585 17.1785C138.284 18.118 139.352 18.6389 140.898 18.6389C142.207 18.6389 143.124 18.2697 143.734 17.6565C144.343 17.0664 144.627 16.2389 144.65 15.3455H141.139V12.7742H148.138V14.4324C148.138 16.5258 147.462 18.2499 146.219 19.4466C144.976 20.6696 143.143 21.3652 140.813 21.3652C138.261 21.3652 136.277 20.5378 134.948 19.1202H134.951Z" fill="#292E2E"/>
<path d="M156.215 5.53479C158.044 5.53479 159.551 5.90401 160.599 6.68862C161.644 7.47322 162.234 8.67321 162.234 10.2655V10.3512C162.234 11.5512 161.908 12.4215 161.318 13.0973C160.728 13.7731 159.923 14.2314 159.03 14.4918L163.151 21.1214H159.399L155.671 15.1017H154.144V21.1214H150.633V5.53149H156.215V5.53479ZM158.786 10.4633V10.3776C158.786 8.78529 157.85 8.24134 156.126 8.24134H154.141V12.7116H156.126C157.893 12.7116 158.786 11.9501 158.786 10.4666V10.4633Z" fill="#292E2E"/>
<path d="M166.131 19.0971C164.737 17.7027 163.952 15.695 163.952 13.4269V13.2522C163.952 10.9182 164.779 8.93357 166.243 7.53908C167.661 6.1446 169.645 5.31384 171.976 5.31384C174.33 5.31384 176.337 6.09845 177.755 7.47315C179.149 8.86764 180 10.8094 180 13.1632V13.3379C180 15.6719 179.192 17.6763 177.798 19.0939C176.403 20.5114 174.396 21.3619 171.953 21.3619C169.51 21.3619 167.506 20.5114 166.131 19.0939V19.0971ZM175.157 17.1356C175.876 16.262 176.314 14.9566 176.314 13.3841V13.2093C176.314 11.7061 175.899 10.4204 175.18 9.52367C174.415 8.63028 173.347 8.10611 171.973 8.10611C170.601 8.10611 169.553 8.6072 168.788 9.48082C168.023 10.3742 167.634 11.6599 167.634 13.2324V13.4071C167.634 14.9994 168.092 16.2851 168.877 17.1554C169.642 18.0488 170.73 18.5499 172.016 18.5499C173.324 18.5499 174.392 18.0257 175.154 17.1323L175.157 17.1356Z" fill="#292E2E"/>
<path d="M56.4247 29.2629H57.2688L55.8381 34.2704H55.0154L53.8065 30.6507L52.619 34.2704H51.7892L50.2941 29.2629H51.2813L52.2899 32.8325L53.4059 29.2629H54.2786L55.4232 32.8397L56.4247 29.2629Z" fill="#292E2E"/>
<path d="M60.9697 34.2704H58.001V29.2629H60.8982V30.0856H58.8809V31.3303H60.6836V32.1529H58.8809V33.4477H60.9697V34.2704Z" fill="#292E2E"/>
<path d="M63.7318 34.2704H63.6317V29.2629H63.7247C63.9345 29.2629 64.1563 29.2605 64.3899 29.2557C64.8573 29.2462 65.0958 29.2414 65.1053 29.2414C66.0782 29.2414 66.7983 29.4894 67.2657 29.9854C67.6997 30.448 67.9167 31.0251 67.9167 31.7166C67.9167 32.4605 67.6663 33.0758 67.1655 33.5622C66.6695 34.0439 65.9637 34.2847 65.0481 34.2847C64.8573 34.2847 64.657 34.2823 64.4472 34.2776C64.2421 34.2728 64.0036 34.2704 63.7318 34.2704ZM65.091 30.0641C64.905 30.0641 64.7118 30.0712 64.5115 30.0856V33.4477C64.7309 33.4573 64.9193 33.462 65.0767 33.462C65.6728 33.462 66.1402 33.3047 66.4788 32.9899C66.8174 32.6752 66.9867 32.2507 66.9867 31.7166C66.9867 31.2063 66.8174 30.8033 66.4788 30.5076C66.1449 30.2119 65.6824 30.0641 65.091 30.0641Z" fill="#292E2E"/>
<path d="M69.8139 32.3962V34.2704H68.934V29.2629C69.182 29.2629 69.4514 29.2605 69.7423 29.2557C70.0332 29.251 70.2717 29.2486 70.4577 29.2486C71.669 29.2486 72.2747 29.7636 72.2747 30.7938C72.2747 31.1753 72.1769 31.49 71.9814 31.738C71.7859 31.9765 71.5617 32.1386 71.309 32.2245L72.8756 34.2704H71.8097L70.4291 32.3962H69.8139ZM70.4148 30.0712C70.3909 30.0712 70.3528 30.0736 70.3003 30.0784C70.2479 30.0784 70.1739 30.0808 70.0785 30.0856C69.9832 30.0856 69.8949 30.0856 69.8139 30.0856V31.5735H70.3862C70.6675 31.5735 70.8964 31.5044 71.0729 31.366C71.2541 31.2277 71.3447 31.0394 71.3447 30.8009C71.3447 30.3145 71.0347 30.0712 70.4148 30.0712Z" fill="#292E2E"/>
<path d="M76.2025 29.2629H77.154L75.3727 32.1816V34.2704H74.4928V32.1816L72.7259 29.2629H73.7274L74.9721 31.3589L76.2025 29.2629Z" fill="#292E2E"/>
<path d="M77.0293 33.8126C77.0293 33.6552 77.077 33.5288 77.1723 33.4334C77.2725 33.3381 77.4084 33.2904 77.5801 33.2904C77.7661 33.2904 77.9163 33.3667 78.0308 33.5193C78.15 33.6671 78.2096 33.8579 78.2096 34.0916C78.2096 34.392 78.1285 34.6495 77.9664 34.8642C77.809 35.0788 77.5872 35.2266 77.3011 35.3077L77.0793 34.9214C77.294 34.8403 77.4394 34.7139 77.5157 34.5422C77.5872 34.3944 77.6087 34.2847 77.5801 34.2132C77.5515 34.2513 77.4895 34.2704 77.3941 34.2704C77.294 34.2704 77.2081 34.2275 77.1366 34.1416C77.065 34.051 77.0293 33.9413 77.0293 33.8126Z" fill="#292E2E"/>
<path d="M83.2304 29.2629H84.1818L82.4006 32.1816V34.2704H81.5207V32.1816L79.7537 29.2629H80.7552L81.9999 31.3589L83.2304 29.2629Z" fill="#292E2E"/>
<path d="M84.2873 31.7666C84.2873 31.037 84.5305 30.4242 85.017 29.9282C85.513 29.4322 86.1377 29.1842 86.8912 29.1842C87.6447 29.1842 88.2671 29.4227 88.7583 29.8996C89.2543 30.3812 89.5023 31.0036 89.5023 31.7666C89.5023 32.5154 89.2543 33.133 88.7583 33.6194C88.2623 34.1059 87.64 34.3491 86.8912 34.3491C86.1377 34.3491 85.5153 34.1106 85.0241 33.6337C84.5329 33.1568 84.2873 32.5345 84.2873 31.7666ZM85.2173 31.7666C85.2173 32.2722 85.377 32.6918 85.6966 33.0257C86.0161 33.3595 86.4143 33.5264 86.8912 33.5264C87.4063 33.5264 87.814 33.3595 88.1145 33.0257C88.4197 32.6918 88.5723 32.2722 88.5723 31.7666C88.5723 31.2564 88.4102 30.8343 88.0859 30.5005C87.7616 30.1714 87.3634 30.0069 86.8912 30.0069C86.4095 30.0069 86.0089 30.1714 85.6894 30.5005C85.3747 30.8295 85.2173 31.2516 85.2173 31.7666Z" fill="#292E2E"/>
<path d="M93.6967 29.2629H94.5694V32.1959C94.5694 32.916 94.381 33.4549 94.0043 33.8126C93.6228 34.1703 93.1482 34.3491 92.5807 34.3491C91.9369 34.3491 91.4195 34.1607 91.0284 33.784C90.6421 33.4072 90.449 32.8611 90.449 32.1458V29.2629H91.3288V31.9598C91.3288 32.4558 91.4338 32.8421 91.6436 33.1187C91.8582 33.3905 92.1706 33.5264 92.5807 33.5264C93.3247 33.5264 93.6967 33.0233 93.6967 32.017V29.2629Z" fill="#292E2E"/>
<path d="M98.4101 30.0856H96.7863V29.2629H100.914V30.0856H99.29V34.2704H98.4101V30.0856Z" fill="#292E2E"/>
<path d="M102.557 32.3962V34.2704H101.677V29.2629C101.925 29.2629 102.194 29.2605 102.485 29.2557C102.776 29.251 103.015 29.2486 103.201 29.2486C104.412 29.2486 105.018 29.7636 105.018 30.7938C105.018 31.1753 104.92 31.49 104.724 31.738C104.529 31.9765 104.305 32.1386 104.052 32.2245L105.619 34.2704H104.553L103.172 32.3962H102.557ZM103.158 30.0712C103.134 30.0712 103.096 30.0736 103.043 30.0784C102.991 30.0784 102.917 30.0808 102.822 30.0856C102.726 30.0856 102.638 30.0856 102.557 30.0856V31.5735H103.129C103.411 31.5735 103.639 31.5044 103.816 31.366C103.997 31.2277 104.088 31.0394 104.088 30.8009C104.088 30.3145 103.778 30.0712 103.158 30.0712Z" fill="#292E2E"/>
<path d="M108.946 29.2629H109.897L108.116 32.1816V34.2704H107.236V32.1816L105.469 29.2629H106.47L107.715 31.3589L108.946 29.2629Z" fill="#292E2E"/>
<path d="M109.758 33.7339C109.758 33.5956 109.81 33.474 109.915 33.3691C110.025 33.2594 110.163 33.2045 110.33 33.2045C110.473 33.2045 110.595 33.2594 110.695 33.3691C110.8 33.474 110.852 33.5956 110.852 33.7339C110.852 33.8913 110.8 34.0272 110.695 34.1416C110.595 34.2513 110.473 34.3062 110.33 34.3062C110.163 34.3062 110.025 34.2513 109.915 34.1416C109.81 34.0272 109.758 33.8913 109.758 33.7339Z" fill="#292E2E"/>
<path d="M112.168 33.7339C112.168 33.5956 112.221 33.474 112.326 33.3691C112.435 33.2594 112.574 33.2045 112.74 33.2045C112.884 33.2045 113.005 33.2594 113.105 33.3691C113.21 33.474 113.263 33.5956 113.263 33.7339C113.263 33.8913 113.21 34.0272 113.105 34.1416C113.005 34.2513 112.884 34.3062 112.74 34.3062C112.574 34.3062 112.435 34.2513 112.326 34.1416C112.221 34.0272 112.168 33.8913 112.168 33.7339Z" fill="#292E2E"/>
<path d="M114.578 33.7339C114.578 33.5956 114.631 33.474 114.736 33.3691C114.845 33.2594 114.984 33.2045 115.151 33.2045C115.294 33.2045 115.415 33.2594 115.515 33.3691C115.62 33.474 115.673 33.5956 115.673 33.7339C115.673 33.8913 115.62 34.0272 115.515 34.1416C115.415 34.2513 115.294 34.3062 115.151 34.3062C114.984 34.3062 114.845 34.2513 114.736 34.1416C114.631 34.0272 114.578 33.8913 114.578 33.7339Z" fill="#292E2E"/>
<path d="M118.792 34.2704H117.912V29.2629H120.774V30.0856H118.792V31.502H120.559V32.3246H118.792V34.2704Z" fill="#292E2E"/>
<path d="M122.634 32.3962V34.2704H121.755V29.2629C122.003 29.2629 122.272 29.2605 122.563 29.2557C122.854 29.251 123.092 29.2486 123.278 29.2486C124.49 29.2486 125.095 29.7636 125.095 30.7938C125.095 31.1753 124.998 31.49 124.802 31.738C124.606 31.9765 124.382 32.1386 124.13 32.2245L125.696 34.2704H124.63L123.25 32.3962H122.634ZM123.235 30.0712C123.212 30.0712 123.173 30.0736 123.121 30.0784C123.068 30.0784 122.995 30.0808 122.899 30.0856C122.804 30.0856 122.716 30.0856 122.634 30.0856V31.5735H123.207C123.488 31.5735 123.717 31.5044 123.893 31.366C124.075 31.2277 124.165 31.0394 124.165 30.8009C124.165 30.3145 123.855 30.0712 123.235 30.0712Z" fill="#292E2E"/>
<path d="M129.639 29.2629H130.512V32.1959C130.512 32.916 130.324 33.4549 129.947 33.8126C129.565 34.1703 129.091 34.3491 128.523 34.3491C127.88 34.3491 127.362 34.1607 126.971 33.784C126.585 33.4072 126.392 32.8611 126.392 32.1458V29.2629H127.271V31.9598C127.271 32.4558 127.376 32.8421 127.586 33.1187C127.801 33.3905 128.113 33.5264 128.523 33.5264C129.267 33.5264 129.639 33.0233 129.639 32.017V29.2629Z" fill="#292E2E"/>
<path d="M132.822 34.2704H131.943V29.2629H132.822V34.2704Z" fill="#292E2E"/>
<path d="M135.317 30.0856H133.693V29.2629H137.821V30.0856H136.197V34.2704H135.317V30.0856Z" fill="#292E2E"/>
<path d="M140.594 32.9398C140.594 32.7872 140.537 32.6537 140.422 32.5392C140.312 32.42 140.174 32.3246 140.007 32.2531C139.84 32.1768 139.657 32.0909 139.456 31.9956C139.261 31.8954 139.08 31.7929 138.913 31.688C138.746 31.5783 138.605 31.428 138.491 31.2373C138.381 31.0418 138.326 30.8176 138.326 30.5648C138.326 30.1786 138.467 29.8519 138.748 29.5848C139.039 29.3177 139.418 29.1842 139.886 29.1842C140.52 29.1842 140.997 29.363 141.316 29.7207L140.844 30.3789C140.591 30.1309 140.296 30.0069 139.957 30.0069C139.743 30.0069 139.571 30.0569 139.442 30.1571C139.318 30.2572 139.256 30.3908 139.256 30.5577C139.256 30.6435 139.273 30.7246 139.306 30.8009C139.34 30.8725 139.375 30.9321 139.413 30.9798C139.456 31.0274 139.523 31.0799 139.614 31.1371C139.709 31.1944 139.783 31.2373 139.836 31.2659C139.893 31.2897 139.986 31.3303 140.115 31.3875C140.243 31.4447 140.334 31.4853 140.386 31.5091C140.596 31.6045 140.78 31.7047 140.937 31.8096C141.114 31.9145 141.254 32.0647 141.359 32.2602C141.469 32.4558 141.524 32.6799 141.524 32.9327C141.524 33.3524 141.364 33.6933 141.045 33.9556C140.725 34.2179 140.327 34.3491 139.85 34.3491C139.516 34.3491 139.185 34.2799 138.855 34.1416C138.541 33.9986 138.326 33.8054 138.212 33.5622L138.712 32.9613C138.846 33.1378 139.018 33.2761 139.227 33.3762C139.442 33.4764 139.654 33.5264 139.864 33.5264C140.084 33.5264 140.26 33.474 140.394 33.3691C140.527 33.2641 140.594 33.1211 140.594 32.9398Z" fill="#292E2E"/>
<path d="M144.297 34.2704H143.41L145.527 29.2486H146.3L148.417 34.2704H147.48L146.958 32.9899H144.819L144.297 34.2704ZM146.622 32.1673L145.892 30.386L145.155 32.1673H146.622Z" fill="#292E2E"/>
<path d="M153.445 29.2629V34.2704H152.744L149.99 30.8009V34.2704H149.167V29.2629H149.868L152.623 32.7467V29.2629H153.445Z" fill="#292E2E"/>
<path d="M154.933 34.2704H154.833V29.2629H154.926C155.136 29.2629 155.358 29.2605 155.591 29.2557C156.059 29.2462 156.297 29.2414 156.307 29.2414C157.279 29.2414 158 29.4894 158.467 29.9854C158.901 30.448 159.118 31.0251 159.118 31.7166C159.118 32.4605 158.868 33.0758 158.367 33.5622C157.871 34.0439 157.165 34.2847 156.249 34.2847C156.059 34.2847 155.858 34.2823 155.648 34.2776C155.443 34.2728 155.205 34.2704 154.933 34.2704ZM156.292 30.0641C156.106 30.0641 155.913 30.0712 155.713 30.0856V33.4477C155.932 33.4573 156.121 33.462 156.278 33.462C156.874 33.462 157.341 33.3047 157.68 32.9899C158.019 32.6752 158.188 32.2507 158.188 31.7166C158.188 31.2063 158.019 30.8033 157.68 30.5076C157.346 30.2119 156.884 30.0641 156.292 30.0641Z" fill="#292E2E"/>
<path d="M165.929 29.2629V34.2704H165.228L162.474 30.8009V34.2704H161.651V29.2629H162.352L165.106 32.7467V29.2629H165.929Z" fill="#292E2E"/>
<path d="M170.493 29.2629H171.366V32.1959C171.366 32.916 171.177 33.4549 170.801 33.8126C170.419 34.1703 169.945 34.3491 169.377 34.3491C168.733 34.3491 168.216 34.1607 167.825 33.784C167.438 33.4072 167.245 32.8611 167.245 32.1458V29.2629H168.125V31.9598C168.125 32.4558 168.23 32.8421 168.44 33.1187C168.655 33.3905 168.967 33.5264 169.377 33.5264C170.121 33.5264 170.493 33.0233 170.493 32.017V29.2629Z" fill="#292E2E"/>
<path d="M173.69 30.0856H172.067V29.2629H176.194V30.0856H174.57V34.2704H173.69V30.0856Z" fill="#292E2E"/>
<path d="M178.968 32.9398C178.968 32.7872 178.91 32.6537 178.796 32.5392C178.686 32.42 178.548 32.3246 178.381 32.2531C178.214 32.1768 178.03 32.0909 177.83 31.9956C177.635 31.8954 177.453 31.7929 177.286 31.688C177.12 31.5783 176.979 31.428 176.864 31.2373C176.755 31.0418 176.7 30.8176 176.7 30.5648C176.7 30.1786 176.841 29.8519 177.122 29.5848C177.413 29.3177 177.792 29.1842 178.259 29.1842C178.894 29.1842 179.371 29.363 179.69 29.7207L179.218 30.3789C178.965 30.1309 178.669 30.0069 178.331 30.0069C178.116 30.0069 177.945 30.0569 177.816 30.1571C177.692 30.2572 177.63 30.3908 177.63 30.5577C177.63 30.6435 177.646 30.7246 177.68 30.8009C177.713 30.8725 177.749 30.9321 177.787 30.9798C177.83 31.0274 177.897 31.0799 177.987 31.1371C178.083 31.1944 178.157 31.2373 178.209 31.2659C178.266 31.2897 178.359 31.3303 178.488 31.3875C178.617 31.4447 178.708 31.4853 178.76 31.5091C178.97 31.6045 179.154 31.7047 179.311 31.8096C179.487 31.9145 179.628 32.0647 179.733 32.2602C179.843 32.4558 179.897 32.6799 179.897 32.9327C179.897 33.3524 179.738 33.6933 179.418 33.9556C179.099 34.2179 178.7 34.3491 178.224 34.3491C177.89 34.3491 177.558 34.2799 177.229 34.1416C176.914 33.9986 176.7 33.8054 176.585 33.5622L177.086 32.9613C177.22 33.1378 177.391 33.2761 177.601 33.3762C177.816 33.4764 178.028 33.5264 178.238 33.5264C178.457 33.5264 178.634 33.474 178.767 33.3691C178.901 33.2641 178.968 33.1211 178.968 32.9398Z" fill="#292E2E"/>
</svg>
