<svg width="56" height="56" viewBox="0 0 56 56" fill="none" xmlns="http://www.w3.org/2000/svg">
<path d="M36.1559 37.5427L33.0415 27.9563L41.1941 22.0333H31.1165L28.0018 12.4472L28.0009 12.4446H38.08L41.1954 22.0322L41.1957 22.032L41.1983 22.0306C43.0075 27.5926 41.1441 33.9189 36.1559 37.5426V37.5427ZM19.8469 37.5427L19.8444 37.5445L27.9992 43.4692L36.1559 37.5429L28.0018 31.6181L19.847 37.5427H19.8469ZM14.8068 22.0308C12.9022 27.894 15.1131 34.1067 19.8454 37.5439L19.8462 37.5408L22.9611 27.955L14.8102 22.0331H24.8854L28.0002 12.4471L28.0009 12.4445H17.9212L14.8067 22.0308H14.8068Z" fill="#EB5424"/>
</svg>
