<svg width="57" height="56" viewBox="0 0 57 56" fill="none" xmlns="http://www.w3.org/2000/svg">
<g clip-path="url(#clip0_1_5854)">
<path d="M12.8268 12.514H44.1118V43.7989H12.8268V12.514Z" fill="#6762A5"/>
<path d="M30.5654 37.1652V27.3117C30.5654 27.3117 31.2061 24.9541 22.6704 28.2766C22.6553 28.3191 22.6553 19.1639 22.6553 19.1639L25.4447 19.1464V25.0117C25.4447 25.0117 33.2534 21.9357 33.2534 27.3443V37.1652H30.5654ZM32.1547 22.6966H29.1964C30.2613 21.3951 31.2249 19.1639 31.2249 19.1639H34.2833C34.2845 19.1639 33.7602 20.618 32.1547 22.6966ZM22.7054 37.149V31.5377L25.511 34.3433L22.7054 37.149Z" fill="white"/>
</g>
<defs>
<clipPath id="clip0_1_5854">
<rect width="31.2849" height="31.2849" fill="white" transform="translate(12.8268 12.514)"/>
</clipPath>
</defs>
</svg>
