<svg width="56" height="56" viewBox="0 0 56 56" fill="none" xmlns="http://www.w3.org/2000/svg">
<path d="M43.5556 28.6798C43.5556 26.2203 42.9198 23.9098 41.8046 21.9019C46.5576 11.145 36.7119 12.7205 36.1637 12.8278C34.0778 13.236 32.1479 13.8913 30.3679 14.722C30.1054 14.7072 29.8412 14.6991 29.5751 14.6991C22.9318 14.6991 17.3709 19.3327 15.9477 25.5443C19.4492 21.6162 21.8996 20.0312 23.367 19.3971C23.1344 19.6052 22.9047 19.8166 22.6779 20.0312C22.6028 20.1021 22.5305 20.174 22.4565 20.2452C22.3079 20.3875 22.1605 20.5311 22.0144 20.676C21.9281 20.762 21.8443 20.8486 21.7592 20.9353C21.6308 21.0654 21.5034 21.1964 21.377 21.3284C21.2878 21.422 21.2008 21.5157 21.1133 21.6094C20.9963 21.7343 20.8802 21.86 20.7651 21.9866C20.6764 22.0847 20.5889 22.1826 20.5016 22.2809C20.3048 22.5023 20.1105 22.7259 19.9188 22.9518C19.8188 23.0698 19.7196 23.1883 19.621 23.3075C19.5343 23.4125 19.4477 23.5172 19.3628 23.6221C19.2717 23.7348 19.1812 23.848 19.0913 23.9617C19.0043 24.0713 18.9174 24.1807 18.8324 24.2902C18.7515 24.3943 18.673 24.4981 18.5939 24.602C18.5046 24.7195 18.4145 24.8369 18.3276 24.9537C18.2654 25.0373 18.2057 25.1202 18.1446 25.2034C17.6178 25.9221 17.1132 26.6568 16.6317 27.4065C16.6305 27.4082 16.6293 27.4099 16.6284 27.4117C16.5106 27.5955 16.3941 27.7801 16.279 27.9655C16.2729 27.9754 16.2666 27.9853 16.2605 27.9954C16.1491 28.1752 16.0389 28.3558 15.9301 28.5372L15.9187 28.556C15.6458 29.0106 15.3809 29.47 15.1243 29.9339C13.8651 32.2157 13.2521 33.8099 13.2256 33.9046C9.24947 48.1197 21.6592 42.1169 23.3908 41.2207C25.2554 42.1419 27.3545 42.6603 29.5751 42.6603C35.6541 42.6603 40.8262 38.7799 42.7514 33.3611H35.4056C34.3186 35.1974 32.226 36.4413 29.822 36.4413C26.2996 36.4413 23.4443 33.7725 23.4443 30.4803H43.4405C43.5163 29.8908 43.5556 29.2898 43.5556 28.6798ZM40.944 14.9219C42.1479 15.7346 43.1135 17.0106 41.4552 21.3082C39.8647 18.7503 37.4718 16.7438 34.6277 15.6409C35.9215 15.0161 39.1254 13.6945 40.944 14.9219ZM15.3587 41.1921C14.378 40.1865 14.2047 37.7372 16.3686 33.2741C17.4605 36.4138 19.6396 39.0445 22.4562 40.7141C21.0554 41.4851 17.3367 43.2211 15.3587 41.1921ZM23.4134 26.6573C23.5252 23.4576 26.3099 20.8956 29.7313 20.8956C33.1527 20.8956 35.9375 23.4576 36.0493 26.6573H23.4134Z" fill="#1EBBEE"/>
</svg>
