<svg width="56" height="56" viewBox="0 0 56 56" fill="none" xmlns="http://www.w3.org/2000/svg">
<path d="M21.9019 38.5138C21.8788 38.4739 21.8582 38.4327 21.8402 38.3904C21.716 38.1095 21.6778 37.7996 21.7303 37.498H14.3754L25.3057 18.7163L28.8941 24.8758L29.9344 23.0783L26.8063 17.6977C26.6564 17.4221 26.4381 17.1876 26.1715 17.0157C25.9049 16.8437 25.5983 16.7397 25.2799 16.7133C24.9621 16.7274 24.6548 16.8283 24.3929 17.0045C24.1309 17.1807 23.9249 17.4251 23.7982 17.71L12.7251 36.7196C12.5596 36.988 12.4641 37.292 12.4472 37.6048C12.4302 37.9177 12.4923 38.2298 12.6279 38.5138C12.7982 38.776 13.0402 38.9864 13.3266 39.1213C13.613 39.2562 13.9324 39.3101 14.2486 39.277H23.5231C23.2069 39.3106 22.8873 39.2569 22.6008 39.122C22.3143 38.9871 22.0723 38.7763 21.9024 38.5138H21.9019Z" fill="#00C492"/>
<path d="M43.2246 36.7191L34.1251 21.0686C33.9759 20.7901 33.7572 20.5528 33.4892 20.3786C33.2213 20.2044 32.9127 20.0989 32.592 20.0719C32.2746 20.0853 31.9675 20.1856 31.7057 20.3612C31.4439 20.5369 31.2379 20.7808 31.1113 21.0653L29.9344 23.0778L30.9815 24.8758L32.6017 22.0749L41.6039 37.4975H38.1808C38.2245 37.7525 38.1999 38.0141 38.1093 38.257C38.0902 38.3107 38.0663 38.3626 38.0378 38.4122L38.0087 38.4692C37.8227 38.7256 37.5749 38.9334 37.2871 39.0742C36.9994 39.2149 36.6805 39.2842 36.3588 39.276H41.7138C42.0356 39.2845 42.3545 39.2152 42.6423 39.0745C42.9301 38.9337 43.1779 38.7258 43.3637 38.4692C43.5103 38.1939 43.575 37.8841 43.5504 37.5747C43.5259 37.2654 43.413 36.969 43.2246 36.7191Z" fill="#008776"/>
<path d="M38.0092 38.4696L38.0384 38.4127C38.0667 38.3631 38.0904 38.3111 38.1093 38.2575C38.1999 38.0146 38.2245 37.753 38.1808 37.498C38.1303 37.2231 38.0291 36.9594 37.8823 36.7196L30.9883 24.8758L29.9349 23.0783L28.8878 24.8758L21.9962 36.7196C21.8624 36.9622 21.7725 37.2256 21.7303 37.498C21.6748 37.7989 21.7098 38.109 21.8309 38.3908C21.8489 38.4332 21.8695 38.4744 21.8927 38.5143C22.063 38.7764 22.3051 38.9867 22.5915 39.1215C22.8779 39.2563 23.1972 39.3102 23.5134 39.277H36.3491C36.6724 39.2863 36.9931 39.2176 37.2826 39.0768C37.5721 38.936 37.8215 38.7276 38.0087 38.4701L38.0092 38.4696ZM29.9344 26.6737L36.2359 37.4976H23.6359L29.9344 26.6737Z" fill="#2D4A5D"/>
</svg>
