<svg width="57" height="56" viewBox="0 0 57 56" fill="none" xmlns="http://www.w3.org/2000/svg">
<path d="M13.207 12.4444H44.4919V43.5556H13.207V12.4444Z" fill="#34BDB2"/>
<path d="M33.794 23.0223C32.1423 22.0693 30.676 21.3199 28.7579 21.3529C27.6605 21.3719 26.7182 21.9651 26.5202 23.0507C26.3357 24.0607 27.2386 24.6209 28.1779 24.9648C29.7357 25.5353 31.0918 26.1376 32.6224 26.7718C35.4049 27.925 36.8317 29.7925 36.6631 32.1887C36.4485 35.2375 34.6034 37.4241 31.671 38.145C27.8394 39.0871 24.1185 37.6521 20.9748 35.6488C21.7683 34.4468 22.6888 33.6262 23.4776 32.4315C25.2938 33.2003 26.7207 34.2391 28.6208 34.4011C29.9605 34.5153 31.4786 34.4518 31.7796 32.8869C32.0509 31.4757 30.8158 30.7192 29.6112 30.2966C28.1772 29.7936 26.7457 29.1783 25.3394 28.6071C22.7397 27.5512 21.6819 25.4858 21.8599 23.0527C21.8599 21.6261 23.0502 18.7426 25.9686 17.8457C30.4526 16.4676 32.9232 17.8788 36.1747 19.9568C35.3111 21.0926 34.6471 21.9002 33.794 23.0223Z" fill="white"/>
</svg>
